<svg width="426" height="424" viewBox="0 0 426 424" fill="none" xmlns="http://www.w3.org/2000/svg">
<path fill-rule="evenodd" clip-rule="evenodd" d="M282.395 197.753C282.395 198.367 282.599 198.772 282.714 199.166C283.46 201.726 285.065 203.923 286.969 205.927C289.682 208.783 293.003 211.083 296.406 213.245C299.357 215.12 302.368 216.953 305.331 218.814C305.84 219.134 306.321 219.501 306.873 219.893C306.398 220.12 306.003 220.32 305.592 220.504C301.682 222.257 297.92 224.222 294.452 226.602C292.362 228.038 290.341 229.563 288.914 231.555C286.618 234.761 285.805 238.176 287.517 241.822C288.016 242.887 288.779 243.807 289.854 244.487C290.203 244.707 290.594 244.925 291.002 245.011C292.047 245.228 293.112 245.37 294.169 245.542L297.165 245.541C300.478 245.28 303.493 244.277 306.218 242.615C310.477 240.017 313.346 236.534 314.58 232.064C315.476 228.814 315.513 225.562 314.456 222.328C314.355 222.028 314.238 221.733 314.106 221.443C313.978 221.152 313.827 220.869 313.649 220.507L320.44 217.055L320.542 217.132C320.419 217.489 320.287 217.845 320.176 218.206C319.369 220.811 318.832 223.461 319.025 226.164C319.23 229.045 320.14 231.741 322.048 234.148C323.591 236.095 327.267 236.167 328.907 234.214C329.488 233.52 330.052 232.794 330.476 232.02C331.583 229.999 332.608 227.942 333.666 225.9L333.851 225.526C333.775 226.493 333.686 227.343 333.645 228.193C333.582 229.521 333.67 230.841 334.184 232.104C334.623 233.184 335.371 233.992 336.771 234.134C337.729 234.231 338.493 233.843 339.197 233.352C340.288 232.59 341.192 231.64 341.855 230.559C343.732 227.512 345.66 224.483 347.362 221.359C349.203 217.98 350.813 214.502 352.523 211.065L352.805 210.456C353.209 211.859 353.49 213.233 354.009 214.533C354.611 216.043 355.357 217.516 356.169 218.949C356.553 219.625 356.509 220.064 355.976 220.632C353.748 223.006 351.559 225.409 349.367 227.81C348.882 228.34 348.399 228.879 347.995 229.458C347.75 229.823 347.589 230.228 347.521 230.649C347.453 231.036 347.557 231.431 347.812 231.752C348.067 232.073 348.452 232.294 348.887 232.369C349.765 232.536 350.666 232.593 351.562 232.538C354.62 232.338 357.398 231.39 359.853 229.782C363.034 227.699 364.055 224.857 363.285 221.488C363.077 220.574 362.708 219.685 362.35 218.805C362.189 218.407 362.178 218.129 362.471 217.759C365.015 214.549 367.187 211.144 369.208 207.66C369.288 207.523 369.37 207.386 369.51 207.239C370.165 210.251 371.151 213.153 372.917 215.787C372.016 216.554 371.124 217.25 370.317 218.016C368.54 219.705 367 221.538 366.196 223.773C365.85 224.737 365.584 225.716 365.738 226.746C365.977 228.344 367.459 229.383 369.238 229.019C373.044 228.24 376.33 226.655 378.731 223.847C380.347 221.956 380.494 219.847 379.818 217.638C379.632 217.037 379.412 216.446 379.175 215.757C380.114 215.5 381.029 215.191 381.977 215C386.894 214.008 391.758 214.181 396.497 215.75C399.264 216.667 401.499 218.201 402.824 220.613C404.443 223.563 403.548 226.362 400.402 228.226C400.109 228.4 399.773 228.537 399.53 228.754C399.453 228.834 399.394 228.927 399.359 229.028C399.325 229.129 399.314 229.235 399.328 229.339C399.349 229.446 399.67 229.581 399.854 229.579C400.888 229.572 401.727 229.093 402.532 228.601C404.549 227.367 406.02 225.708 406.337 223.523L406.4 223.359L406.324 221.936C406.293 221.854 406.346 221.773 406.339 221.711C405.911 218.529 403.988 216.061 401.191 214.127C397.951 211.888 394.126 210.966 390.08 210.82C386.799 210.695 383.523 211.141 380.436 212.132C379.55 212.416 378.672 212.752 377.781 213.069C377.662 212.877 377.533 212.694 377.427 212.505C376.513 210.85 375.405 209.268 375.16 207.37C374.986 206.022 374.773 204.676 375.135 203.343C375.484 202.061 375.938 200.8 376.366 199.536C376.586 198.884 376.431 198.52 375.728 198.226C375.483 198.118 375.221 198.042 374.951 198.001C373.223 197.779 371.518 197.906 369.844 198.336C369.252 198.489 368.821 198.782 368.69 199.362C368.615 199.694 368.461 200.013 368.355 200.341C367.917 201.706 367.607 203.096 366.9 204.396C365.128 207.656 363.105 210.794 361.035 213.908C360.811 214.244 360.575 214.574 360.292 214.982C359.566 213.638 358.79 212.431 358.555 211.017C358.29 209.418 358.08 207.821 358.531 206.234C358.865 205.051 359.303 203.889 359.706 202.721C359.896 202.166 359.809 201.874 359.24 201.582C358.952 201.434 358.627 201.303 358.303 201.261C356.531 201.022 354.72 201.153 353.015 201.643C352.479 201.797 352.198 202.103 352.034 202.592C351.552 204.034 351.141 205.511 350.464 206.882C347.724 212.434 344.906 217.957 342.09 223.479C341.502 224.632 340.814 225.745 340.151 226.868C339.983 227.152 339.738 227.403 339.529 227.67C339.361 227.495 339.296 227.374 339.297 227.254C339.302 226.544 339.206 225.813 339.359 225.127C339.829 223.052 340.349 220.986 340.918 218.93C341.382 217.232 341.922 215.549 342.437 213.861C342.609 213.296 342.612 212.768 342.153 212.293C341.382 211.498 339.77 211.324 338.814 211.936L338.391 212.148L338.473 211.545C338.675 210.254 338.715 208.968 338.314 207.696C337.814 206.111 336.534 205.198 334.674 205.249C333.806 205.272 332.896 205.403 332.093 205.683C328.716 206.852 326.119 208.924 323.909 211.416C323.704 211.648 323.45 211.841 323.161 211.987C320.304 213.387 317.438 214.77 314.573 216.158L311.383 217.702C310.528 216.981 309.751 216.233 308.869 215.598C306.175 213.657 303.439 211.764 300.727 209.844C298.323 208.143 295.994 206.371 294.212 204.118C292.886 202.442 292.032 200.608 291.95 198.535C291.846 195.895 292.694 193.482 294.215 191.236C296.161 188.362 298.814 186.056 301.732 183.967C304.818 181.758 308.157 179.883 311.617 178.172C316.457 175.777 321.436 173.658 326.774 172.258C332.248 170.823 337.801 170.002 343.53 170.575C345.782 170.8 347.968 171.255 349.976 172.229C351.514 172.973 352.775 173.948 353.362 175.473C353.941 176.972 353.923 178.492 353.522 180.015C352.707 183.1 350.796 185.643 348.391 187.915C344.446 191.64 339.635 194.176 334.217 195.851C331.102 196.815 327.862 197.426 324.573 197.669C321.877 197.869 319.238 197.658 316.686 196.83C314.996 196.28 313.525 195.441 312.341 194.222C312.13 194.004 311.859 193.767 311.465 193.972C311.079 194.172 311.011 194.497 311.14 194.826C311.357 195.373 311.556 195.942 311.893 196.431C312.739 197.657 313.974 198.547 315.333 199.31C317.943 200.777 320.861 201.27 323.886 201.384C328.477 201.56 332.956 200.954 337.372 199.866C343.676 198.312 349.158 195.567 353.554 191.238C357.214 187.632 359.828 183.564 360.388 178.651C360.662 176.253 360.371 173.904 359.1 171.716C357.723 169.346 355.532 167.584 352.913 166.37C349.098 164.602 344.982 163.573 340.733 163.573H336.476C331.33 163.573 326.355 164.876 321.52 166.431C317.86 167.608 314.27 168.998 310.786 170.536C303.198 173.887 296.131 177.928 290.326 183.484C287.435 186.252 284.986 189.307 283.578 192.903C283.153 193.977 282.786 195.068 282.48 196.173M309.976 227.61C309.647 231.502 307.651 234.658 304.389 237.214C302.554 238.651 300.449 239.674 297.998 240.033C297.109 240.163 296.199 240.195 295.337 239.869C294.107 239.405 293.832 238.44 293.808 237.413C293.771 235.775 294.42 234.295 295.31 232.886C296.472 231.049 298.174 229.649 299.993 228.341C302.857 226.28 305.964 224.536 309.146 222.89L309.386 222.803C309.878 224.409 310.112 225.995 309.976 227.61ZM334.824 210.693C334.592 211.936 334.301 213.18 333.89 214.385C332.47 218.555 330.646 222.596 328.673 226.582C328.309 227.32 327.779 227.993 327.317 228.692C327.239 228.8 327.145 228.898 327.038 228.984C326.467 229.482 325.926 229.456 325.637 228.804C325.302 228.046 325.095 227.235 324.917 226.433C324.798 225.895 324.827 225.329 324.789 224.777C324.827 220.854 326.182 217.289 328.479 213.97C329.426 212.602 330.457 211.297 332.032 210.432C332.523 210.162 333.053 209.955 333.608 209.815C334.447 209.607 334.963 209.95 334.824 210.693ZM351.776 229.783L357.869 223.495C358.123 225.83 353.632 230.491 351.776 229.783ZM371.236 225.551C370.805 225.77 370.336 225.927 369.895 226.128C369.491 226.314 369.357 226.127 369.345 225.819C369.339 225.607 369.37 225.395 369.437 225.19C370.26 222.625 371.774 220.436 374.027 218.655L374.185 218.584C375.257 221.233 374.018 224.143 371.236 225.551Z" fill="#CB6699"/>
<path d="M232.551 72.822C232.251 72.822 231.953 72.7535 231.69 72.62L228.945 71.2059C228.535 71.0066 228.735 70.9354 228.871 70.8948C229.418 70.7289 229.528 70.6901 230.111 70.4033C230.173 70.3735 230.252 70.3844 230.315 70.4168L232.423 71.5072C232.462 71.5254 232.506 71.5349 232.55 71.5349C232.595 71.5349 232.638 71.5254 232.678 71.5072L240.897 67.3759C240.935 67.356 240.967 67.3276 240.99 67.2936C241.012 67.2596 241.023 67.2211 241.023 67.182V58.9212C241.023 58.8815 241.011 58.8425 240.989 58.8079C240.967 58.7733 240.935 58.7443 240.896 58.7237L232.68 54.596C232.641 54.5774 232.597 54.5676 232.553 54.5676C232.508 54.5676 232.465 54.5774 232.426 54.596L224.211 58.7246C224.172 58.7451 224.14 58.7739 224.117 58.8083C224.094 58.8427 224.082 58.8815 224.081 58.9212V67.182C224.081 67.2613 224.132 67.3362 224.211 67.3732L226.462 68.5068C227.684 69.0379 228.433 68.4121 228.433 67.7826V59.6255C228.433 59.511 228.539 59.4199 228.671 59.4199H229.714C229.843 59.4199 229.951 59.511 229.951 59.6255V67.7826C229.951 69.2021 229.063 70.0164 227.517 70.0164C227.042 70.0164 226.668 70.0164 225.624 69.5691L223.469 68.4887C223.207 68.3556 222.99 68.165 222.839 67.9359C222.687 67.7068 222.608 67.4471 222.608 67.1829V58.9221C222.608 58.3855 222.936 57.885 223.469 57.618L231.689 53.4813C231.953 53.3557 232.25 53.2899 232.552 53.2899C232.853 53.2899 233.15 53.3557 233.415 53.4813L241.634 57.618C242.166 57.8859 242.497 58.3864 242.497 58.9221V67.1829C242.496 67.4471 242.416 67.7067 242.265 67.9358C242.114 68.1649 241.896 68.3555 241.634 68.4887L233.415 72.6209C233.153 72.7535 232.854 72.8229 232.551 72.822ZM235.091 67.1306C231.493 67.1306 230.74 65.6921 230.74 64.4864C230.74 64.4315 230.765 64.379 230.81 64.3403C230.855 64.3016 230.915 64.2799 230.978 64.2799H232.041C232.097 64.2797 232.153 64.2972 232.196 64.3293C232.239 64.3614 232.268 64.4059 232.277 64.4548C232.436 65.3972 232.916 65.8725 235.091 65.8725C236.822 65.8725 237.559 65.5316 237.559 64.7308C237.559 64.269 237.35 63.9272 234.66 63.6973C232.41 63.5034 231.02 63.0714 231.02 61.5031C231.02 60.0593 232.418 59.1971 234.76 59.1971C237.393 59.1971 238.696 59.9935 238.861 61.7015C238.863 61.7303 238.859 61.7592 238.848 61.7865C238.838 61.8138 238.821 61.8389 238.799 61.8602C238.776 61.8808 238.749 61.8972 238.719 61.9085C238.689 61.9198 238.657 61.9258 238.625 61.9261H237.557C237.503 61.9261 237.451 61.9102 237.409 61.8808C237.367 61.8515 237.338 61.8105 237.326 61.7647C237.069 60.7726 236.448 60.4561 234.759 60.4561C232.869 60.4561 232.65 61.0306 232.65 61.4589C232.65 61.9793 232.908 62.1308 235.461 62.4248C237.987 62.7161 239.187 63.1273 239.187 64.674C239.188 66.2368 237.695 67.1306 235.091 67.1306ZM215.627 61.7123C215.951 61.5473 216.151 61.2461 216.151 60.9187V58.7958C216.151 58.4694 215.952 58.1681 215.627 58.0031L206.966 53.6238C206.806 53.5427 206.624 53.4998 206.439 53.4995C206.253 53.4992 206.071 53.5414 205.911 53.622L197.195 58.004C197.036 58.0846 196.903 58.2003 196.811 58.3396C196.718 58.4789 196.67 58.6368 196.669 58.7976V67.5598C196.669 67.889 196.872 68.1938 197.202 68.357L205.862 72.6543C206.181 72.8139 206.572 72.8148 206.894 72.6597L212.132 70.1237C212.214 70.0843 212.282 70.0268 212.329 69.9569C212.377 69.8871 212.402 69.8075 212.403 69.7263C212.404 69.6451 212.379 69.5652 212.333 69.4948C212.286 69.4244 212.219 69.366 212.138 69.3256L203.369 64.9427C203.289 64.9028 203.222 64.8451 203.176 64.7754C203.129 64.7057 203.104 64.6265 203.104 64.5459V61.7989C203.104 61.6348 203.205 61.4842 203.367 61.403L206.098 60.0322C206.178 59.9919 206.268 59.9707 206.361 59.9707C206.453 59.9707 206.543 59.9919 206.623 60.0322L209.354 61.403C209.434 61.443 209.5 61.5006 209.547 61.5701C209.593 61.6396 209.618 61.7185 209.618 61.7989V63.9597C209.617 64.0405 209.641 64.12 209.688 64.1901C209.734 64.2601 209.8 64.3183 209.881 64.3586C209.961 64.3989 210.053 64.42 210.145 64.4196C210.238 64.4192 210.329 64.3975 210.409 64.3565L215.627 61.7123ZM206.309 61.3011C206.34 61.2861 206.375 61.2782 206.41 61.2782C206.446 61.2782 206.48 61.2861 206.511 61.3011L208.184 62.1425C208.246 62.1741 208.284 62.2327 208.284 62.2949V63.9769C208.284 64.04 208.246 64.0977 208.184 64.1293L206.511 64.9698C206.481 64.9853 206.446 64.9935 206.41 64.9935C206.375 64.9935 206.34 64.9853 206.309 64.9698L204.638 64.1293C204.607 64.1139 204.581 64.0918 204.564 64.065C204.546 64.0382 204.536 64.0078 204.536 63.9769V62.2949C204.536 62.2327 204.575 62.1741 204.638 62.1425L206.309 61.3011ZM183.63 64.8002C183.63 64.8814 183.58 64.9571 183.498 64.9986L180.505 66.5011C180.466 66.5214 180.42 66.5322 180.374 66.5322C180.328 66.5322 180.282 66.5214 180.242 66.5011L177.25 64.9986C177.21 64.9784 177.177 64.9495 177.154 64.9147C177.13 64.8799 177.118 64.8404 177.118 64.8002V61.7899C177.118 61.7087 177.169 61.6321 177.25 61.5906L180.242 60.0863C180.282 60.0655 180.328 60.0545 180.374 60.0545C180.421 60.0545 180.467 60.0655 180.507 60.0863L183.5 61.5906C183.54 61.6112 183.573 61.6403 183.596 61.6753C183.619 61.7102 183.631 61.7497 183.631 61.7899L183.63 64.8002ZM184.438 42.5105C184.358 42.4723 184.268 42.4529 184.177 42.4542C184.085 42.4554 183.996 42.4772 183.917 42.5176C183.838 42.5579 183.772 42.6153 183.727 42.6843C183.681 42.7532 183.656 42.8313 183.656 42.9109V54.5581C183.655 54.6143 183.638 54.6694 183.606 54.7181C183.574 54.7668 183.528 54.8074 183.472 54.8359C183.416 54.8638 183.353 54.8785 183.288 54.8785C183.223 54.8785 183.16 54.8638 183.104 54.8359L180.921 53.7401C180.761 53.66 180.58 53.6178 180.395 53.6178C180.211 53.6178 180.03 53.66 179.87 53.7401L171.152 58.1212C170.992 58.2018 170.859 58.3176 170.767 58.457C170.674 58.5965 170.625 58.7547 170.625 58.9158V67.6807C170.625 68.008 170.826 68.3102 171.151 68.4752L179.869 72.859C180.194 73.0231 180.596 73.0231 180.922 72.859L189.641 68.4752C189.801 68.3944 189.934 68.2785 190.026 68.1391C190.118 67.9997 190.167 67.8416 190.167 67.6807V45.832C190.167 45.5001 189.96 45.1935 189.628 45.0312L184.438 42.5105ZM153.759 53.5751C153.919 53.4945 154.101 53.4521 154.285 53.4521C154.47 53.4521 154.652 53.4945 154.811 53.5751L163.529 57.9553C163.854 58.1194 164.055 58.4225 164.055 58.7498V67.5174C164.055 67.8448 163.854 68.1478 163.529 68.312L154.812 72.6958C154.652 72.776 154.471 72.8182 154.286 72.8182C154.101 72.8182 153.92 72.776 153.759 72.6958L145.045 68.312C144.885 68.2312 144.753 68.1153 144.66 67.9759C144.568 67.8365 144.519 67.6784 144.519 67.5174V58.7489C144.519 58.4225 144.72 58.1194 145.045 57.9553L153.759 53.5751ZM137.907 58.6768C137.907 58.3467 137.708 58.0437 137.381 57.8805L128.667 53.5129C128.521 53.439 128.355 53.3978 128.186 53.3929H128.096C127.927 53.3979 127.762 53.4391 127.616 53.5129L118.901 57.8805C118.74 57.9613 118.607 58.0774 118.515 58.2172C118.422 58.3569 118.373 58.5155 118.374 58.6768L118.392 70.4367C118.392 70.6008 118.491 70.7532 118.655 70.8326C118.734 70.8742 118.824 70.8962 118.917 70.8962C119.009 70.8962 119.099 70.8742 119.178 70.8326L124.356 68.2497C124.683 68.0802 124.883 67.7817 124.883 67.4543V61.9604C124.883 61.6321 125.082 61.33 125.408 61.1658L127.614 60.0602C127.773 59.9786 127.955 59.9359 128.14 59.9366C128.32 59.9366 128.504 59.9763 128.665 60.0602L130.868 61.1658C131.195 61.33 131.396 61.6321 131.396 61.9604V67.4543C131.396 67.7817 131.598 68.082 131.923 68.2497L137.1 70.8326C137.18 70.8723 137.271 70.8931 137.363 70.8929C137.455 70.8927 137.545 70.8716 137.625 70.8315C137.704 70.7914 137.77 70.7339 137.816 70.6646C137.863 70.5954 137.887 70.5168 137.887 70.4367L137.907 58.6768Z" fill="#83CD29"/>
<g clip-path="url(#clip0_119_159)">
<path d="M109.146 98.9241V162.515H178.731V98.9241H109.146ZM145.953 153.11C144.926 155.017 142.965 156.27 140.693 156.875C137.202 157.608 133.863 157.19 131.379 155.828C129.717 154.896 128.419 153.461 127.538 151.808L132.837 148.842C132.884 148.86 133.023 149.09 133.209 149.387C133.884 150.422 134.467 151.154 135.613 151.669C136.739 152.02 139.21 152.244 140.164 150.434C140.747 149.513 140.561 146.554 140.561 143.279C140.561 138.133 140.587 133.009 140.587 127.921H147.105C147.105 133.517 147.139 138.817 147.105 144.278C147.119 147.625 147.437 150.61 145.953 153.11ZM172.993 151.427C170.727 158.51 158.095 158.74 153.047 154.06C151.981 152.959 151.312 152.384 150.676 151.112C153.358 149.702 153.358 149.702 155.969 148.322C157.387 150.314 158.698 151.409 161.056 151.857C164.256 152.214 167.475 151.209 166.753 148.104C166.011 145.567 160.201 144.95 156.247 142.238C152.233 139.774 151.292 133.787 154.591 130.366C155.69 129.101 157.565 128.157 159.533 127.703L161.586 127.461C165.527 127.388 167.991 128.339 169.8 130.185C170.303 130.651 170.714 131.153 171.482 132.243C169.382 133.466 169.389 133.454 166.381 135.233C165.739 133.969 164.673 133.175 163.546 132.83C161.797 132.346 159.592 132.872 159.134 134.561C158.975 135.082 159.008 135.566 159.26 136.426C159.969 137.903 162.347 138.545 164.48 139.441C170.621 141.717 172.695 144.157 173.205 147.062C173.696 149.563 173.086 151.185 172.993 151.427Z" fill="#F0DB4F"/>
</g>
<g clip-path="url(#clip1_119_159)">
<path d="M46.8868 54.0175H50.6817C60.5793 54.4133 70.3636 57.6359 78.2974 63.3973C85.813 68.7909 91.685 76.3 94.9444 84.7867C96.8146 89.5128 97.7517 94.5394 98.0719 99.5801V102.696C97.7547 111.052 95.2646 119.36 90.6169 126.436C85.4061 134.498 77.6515 141.035 68.6067 144.807C62.6854 147.287 56.3179 148.621 49.865 148.733H48.2223C39.2311 148.592 30.2858 146.025 22.7106 141.339C14.1323 136.076 7.29946 128.179 3.53442 119.054C1.44886 114.095 0.337889 108.79 0 103.456V99.788C0.386158 89.1399 4.56111 78.6183 11.8069 70.5623C17.751 63.8664 25.6673 58.8124 34.3918 56.1907C38.4411 54.9572 42.6582 54.3208 46.8868 54.0175ZM19.301 81.7832C19.278 90.776 19.2926 99.768 19.2926 108.758C20.3882 108.766 21.4839 108.766 22.5818 108.766C22.5244 101.046 22.6592 93.3281 22.5006 85.6103C22.8684 86.2814 23.204 86.9718 23.6231 87.6134C28.3757 94.6489 33.0265 101.745 37.7799 108.775C39.1116 108.758 40.4432 108.758 41.7748 108.778C41.7725 99.7799 41.7695 90.7819 41.7779 81.7839C40.6925 81.7737 39.607 81.7708 38.5216 81.775C38.5791 89.4115 38.4174 97.0479 38.6174 104.676C33.6318 97.0161 28.5795 89.3996 23.5273 81.778C22.1186 81.7696 20.7097 81.7713 19.301 81.7832ZM49.0628 81.775C48.964 90.773 49.0597 99.771 49.0268 108.766C53.9832 108.755 58.9397 108.784 63.8985 108.751C63.8807 107.776 63.8868 106.801 63.9169 105.827C60.0767 105.815 56.2343 105.832 52.3911 105.812C52.3344 102.697 52.388 99.5771 52.3605 96.4611C55.7278 96.4034 59.0952 96.47 62.4588 96.4263C62.4504 95.4814 62.4504 94.5365 62.4442 93.5908C59.083 93.6951 55.7225 93.5508 52.3582 93.5997C52.3674 90.6228 52.3735 87.643 52.3735 84.6624C55.9738 84.6624 59.5741 84.6476 63.1714 84.6712C63.1652 83.7086 63.1714 82.7429 63.1836 81.7809C58.4754 81.7691 53.7672 81.775 49.0628 81.775ZM66.3802 81.815C66.3832 82.7518 66.3832 83.6856 66.3863 84.6195C69.0587 84.5899 71.7281 84.7001 74.4006 84.6453C74.383 92.6836 74.4037 100.716 74.3922 108.749C75.5108 108.781 76.6371 108.775 77.7557 108.682C77.6638 104.249 77.8461 99.8117 77.6362 95.38C77.6875 93.3829 77.5826 91.3887 77.7258 89.3937C77.8071 87.8102 77.5136 86.2289 77.699 84.6453C80.3929 84.6801 83.0892 84.6564 85.7823 84.6564C85.7701 83.7109 85.7892 82.7653 85.8398 81.8209C79.3509 81.7432 72.8629 81.7513 66.3802 81.815ZM10.3818 105.145C8.86708 105.818 8.76824 108.121 10.2677 108.864C11.5855 109.738 13.5661 108.59 13.5063 107.081C13.6082 105.598 11.7518 104.352 10.3818 105.145ZM32.7775 116.458C29.5005 119.025 29.5396 124.742 33.1606 127.002C35.2048 128.257 37.8358 127.997 39.9965 127.162C40.0057 126.702 40.0172 126.245 40.0348 125.785C37.9883 126.817 35.1235 127.028 33.3881 125.334C31.1164 122.939 31.6282 118.475 34.624 116.842C36.318 115.981 38.3837 116.232 40.0532 117.019C40.0478 116.53 40.0501 116.042 40.0532 115.554C37.6803 114.74 34.7496 114.784 32.7775 116.458ZM45.9613 118.463C44.5132 118.626 43.0819 119.366 42.4115 120.658C41.4515 122.505 41.5618 124.999 43.0735 126.548C44.6327 128.248 47.6285 128.265 49.3409 126.768C51.1989 125.06 51.4089 121.982 49.9209 119.987C49.0413 118.781 47.4132 118.371 45.9613 118.463ZM59.6661 120.478C58.3942 122.611 58.6455 125.843 60.8904 127.294C62.563 128.197 64.67 127.91 66.3104 127.066C66.3074 126.61 66.3135 126.152 66.3342 125.699C65.0416 126.49 63.3177 127.072 61.8811 126.274C60.8782 125.739 60.5755 124.603 60.4146 123.591C62.6174 123.562 64.8171 123.531 67.023 123.536C66.9655 122.184 66.9326 120.655 65.912 119.609C64.2272 117.811 60.8215 118.383 59.6661 120.478ZM53.2194 118.75V127.635C53.7189 127.635 54.2246 127.635 54.731 127.638C54.7487 126.014 54.7004 124.387 54.7487 122.759C54.7609 121.819 55.1524 120.866 55.8857 120.232C56.4994 119.785 57.3284 120.033 58.0318 120.05C58.0226 119.58 58.0165 119.111 58.0142 118.643C56.6404 118.349 55.4582 119.126 54.764 120.21C54.7487 119.741 54.7333 119.273 54.7249 118.808C54.2223 118.79 53.7189 118.77 53.2194 118.75Z" fill="#623697"/>
<path d="M45.0194 120.039C46.2851 119.444 48.1018 119.736 48.8082 121.001C49.6127 122.398 49.5951 124.245 48.7032 125.597C47.5386 127.289 44.4685 126.919 43.7054 125.048C42.9331 123.377 43.2326 120.991 45.0194 120.039ZM60.5592 122.401C60.5944 121.236 61.4357 120.079 62.6478 119.826C63.3956 119.704 64.2545 119.831 64.7725 120.412C65.2873 120.941 65.3954 121.681 65.5233 122.366C63.8684 122.375 62.2142 122.343 60.5592 122.401Z" fill="#623697"/>
</g>
<path d="M250.22 197.527L250.557 197.311C249.882 196.122 248.869 195.041 247.857 194.5L193.503 164.447C192.603 163.907 191.365 163.691 190.014 163.691C188.664 163.691 187.426 164.015 186.526 164.447L132.51 194.608C130.596 195.69 129.246 198.392 129.246 200.446V260.66C129.246 261.849 129.471 263.147 130.259 264.336L130.034 264.444C130.596 265.309 131.384 266.065 132.172 266.498L186.413 296.659C187.313 297.199 188.551 297.416 189.902 297.416C191.252 297.416 192.49 297.091 193.39 296.659L247.407 266.498C249.32 265.417 250.67 262.714 250.67 260.66V200.338C250.783 199.473 250.67 198.5 250.22 197.527ZM190.014 273.2C165.482 273.2 145.563 254.066 145.563 230.499C145.563 206.932 165.482 187.798 190.014 187.798C206.557 187.798 220.961 196.554 228.613 209.419L213.984 217.527C209.258 209.419 200.255 204.014 190.014 204.014C174.822 204.014 162.444 215.905 162.444 230.499C162.444 245.093 174.822 256.985 190.014 256.985C200.255 256.985 209.258 251.579 213.984 243.58L228.501 251.796C220.849 264.552 206.444 273.2 190.014 273.2ZM247.407 228.337H243.805L242.793 232.661H247.407V238.066H241.78L240.429 244.553H234.915L236.266 238.066H231.989L230.639 244.553H225.237L226.588 238.066H223.774V232.661H227.713L228.726 228.337H223.774V222.932H229.739L231.089 216.446H236.603L235.253 222.932H239.529L240.88 216.446H246.281L244.931 222.932H247.407V228.337ZM233.115 232.661H237.391L238.404 228.337H234.128L233.115 232.661Z" fill="#68217A"/>
<path d="M232.079 142.799V129.538H233.745L241.625 140.221V129.538H243.202V142.799H241.536L233.655 132.021V142.799H232.079ZM255.991 142.28C254.952 142.688 253.832 142.893 252.631 142.893C247.967 142.893 245.633 140.591 245.633 135.984C245.633 131.624 247.885 129.444 252.389 129.444C253.679 129.444 254.881 129.631 255.991 130.001V131.485C254.898 131.055 253.738 130.835 252.569 130.835C249.057 130.835 247.3 132.552 247.3 135.982C247.3 139.662 249.029 141.501 252.488 141.501C253.041 141.501 253.654 141.428 254.326 141.278V136.771H255.992L255.991 142.28ZM258.648 137.681V129.537H260.313V137.68C260.313 140.226 261.544 141.501 264.006 141.501C266.469 141.501 267.7 140.226 267.7 137.68V129.537H269.365V137.68C269.365 141.155 267.58 142.893 264.006 142.893C260.433 142.893 258.648 141.155 258.648 137.681ZM274.003 129.537V141.408H280.739V142.799H272.337V129.537H274.003ZM283.145 142.799H281.415L287.819 127.787L294.223 142.799H292.375L290.709 138.625H286.45L286.91 137.234H290.151L287.747 131.224L283.145 142.799ZM295.978 142.799V129.538H301.472C303.922 129.538 305.145 130.598 305.145 132.718C305.145 134.443 303.949 135.721 301.553 136.548L305.975 142.799H303.777L299.68 136.836V135.713C302.142 135.31 303.373 134.337 303.373 132.792C303.373 131.568 302.688 130.956 301.319 130.956H297.644V142.799H295.978ZM312.217 129.537V138.979C312.217 141.527 310.762 142.8 307.849 142.8V141.409C309.651 141.409 310.552 140.598 310.552 138.979V129.537H312.217ZM315.189 142.335V140.758C316.541 141.252 317.998 141.501 319.566 141.501C321.781 141.501 322.89 140.666 322.89 138.996C322.89 137.575 322.073 136.864 320.44 136.864H318.782C316.087 136.864 314.738 135.658 314.738 133.247C314.738 130.711 316.464 129.444 319.918 129.444C321.419 129.444 322.815 129.631 324.106 130V131.578C322.815 131.083 321.419 130.834 319.918 130.834C317.577 130.834 316.406 131.638 316.406 133.246C316.406 134.667 317.197 135.378 318.783 135.378H320.441C323.184 135.378 324.557 136.585 324.557 138.995C324.557 141.592 322.894 142.892 319.567 142.892C317.999 142.892 316.541 142.706 315.189 142.335ZM214.523 135.784H217.688L214.548 129.02L211.779 135.784H214.523ZM214.557 119.323L199.516 124.774L201.892 145.067L214.574 152.244L227.32 144.971L229.697 124.678L214.557 119.323ZM210.555 138.853L208.69 143.508L205.222 143.425L214.522 122.12L224.25 143.508L220.931 143.463L218.889 138.631L214.53 138.702" fill="#C4473A"/>
<path d="M228.688 377.591C227.001 377.591 225.744 378.453 225.744 380.529C225.744 382.093 226.572 383.178 228.598 383.178C230.314 383.178 231.481 382.125 231.481 380.464C231.481 378.581 230.437 377.591 228.688 377.591ZM225.315 392.247C224.916 392.757 224.517 393.299 224.517 393.939C224.517 395.215 226.081 395.599 228.23 395.599C230.008 395.599 232.432 395.469 232.432 393.748C232.432 392.724 231.265 392.661 229.793 392.565L225.315 392.247ZM234.394 377.687C234.946 378.422 235.529 379.443 235.529 380.912C235.529 384.455 232.86 386.531 228.996 386.531C228.013 386.531 227.124 386.404 226.572 386.244L225.559 387.936L228.565 388.126C233.872 388.479 237.001 388.639 237.001 392.883C237.001 396.556 233.903 398.63 228.565 398.63C223.012 398.63 220.896 397.161 220.896 394.64C220.896 393.202 221.511 392.438 222.584 391.382C221.571 390.937 221.234 390.139 221.234 389.277C221.234 388.574 221.572 387.936 222.124 387.329C222.676 386.723 223.29 386.115 224.025 385.413C222.522 384.647 221.388 382.987 221.388 380.624C221.388 376.953 223.719 374.432 228.412 374.432C229.732 374.432 230.53 374.558 231.235 374.751H237.217V377.464L234.394 377.687ZM242.614 371.886C240.864 371.886 239.852 370.832 239.852 369.011C239.852 367.193 240.864 366.203 242.614 366.203C244.393 366.203 245.405 367.193 245.405 369.011C245.405 370.832 244.393 371.886 242.614 371.886ZM238.655 391.072V388.551L240.221 388.328C240.65 388.264 240.711 388.168 240.711 387.688V378.302C240.711 377.952 240.62 377.727 240.312 377.632L238.655 377.025L238.993 374.441H245.344V387.689C245.344 388.201 245.373 388.264 245.834 388.329L247.399 388.552V391.073L238.655 391.072ZM259.53 389.834C258.21 390.503 256.278 391.111 254.528 391.111C250.878 391.111 249.498 389.58 249.498 385.97V377.606C249.498 377.415 249.498 377.287 249.252 377.287H247.106V374.446C249.806 374.125 250.879 372.721 251.216 369.241H254.131V373.776C254.131 373.998 254.131 374.095 254.377 374.095H258.702V377.288H254.131V384.917C254.131 386.801 254.561 387.535 256.217 387.535C257.077 387.535 257.965 387.312 258.702 387.025L259.53 389.834Z" fill="#F4EEE9"/>
<path d="M214.078 381.456L200.053 366.859C199.665 366.455 199.139 366.229 198.59 366.229C198.042 366.229 197.516 366.455 197.128 366.859L194.215 369.89L197.909 373.735C198.343 373.582 198.81 373.558 199.257 373.666C199.704 373.774 200.113 374.011 200.437 374.349C200.763 374.688 200.991 375.117 201.094 375.585C201.197 376.053 201.172 376.542 201.021 376.996L204.581 380.701C205.107 380.511 205.68 380.512 206.206 380.704C206.732 380.896 207.179 381.269 207.475 381.761C207.77 382.252 207.897 382.834 207.833 383.41C207.769 383.986 207.519 384.523 207.124 384.932C206.722 385.352 206.193 385.613 205.626 385.672C205.06 385.73 204.491 385.583 204.018 385.254C203.544 384.926 203.194 384.436 203.028 383.87C202.862 383.303 202.89 382.694 203.107 382.146L199.786 378.69L199.786 387.785C200.136 387.965 200.44 388.23 200.673 388.557C200.906 388.884 201.061 389.263 201.124 389.665C201.188 390.066 201.159 390.478 201.039 390.865C200.92 391.253 200.713 391.605 200.437 391.893C200.179 392.161 199.867 392.366 199.524 392.493C199.181 392.621 198.815 392.668 198.453 392.63C198.09 392.593 197.74 392.472 197.428 392.276C197.116 392.081 196.849 391.816 196.647 391.5C196.445 391.185 196.313 390.826 196.26 390.451C196.208 390.076 196.236 389.693 196.342 389.331C196.449 388.968 196.632 388.634 196.877 388.354C197.122 388.074 197.425 387.854 197.762 387.71V378.531C197.461 378.403 197.188 378.214 196.958 377.975C196.728 377.736 196.545 377.453 196.421 377.14C196.297 376.828 196.233 376.493 196.234 376.155C196.235 375.817 196.3 375.483 196.426 375.171L192.784 371.38L183.167 381.389C182.975 381.589 182.822 381.826 182.718 382.087C182.614 382.349 182.561 382.629 182.561 382.912C182.561 383.195 182.614 383.475 182.718 383.736C182.822 383.997 182.975 384.235 183.167 384.435L197.193 399.032C197.581 399.436 198.107 399.662 198.656 399.662C199.204 399.662 199.731 399.436 200.119 399.032L214.078 384.502C214.271 384.302 214.423 384.064 214.527 383.803C214.631 383.542 214.685 383.262 214.685 382.979C214.685 382.696 214.631 382.416 214.527 382.155C214.423 381.893 214.271 381.656 214.078 381.456Z" fill="#F34F29"/>
<path d="M337.888 82.7604C339.856 82.7604 341.451 81.1959 341.451 79.2658C341.451 77.3358 339.856 75.7712 337.888 75.7712C335.921 75.7712 334.326 77.3358 334.326 79.2658C334.326 81.1959 335.921 82.7604 337.888 82.7604Z" fill="#61DAFB"/>
<path d="M337.889 92.117C340.685 94.7849 343.443 96.3631 345.665 96.3631C346.393 96.3631 347.083 96.2128 347.658 95.8746C349.65 94.7473 350.377 91.9291 349.688 87.9084C349.573 87.1945 349.42 86.4805 349.228 85.729C349.994 85.5035 350.684 85.2781 351.374 85.0526C355.243 83.5871 357.388 81.558 357.388 79.341C357.388 77.0864 355.243 75.0573 351.374 73.6294C350.684 73.3664 349.994 73.1409 349.228 72.953C349.42 72.2015 349.573 71.4875 349.688 70.7736C350.339 66.6778 349.611 63.822 347.619 62.6947C347.045 62.3565 346.355 62.2062 345.627 62.2062C343.443 62.2062 340.647 63.7844 337.85 66.4523C335.092 63.7844 332.334 62.2062 330.112 62.2062C329.384 62.2062 328.694 62.3565 328.12 62.6947C326.128 63.822 325.4 66.6402 326.089 70.6609C326.204 71.3748 326.358 72.0888 326.549 72.8403C325.783 73.0657 325.093 73.2912 324.404 73.5167C320.534 74.9821 318.389 77.0113 318.389 79.2283C318.389 81.4828 320.534 83.512 324.404 84.9399C325.093 85.2029 325.783 85.4284 326.549 85.6162C326.358 86.3678 326.204 87.0817 326.089 87.7957C325.438 91.8163 326.166 94.6721 328.12 95.7619C328.694 96.1 329.384 96.2504 330.112 96.2504C332.334 96.3255 335.092 94.7473 337.889 92.117ZM335.743 87.0441C336.433 87.0817 337.161 87.0817 337.889 87.0817C338.616 87.0817 339.344 87.0817 340.034 87.0441C339.344 87.946 338.616 88.7727 337.889 89.5618C337.161 88.7727 336.433 87.946 335.743 87.0441ZM330.993 83.1738C331.376 83.8126 331.721 84.4138 332.142 85.015C330.955 84.8647 329.844 84.6768 328.771 84.4514C329.116 83.4368 329.499 82.3847 329.959 81.3325C330.265 81.9338 330.61 82.5726 330.993 83.1738ZM328.771 74.1179C329.844 73.8924 330.955 73.7045 332.142 73.5542C331.759 74.1555 331.376 74.7567 330.993 75.3955C330.61 76.0343 330.265 76.6355 329.959 77.2743C329.461 76.1846 329.077 75.1324 328.771 74.1179ZM330.878 79.2658C331.376 78.2513 331.912 77.2367 332.525 76.2222C333.1 75.2452 333.751 74.2682 334.402 73.2912C335.552 73.216 336.701 73.1785 337.889 73.1785C339.115 73.1785 340.264 73.216 341.375 73.2912C342.064 74.2682 342.677 75.2452 343.252 76.2222C343.865 77.2367 344.401 78.2513 344.899 79.2658C344.401 80.2804 343.865 81.295 343.252 82.3095C342.677 83.2865 342.026 84.2635 341.375 85.2405C340.225 85.3156 339.076 85.3532 337.889 85.3532C336.663 85.3532 335.513 85.3156 334.402 85.2405C333.713 84.2635 333.1 83.2865 332.525 82.3095C331.912 81.295 331.376 80.2804 330.878 79.2658ZM345.857 77.2367L344.823 75.3579C344.44 74.7191 344.095 74.1179 343.673 73.5167C344.861 73.667 345.972 73.8548 347.045 74.0803C346.7 75.1324 346.317 76.1846 345.857 77.2367ZM345.857 81.295C346.317 82.3471 346.7 83.3992 347.045 84.4138C345.972 84.6393 344.861 84.8271 343.673 84.9774C344.056 84.3762 344.44 83.775 344.823 83.1362C345.167 82.5726 345.512 81.9338 345.857 81.295ZM346.738 94.334C346.432 94.5218 346.049 94.597 345.627 94.597C343.75 94.597 341.413 93.0939 339.115 90.8394C340.225 89.6745 341.298 88.3593 342.371 86.8938C344.171 86.7435 345.895 86.4805 347.504 86.1047C347.696 86.7811 347.811 87.4575 347.926 88.1339C348.462 91.3279 348.041 93.62 346.738 94.334ZM348.73 74.5312C353.021 75.7337 355.588 77.5749 355.588 79.2658C355.588 80.7313 353.825 82.1968 350.722 83.3617C350.109 83.5871 349.42 83.8126 348.73 84.0005C348.232 82.4598 347.619 80.8816 346.853 79.2658C347.619 77.6501 348.27 76.0719 348.73 74.5312ZM345.665 63.9347C346.087 63.9347 346.432 64.0098 346.776 64.1977C348.041 64.9117 348.5 67.1663 347.964 70.3978C347.849 71.0366 347.696 71.713 347.543 72.4269C345.934 72.0888 344.21 71.8257 342.409 71.6378C341.375 70.1724 340.264 68.8572 339.153 67.6923C341.451 65.4753 343.788 63.9347 345.665 63.9347ZM340.034 71.4875C339.344 71.45 338.616 71.45 337.889 71.45C337.161 71.45 336.433 71.45 335.743 71.4875C336.433 70.5857 337.161 69.759 337.889 68.9699C338.616 69.759 339.344 70.6233 340.034 71.4875ZM329.039 64.1977C329.346 64.0098 329.729 63.9347 330.15 63.9347C332.027 63.9347 334.364 65.4377 336.663 67.6923C335.552 68.8572 334.479 70.1724 333.406 71.6378C331.606 71.7881 329.882 72.0512 328.273 72.4269C328.081 71.7506 327.966 71.0742 327.852 70.3978C327.315 67.2038 327.737 64.9493 329.039 64.1977ZM327.047 84.0005C322.756 82.798 320.19 80.9568 320.19 79.2658C320.19 77.8004 321.952 76.3349 325.055 75.17C325.668 74.9446 326.358 74.7191 327.047 74.5312C327.545 76.0719 328.158 77.6501 328.924 79.2658C328.158 80.8816 327.507 82.4974 327.047 84.0005ZM327.852 88.1339C327.966 87.4951 328.12 86.8187 328.273 86.1047C329.882 86.4429 331.606 86.706 333.406 86.8938C334.441 88.3593 335.552 89.6745 336.663 90.8394C334.364 93.0564 332.027 94.597 330.15 94.597C329.729 94.597 329.384 94.5218 329.039 94.334C327.737 93.62 327.315 91.3279 327.852 88.1339ZM326.243 103.615C327.085 102.601 327.124 101.473 326.664 100.346C326.204 99.2189 325.247 98.6928 324.059 98.6552C322.641 98.6177 321.186 98.6552 319.768 98.6552H319.5V108.388H320.649V104.705H322.45C322.68 104.705 322.871 104.78 322.986 104.968L325.285 108.463C325.323 108.538 325.438 108.651 325.515 108.651H327.009C326.089 107.26 325.208 105.945 324.289 104.592C325.093 104.48 325.783 104.217 326.243 103.615ZM320.649 103.54V99.8201H321.071C321.952 99.8201 322.871 99.7825 323.752 99.8577C324.787 99.8953 325.515 100.684 325.515 101.699C325.515 102.713 324.672 103.503 323.638 103.54C322.718 103.578 321.799 103.54 320.649 103.54ZM335.475 104.029C334.862 101.398 332.41 100.722 330.533 101.549C329.077 102.187 328.426 103.427 328.388 104.968C328.35 106.133 328.694 107.185 329.614 107.974C330.648 108.876 331.912 108.989 333.215 108.763C333.943 108.613 334.594 108.275 335.092 107.749C334.9 107.486 334.709 107.223 334.517 106.997C333.445 107.899 332.257 108.2 330.955 107.598C330.112 107.185 329.69 106.171 329.614 105.419H335.552V104.93C335.59 104.592 335.552 104.292 335.475 104.029ZM329.69 104.63C329.575 103.503 330.725 102.3 331.989 102.3C333.445 102.263 334.364 103.127 334.402 104.63H329.69ZM341.451 101.361C340.877 101.248 340.264 101.21 339.689 101.248C338.77 101.323 337.965 101.737 337.314 102.413C337.506 102.676 337.659 102.939 337.889 103.24C337.965 103.164 338.042 103.089 338.118 103.052C338.731 102.488 339.459 102.187 340.34 102.263C341.03 102.3 341.681 102.526 341.873 103.202C342.026 103.728 341.988 104.292 342.026 104.855C341.911 104.855 341.873 104.818 341.834 104.78C340.915 104.029 339.881 103.878 338.77 104.141C337.735 104.404 337.084 105.194 337.008 106.208C336.931 107.373 337.467 108.237 338.502 108.651C339.153 108.914 339.881 108.914 340.57 108.763C341.107 108.651 341.336 108.35 342.103 107.937V108.425H343.175C343.175 106.922 343.214 105.081 343.175 103.352C343.175 102.263 342.524 101.586 341.451 101.361ZM341.988 106.095C341.949 106.208 341.988 106.321 341.988 106.434C341.988 107.223 341.796 107.486 341.03 107.786C340.494 107.974 339.919 108.049 339.344 107.861C338.693 107.674 338.233 107.11 338.233 106.471C338.195 105.832 338.616 105.194 339.268 105.006C340.149 104.705 340.953 104.893 341.681 105.419C341.911 105.607 342.064 105.795 341.988 106.095ZM347.964 102.375C348.96 102.075 349.879 102.263 350.569 103.089L350.684 103.164C350.952 102.939 351.182 102.713 351.488 102.45C351.374 102.338 351.335 102.263 351.259 102.15C350.148 100.985 347.964 100.835 346.623 101.774C344.746 103.127 344.784 105.757 345.704 107.147C346.585 108.463 347.849 108.914 349.343 108.726C350.224 108.613 350.952 108.2 351.527 107.486C351.259 107.26 350.99 107.035 350.722 106.772C350.646 106.847 350.607 106.884 350.569 106.96C349.535 108.087 347.811 107.974 346.891 106.772C346.355 106.058 346.24 105.231 346.393 104.404C346.47 103.465 346.968 102.713 347.964 102.375ZM355.932 107.486C355.856 107.523 355.817 107.561 355.817 107.561C355.511 107.786 355.204 107.824 354.86 107.711C354.515 107.561 354.477 107.26 354.438 106.96V102.676C354.438 102.601 354.438 102.751 354.477 102.375H355.932V101.248H354.4V99.3692H353.251V101.398H352.255C352.178 101.398 352.063 101.473 352.063 101.549C352.025 101.812 352.063 102 352.063 102.375H353.289V107.185C353.289 107.786 353.442 108.312 353.979 108.613C354.553 108.951 355.664 108.876 356.162 108.463C356.239 108.425 356.277 108.275 356.277 108.237C356.162 108.012 356.047 107.749 355.932 107.486Z" fill="#61DAFB"/>
<path d="M288.967 297.332C287.063 296.06 284.538 295.908 282.412 296.62C282.146 293.974 280.64 291.685 278.868 290.057L278.159 289.396L277.539 290.21C276.343 291.787 275.989 294.432 276.166 296.467C276.299 297.942 276.698 299.469 277.495 300.69C276.875 301.097 276.21 301.656 275.59 301.91C274.35 302.419 272.977 302.928 271.648 302.928H268.68V295.755H262.922V283.037H256.277V289.141H245.204V295.755H239.445V302.877H234.484L234.396 303.64C234.174 306.896 234.528 310.05 235.724 313.052L236.212 314.171L236.256 314.273C239.755 321.089 245.868 323.938 252.557 323.938C265.491 323.938 276.166 317.274 281.038 303.284C284.316 303.488 287.683 302.368 289.277 298.756L289.676 297.841L288.967 297.332ZM246.09 290.668H250.519V296.264H246.09V290.668ZM251.892 313.153C251.892 314.018 251.272 314.73 250.519 314.73C249.766 314.73 249.146 314.018 249.146 313.153C249.146 312.288 249.766 311.576 250.519 311.576C251.272 311.627 251.892 312.288 251.892 313.153ZM246.09 297.281H250.519V302.877H246.09V297.281ZM240.331 297.281H245.204V302.877H240.331V297.281ZM252.601 322.819C245.602 322.768 241.837 320.072 238.737 316.511C239.667 316.562 240.553 316.613 241.35 316.613C242.059 316.613 242.767 316.613 243.432 316.562C245.159 316.46 246.665 316.206 247.906 315.799C248.924 318.495 250.785 320.988 254.107 322.819H252.601ZM256.277 302.877H251.405V297.281H256.277V302.877ZM256.277 296.264H251.405V290.668H256.277V296.264ZM262.036 302.877H257.163V297.281H262.036V302.877ZM262.036 296.264H257.163V290.668H262.036V296.264ZM262.036 289.65H257.163V284.054H262.036V289.65ZM267.794 302.877H262.922V297.281H267.794V302.877ZM250.873 312.136C250.785 312.085 250.652 312.034 250.519 312.034C249.988 312.034 249.545 312.543 249.545 313.153C249.545 313.764 249.988 314.273 250.519 314.273C251.051 314.273 251.494 313.764 251.494 313.153C251.494 313.001 251.449 312.848 251.405 312.746C251.316 312.899 251.228 313.001 251.051 313.001C250.829 313.001 250.652 312.797 250.652 312.543C250.696 312.339 250.785 312.187 250.873 312.136Z" fill="#019BC6"/>
<path d="M342.784 319.894C342.631 319.939 341.827 320.198 340.976 320.464C336.425 321.9 333.199 323.564 332.402 324.889C332.096 325.392 332.042 325.807 332.219 326.214C332.418 326.672 332.786 327.028 333.797 327.716C334.272 328.041 335.076 328.707 335.605 329.21C338.111 331.623 339.321 334.583 339.183 337.927C339.03 341.694 337.199 345.46 333.705 349.219C332.487 350.536 331.23 351.631 328.832 353.489C326.832 355.035 325.744 356.042 325.001 357.011C322.726 360 323.338 362.664 326.802 364.892C329.859 366.86 335.245 368.495 341.604 369.383C343.734 369.679 346.14 369.871 346.722 369.79L347.129 369.731L347.765 368.621C350.99 363.019 352.614 357.729 352.814 352.26C352.898 349.818 352.584 346.933 352.04 345.245C351.94 344.942 351.871 344.683 351.879 344.676C351.887 344.668 352.791 344.402 353.879 344.091C359.617 342.441 365.172 341.139 369.762 340.369C370.658 340.221 371.417 340.066 371.455 340.029C371.7 339.799 370.988 338.719 369.823 337.565C365.532 333.288 357.947 330.032 349.044 328.641C347.328 328.374 347.121 328.278 346.485 327.464C345.474 326.169 344.524 323.964 343.229 319.916C343.19 319.783 343.152 319.783 342.784 319.894ZM343.374 321.419C343.872 322.736 344.179 323.764 344.179 324.127V324.415L343.757 324.371C341.466 324.112 337.804 323.564 337.023 323.365C336.823 323.313 336.708 323.239 336.747 323.18C336.808 323.091 337.582 322.728 339.896 321.715C342.049 320.767 342.869 320.42 342.938 320.412C342.968 320.405 343.16 320.864 343.374 321.419ZM338.524 324.193C341.321 324.763 343.367 325.118 343.811 325.118C344.248 325.118 344.202 325.155 342.141 326.369C340.555 327.301 340.371 327.39 339.972 327.39H339.536L338.356 326.243C336.931 324.852 335.965 323.831 335.965 323.712C335.965 323.668 335.996 323.653 336.034 323.675C336.072 323.683 337.199 323.92 338.524 324.193ZM336.456 325.474C337.145 326.251 337.674 326.902 337.643 326.924C337.582 326.976 335.62 326.51 334.425 326.154C333.376 325.844 333.253 325.74 333.529 325.392C333.713 325.163 335.061 324.075 335.161 324.068C335.191 324.068 335.766 324.697 336.456 325.474ZM345.389 327.072C345.665 327.701 345.872 328.211 345.864 328.219C345.849 328.226 342.171 327.679 341.85 327.619C341.781 327.605 342.401 327.198 343.244 326.702C344.087 326.206 344.792 325.836 344.83 325.873C344.868 325.91 345.114 326.443 345.389 327.072ZM337.367 328.271C337.436 328.337 338.317 331.068 338.279 331.105C338.264 331.12 337.85 330.653 337.352 330.061C336.854 329.469 336.103 328.633 335.666 328.204L334.885 327.412L336.095 327.819C336.77 328.034 337.337 328.241 337.367 328.271ZM340.884 328.633C342.409 328.84 343.673 329.033 343.696 329.055C343.719 329.077 342.792 329.773 341.65 330.594C340.501 331.416 339.559 332.081 339.543 332.067C339.528 332.052 339.413 331.712 339.283 331.297C339.153 330.89 338.831 330.039 338.563 329.403C338.294 328.766 338.08 328.248 338.095 328.248C338.103 328.248 339.359 328.426 340.884 328.633ZM344.715 329.81C345.052 330.572 345.182 331.297 345.236 332.755C345.267 333.539 345.267 334.176 345.244 334.176C345.213 334.176 344.73 334.013 344.171 333.82C343.052 333.428 340.861 332.733 340.601 332.681C340.486 332.659 341.014 332.17 342.409 331.016C343.489 330.113 344.409 329.381 344.455 329.381C344.493 329.381 344.608 329.573 344.715 329.81ZM348.646 329.995C350.331 330.328 351.81 330.624 351.925 330.653C352.093 330.69 351.687 330.935 349.902 331.882C348.676 332.533 347.282 333.273 346.807 333.532C346.332 333.791 345.933 333.991 345.926 333.983C345.918 333.976 345.964 333.732 346.033 333.443C346.286 332.385 346.125 331.068 345.619 330.017C345.474 329.714 345.351 329.44 345.351 329.425C345.359 329.344 345.665 329.403 348.646 329.995ZM353.25 331.985C353.166 332.355 352.975 332.984 352.829 333.391C352.507 334.287 351.327 336.617 351.166 336.677C351.105 336.699 350.546 336.455 349.94 336.129C349.335 335.804 348.454 335.374 347.994 335.175L347.152 334.812L350.239 332.895C352.798 331.312 353.335 331.009 353.365 331.149C353.388 331.245 353.335 331.615 353.25 331.985ZM355.511 331.305C358.713 332.192 362.1 333.391 361.901 333.569C361.862 333.606 361.441 333.739 360.974 333.865C358.552 334.523 355.189 335.648 353.618 336.321C353.128 336.529 352.706 336.684 352.683 336.654C352.66 336.632 352.852 335.952 353.112 335.138C353.618 333.539 354.208 331.386 354.208 331.112C354.208 330.994 354.254 330.949 354.369 330.979C354.446 331.009 354.959 331.157 355.511 331.305ZM341.727 334.516C342.455 334.745 343.313 335.064 343.627 335.219C344.194 335.493 344.202 335.5 344.041 335.67C343.75 335.981 340.57 338.845 340.478 338.874C340.432 338.889 340.394 338.46 340.394 337.831C340.394 336.743 340.264 334.775 340.164 334.338C340.087 334.005 340.149 334.013 341.727 334.516ZM362.077 335.086C361.38 336.203 360.223 337.794 359.395 338.8C358.545 339.829 356.744 341.76 356.637 341.76C356.599 341.76 356.338 341.449 356.055 341.065C355.028 339.651 353.84 338.43 352.798 337.72C352.699 337.653 352.637 337.579 352.66 337.557C352.683 337.535 354.392 336.928 356.453 336.203C360.621 334.745 362.46 334.153 362.575 334.227C362.59 334.235 362.368 334.62 362.077 335.086ZM364.682 334.893C367.563 336.832 369.517 338.401 370.221 339.341C370.398 339.577 370.528 339.777 370.513 339.792C370.497 339.807 369.57 339.903 368.452 340.014C363.985 340.436 360.805 340.872 359.119 341.287C358.667 341.398 358.292 341.479 358.284 341.472C358.277 341.464 358.575 341.109 358.951 340.672C360.897 338.416 362.659 336.07 363.31 334.849C363.487 334.523 363.655 334.264 363.686 334.264C363.724 334.264 364.169 334.546 364.682 334.893ZM348.561 337.298C349.113 337.587 349.534 337.846 349.511 337.89C349.465 337.972 344.615 340.539 344.57 340.502C344.562 340.495 344.807 339.725 345.129 338.786C345.451 337.846 345.757 336.825 345.818 336.514L345.926 335.944L346.745 336.366C347.198 336.595 348.01 337.01 348.561 337.298ZM344.493 337.446C344.026 339.015 343.075 341.042 342.639 341.39C342.539 341.472 342.34 341.361 341.704 340.857C341.252 340.51 340.792 340.162 340.67 340.081C340.555 339.999 340.463 339.918 340.486 339.896C340.823 339.577 344.684 336.566 344.707 336.61C344.715 336.64 344.623 337.017 344.493 337.446ZM353.289 340.177C354.017 340.65 355.641 342.049 355.557 342.138C355.534 342.16 353.886 342.678 351.902 343.285C349.917 343.891 347.703 344.579 346.983 344.809C346.263 345.046 345.665 345.223 345.657 345.216C345.65 345.208 346.156 344.653 346.776 343.98C348.4 342.226 350.071 340.354 350.668 339.614L351.182 338.978L351.848 339.326C352.208 339.518 352.86 339.903 353.289 340.177ZM349.527 339.17C349.481 339.23 349.044 339.762 348.554 340.362C348.063 340.961 346.883 342.419 345.933 343.603L344.202 345.756L344.148 345.393C344.041 344.69 343.65 343.307 343.428 342.841L343.206 342.367L344.309 341.834C345.443 341.287 347.818 340.044 348.929 339.415C349.611 339.03 349.657 339.008 349.527 339.17ZM340.332 341.775C340.785 341.997 341.206 342.293 341.206 342.382C341.206 342.522 338.271 344.713 338.187 344.631C338.172 344.609 338.432 344.106 338.777 343.507C339.122 342.907 339.467 342.234 339.551 342.004C339.635 341.775 339.758 341.59 339.827 341.59C339.896 341.583 340.118 341.671 340.332 341.775ZM342.83 344.469C343.029 344.853 343.244 345.926 343.137 346.022C343.091 346.059 341.88 346.614 340.44 347.258C338.999 347.895 337.122 348.753 336.264 349.167C335.406 349.582 334.755 349.87 334.824 349.818C334.885 349.767 335.827 348.997 336.923 348.124C339.038 346.429 341.443 344.402 341.88 343.951L342.148 343.677L342.409 343.914C342.547 344.047 342.738 344.298 342.83 344.469ZM340.463 344.446C340.256 344.631 339.122 345.578 337.957 346.555C336.793 347.532 335.391 348.708 334.847 349.167C333.743 350.092 333.743 350.092 335.153 348.324C336.241 346.955 336.808 346.444 338.371 345.43C339.13 344.942 340.639 344.113 340.792 344.113C340.815 344.113 340.67 344.261 340.463 344.446ZM351.396 345.379C351.45 345.667 351.526 346.563 351.557 347.362L351.611 348.819L351.258 348.664C350.048 348.124 346.646 346.274 346.776 346.222C347.519 345.934 351.189 344.757 351.235 344.801C351.266 344.831 351.343 345.09 351.396 345.379ZM348.515 347.991C349.933 348.797 351.105 349.463 351.12 349.478C351.136 349.493 350.952 349.641 350.722 349.804C350.27 350.122 345.474 352.519 345.405 352.46C345.382 352.438 345.451 352.038 345.55 351.58C345.749 350.647 345.918 347.865 345.841 346.984C345.811 346.674 345.826 346.452 345.872 346.481C345.903 346.503 347.098 347.184 348.515 347.991ZM344.6 347.399C344.707 348.265 344.577 350.003 344.332 350.914C344.049 351.979 343.88 352.423 343.757 352.46C343.589 352.512 342.539 351.594 341.903 350.825C341.26 350.048 340.409 348.59 340.539 348.472C340.616 348.398 344.355 346.91 344.478 346.91C344.508 346.903 344.562 347.125 344.6 347.399ZM340.011 349.574C340.409 350.366 341.313 351.506 342.302 352.475C342.938 353.096 343.098 353.296 342.999 353.363C342.554 353.651 340.562 354.554 339.306 355.028C337.781 355.605 335.797 356.271 335.751 356.212C335.735 356.19 336.187 355.39 336.762 354.436C338.003 352.357 339.574 349.404 339.574 349.16C339.582 348.856 339.712 348.982 340.011 349.574ZM337.659 349.626C337.636 349.685 337.444 350.144 337.237 350.647C336.356 352.808 334.64 355.746 334.257 355.746C333.958 355.746 333.521 354.036 333.399 352.394L333.337 351.565L335.437 350.544C336.594 349.981 337.574 349.522 337.62 349.522C337.666 349.515 337.681 349.567 337.659 349.626ZM351.672 351.624C351.68 352.867 351.143 355.879 350.852 356.182C350.73 356.308 349.404 355.834 348.201 355.235C347.129 354.702 345.359 353.644 345.359 353.533C345.359 353.503 345.627 353.37 345.964 353.237C346.6 352.978 349.565 351.446 350.822 350.729L351.542 350.314L351.603 350.632C351.634 350.81 351.664 351.261 351.672 351.624ZM331.897 353.059C332.019 354.044 332.334 355.25 332.724 356.204C332.885 356.597 333 356.937 332.977 356.952C332.824 357.085 326.518 358.765 325.683 358.89L325.285 358.95L325.346 358.654C325.43 358.232 326.043 357.033 326.495 356.382C327.062 355.575 328.457 354.221 329.376 353.592C330.066 353.126 331.721 352.186 331.767 352.246C331.797 352.253 331.843 352.616 331.897 353.059ZM346.201 355.139C348.148 356.042 348.883 356.352 349.818 356.663L350.53 356.9L350.078 357.122C347.527 358.372 343.006 360.148 341.842 360.37C341.581 360.422 341.543 360.407 341.597 360.282C341.796 359.778 344.493 354.399 344.547 354.399C344.577 354.399 345.328 354.732 346.201 355.139ZM342.777 354.939C342.639 355.575 341.896 357.625 341.466 358.557C341.091 359.371 340.225 360.948 340.072 361.096C340.003 361.162 338.463 360.326 337.735 359.823C336.915 359.26 335.122 357.588 335.176 357.433C335.199 357.373 336.287 356.967 337.605 356.53C340.378 355.605 341.926 355.05 342.378 354.821C342.807 354.599 342.846 354.613 342.777 354.939ZM350.53 357.766C350.507 357.951 350.347 358.757 350.178 359.579C349.649 362.139 349.006 363.893 348.6 363.893C348.033 363.893 344.171 362.99 342.922 362.561C342.072 362.272 341.344 361.939 341.099 361.739C340.945 361.613 341.03 361.569 342.133 361.133C345.703 359.727 349.826 357.928 350.27 357.588C350.538 357.381 350.576 357.41 350.53 357.766ZM332.448 358.55C332.042 359.253 331.215 360.407 329.629 362.472L328.28 364.233L327.874 363.952C327.307 363.56 326.403 362.612 326.028 362.013C325.622 361.369 325.346 360.57 325.315 359.963L325.292 359.49L325.959 359.423C326.863 359.334 329.399 358.831 331.2 358.372C332.019 358.165 332.701 358.01 332.717 358.017C332.724 358.039 332.609 358.276 332.448 358.55ZM336.379 360.363C336.831 360.674 337.452 361.073 337.766 361.251L338.34 361.576L338.08 361.68C337.934 361.739 335.835 362.479 333.406 363.323C329.261 364.766 328.993 364.855 328.878 364.707C328.809 364.618 328.763 364.529 328.771 364.499C328.778 364.47 329.897 363.071 331.261 361.392L333.736 358.335L334.647 359.068C335.161 359.475 335.927 360.052 336.379 360.363ZM337.398 364.958C336.494 366.268 335.728 367.37 335.697 367.4C335.628 367.489 334.18 367.163 333.1 366.808C331.966 366.438 330.564 365.757 330.012 365.299L329.614 364.966L330.51 364.729C334.165 363.767 338.999 362.531 339.022 362.546C339.038 362.561 338.302 363.648 337.398 364.958ZM341.742 362.975C343.681 363.619 345.443 363.981 347.734 364.218L348.362 364.285L346.654 364.877C342.394 366.364 338.938 367.407 337.206 367.733C336.716 367.822 336.272 367.903 336.226 367.903C336.18 367.903 336.525 367.444 337 366.882C338.302 365.35 339.712 363.604 340.087 363.064C340.271 362.805 340.455 362.583 340.493 362.583C340.539 362.59 341.099 362.76 341.742 362.975ZM348.094 366.438C347.358 368.266 346.822 369.383 346.638 369.45C346.278 369.583 341.244 368.873 339.704 368.466C338.685 368.199 338.034 367.94 338.225 367.874C338.302 367.851 339.03 367.681 339.85 367.504C342.508 366.926 346.569 365.735 348.255 365.04C348.469 364.951 348.661 364.884 348.676 364.899C348.692 364.914 348.431 365.602 348.094 366.438ZM318.328 367.985C317.967 368.133 317.799 368.421 317.761 368.961C317.722 369.465 317.722 369.472 317.462 369.472C317.201 369.472 317.194 369.487 317.224 369.842C317.247 370.175 317.278 370.212 317.5 370.241L317.745 370.271V372.979L318.167 372.942L318.596 372.913L318.626 371.581L318.657 370.249H319.914V371.226C319.914 372.439 320.044 372.757 320.588 372.935C320.833 373.016 321.063 373.031 321.308 372.979C321.653 372.913 321.668 372.891 321.699 372.535L321.729 372.158L321.431 372.21C320.91 372.299 320.879 372.239 320.894 371.011L320.902 370.256H321.162C321.615 370.256 321.714 370.175 321.714 369.812V369.472H320.902V369.146C320.902 368.665 320.818 368.584 320.35 368.614L319.952 368.636L319.921 369.05L319.891 369.465H318.642V369.169C318.642 368.762 318.864 368.562 319.247 368.636C319.538 368.688 319.546 368.688 319.546 368.399C319.546 368.244 319.492 368.059 319.439 367.999C319.316 367.896 318.596 367.881 318.328 367.985ZM298.361 368.125C297.97 368.392 298.162 368.947 298.652 368.947C299.158 368.947 299.25 368.88 299.25 368.503C299.242 368.022 298.797 367.829 298.361 368.125ZM291.726 368.362C291.588 368.458 291.572 368.68 291.595 370.693L291.618 372.913L292.047 372.942L292.476 372.972V371.041C292.476 369.975 292.499 369.124 292.522 369.146C292.553 369.169 292.814 369.872 293.112 370.708C293.411 371.544 293.718 372.395 293.794 372.602L293.94 372.979L294.392 372.942L294.844 372.913L295.534 371.063L296.223 369.213L296.269 371.063C296.3 372.084 296.33 372.928 296.338 372.942C296.346 372.957 296.553 372.957 296.782 372.942L297.211 372.913L297.234 370.7C297.25 369.139 297.227 368.451 297.15 368.362C296.989 368.17 295.97 368.207 295.786 368.406C295.71 368.495 295.388 369.213 295.081 369.997C294.775 370.782 294.499 371.455 294.469 371.492C294.438 371.529 294.17 370.9 293.871 370.101C293.572 369.287 293.243 368.562 293.128 368.451C292.967 368.295 292.829 368.251 292.4 368.251C292.116 368.251 291.81 368.303 291.726 368.362ZM301.012 369.472C300.353 369.679 299.962 370.338 299.962 371.263C299.962 372.299 300.368 372.861 301.226 373.002C301.617 373.068 302.284 372.92 302.514 372.72C302.667 372.587 302.736 372.091 302.613 371.98C302.582 371.951 302.414 372.003 302.238 372.099C301.586 372.439 301.104 372.247 300.95 371.588C300.851 371.152 300.958 370.589 301.196 370.345C301.387 370.145 301.862 370.13 302.23 370.315C302.575 370.486 302.674 370.426 302.674 370.042C302.674 369.827 302.621 369.709 302.46 369.613C302.184 369.428 301.372 369.361 301.012 369.472ZM304.529 369.65C304.214 369.916 304.214 369.916 304.184 369.716C304.161 369.546 304.1 369.509 303.77 369.487L303.387 369.457V372.95H304.291V371.869C304.291 370.789 304.291 370.789 304.559 370.508C304.781 370.278 304.881 370.234 305.149 370.264C305.486 370.301 305.555 370.227 305.555 369.82C305.555 369.317 305.034 369.228 304.529 369.65ZM307.026 369.487C306.298 369.694 305.854 370.515 305.946 371.485C306.03 372.38 306.505 372.891 307.363 373.009C308.881 373.209 309.869 372.01 309.44 370.5C309.179 369.613 308.137 369.169 307.026 369.487ZM308.084 370.167C308.559 370.412 308.681 371.477 308.291 371.98C308.045 372.291 307.501 372.35 307.172 372.099C306.973 371.943 306.957 371.869 306.957 371.218C306.957 370.545 306.973 370.493 307.21 370.293C307.471 370.071 307.808 370.027 308.084 370.167ZM310.75 369.509C310.29 369.701 310.122 369.96 310.122 370.441C310.122 370.959 310.29 371.152 311.095 371.522C311.555 371.736 311.654 371.818 311.654 372.003C311.654 372.158 311.585 372.247 311.401 372.306C311.171 372.38 310.957 372.343 310.229 372.121C310.091 372.077 310.068 372.114 310.091 372.41C310.114 372.691 310.168 372.772 310.39 372.876C310.765 373.053 311.669 373.039 312.045 372.846C312.589 372.565 312.757 371.714 312.359 371.285C312.267 371.189 311.938 370.989 311.608 370.841C311.011 370.567 310.865 370.367 311.072 370.13C311.21 369.975 311.616 369.975 312.022 370.138C312.29 370.249 312.344 370.249 312.39 370.145C312.482 369.908 312.374 369.627 312.152 369.516C311.853 369.361 311.087 369.361 310.75 369.509ZM314.405 369.45C313.608 369.724 313.248 370.19 313.171 371.018C313.079 372.04 313.462 372.691 314.29 372.928C315.677 373.32 316.757 372.543 316.749 371.159C316.742 370.323 316.351 369.709 315.677 369.487C315.362 369.383 314.65 369.361 314.405 369.45ZM315.454 370.293C315.692 370.486 315.707 370.545 315.707 371.159C315.707 371.736 315.684 371.84 315.485 372.04C315.202 372.328 314.665 372.35 314.397 372.091C314.167 371.869 314.098 371.581 314.152 370.981C314.183 370.589 314.244 370.456 314.435 370.286C314.757 370.019 315.133 370.027 315.454 370.293ZM298.269 371.189L298.292 372.92H299.196V369.516L298.721 369.494L298.246 369.465L298.269 371.189ZM293.955 375.096C292.798 375.34 291.925 375.954 291.465 376.864C291.182 377.419 291.166 377.501 291.166 378.403C291.166 379.276 291.189 379.41 291.411 379.854C291.894 380.808 292.783 381.482 294.637 382.296C296.66 383.183 297.211 383.731 297.211 384.863C297.211 385.892 296.713 386.506 295.618 386.831C294.53 387.157 293.442 387.002 292.032 386.321C291.565 386.092 291.143 385.892 291.113 385.877C291.074 385.862 290.99 385.914 290.906 385.988C290.737 386.158 290.707 387.002 290.867 387.283C291.205 387.897 292.974 388.467 294.515 388.467C297.411 388.467 299.28 386.802 299.127 384.353C299.096 383.82 299.027 383.561 298.797 383.117C298.345 382.236 297.763 381.778 295.993 380.941C295.173 380.557 294.277 380.09 293.994 379.905C292.875 379.18 292.614 377.945 293.404 377.086C293.84 376.605 294.285 376.45 295.196 376.442C296.062 376.442 296.415 376.531 297.411 377.02C298.269 377.441 298.345 377.404 298.345 376.583C298.345 375.843 298.299 375.776 297.518 375.429C296.484 374.992 295.097 374.859 293.955 375.096ZM306.03 375.044C304.322 375.31 303.004 376.109 302.123 377.419C301.678 378.085 301.433 378.707 301.203 379.757C300.95 380.904 301.012 383.457 301.311 384.508C302.046 387.09 303.693 388.334 306.513 388.452C307.999 388.511 308.574 388.408 310.03 387.808C310.083 387.786 310.329 387.934 310.574 388.134C311.509 388.918 313.562 390.043 314.282 390.176C314.727 390.258 314.849 390.117 314.849 389.51C314.849 389.229 314.826 388.94 314.795 388.859C314.765 388.778 314.336 388.519 313.83 388.274C313.056 387.904 311.509 386.942 311.509 386.831C311.509 386.809 311.654 386.617 311.823 386.395C312.551 385.477 312.987 384.197 313.141 382.54C313.255 381.274 313.148 379.92 312.849 378.869C312.305 376.968 310.98 375.658 309.11 375.17C308.49 375.022 306.712 374.94 306.03 375.044ZM308.743 376.709C309.815 377.094 310.528 377.878 310.942 379.099C311.148 379.713 311.187 379.994 311.225 381.297C311.279 383.043 311.141 383.886 310.666 384.863C309.907 386.432 308.245 387.216 306.306 386.928C303.9 386.573 302.843 384.819 302.966 381.378C303.035 379.402 303.402 378.366 304.352 377.493C304.912 376.975 305.318 376.746 305.969 376.59C306.72 376.398 308.053 376.457 308.743 376.709ZM330.449 375.103C329.338 375.362 328.395 376.028 327.989 376.827C327.53 377.745 327.514 379.04 327.951 379.876C328.464 380.86 329.154 381.371 331.299 382.355C332.923 383.102 333.467 383.539 333.69 384.271C333.95 385.137 333.613 386.04 332.862 386.513C331.69 387.246 330.02 387.127 328.234 386.188C327.43 385.766 327.315 385.81 327.315 386.558C327.315 387.253 327.415 387.46 327.905 387.734C329.414 388.593 331.927 388.704 333.49 387.993C335.375 387.135 336.226 384.878 335.337 383.087C335.222 382.858 334.9 382.458 334.609 382.185C334.165 381.763 333.812 381.556 332.326 380.853C329.859 379.683 329.368 379.18 329.514 377.989C329.591 377.397 329.912 376.96 330.479 376.687C330.87 376.494 331.085 376.457 331.682 376.457C332.571 376.457 332.931 376.546 333.828 376.99C334.594 377.367 334.755 377.397 334.839 377.19C334.946 376.931 334.893 376.065 334.762 375.88C334.586 375.643 333.69 375.258 332.931 375.103C332.173 374.948 331.131 374.94 330.449 375.103ZM316.404 375.244C316.32 375.325 316.297 376.857 316.297 381.607V387.867L316.519 388.082L316.742 388.297H319.944C322.396 388.297 323.162 388.267 323.239 388.186C323.377 388.015 323.438 387.505 323.361 387.164L323.292 386.861L320.726 386.817L318.159 386.772L318.136 381.023C318.121 376.561 318.09 375.258 318.006 375.207C317.814 375.103 316.527 375.125 316.404 375.244ZM340.486 378.514C340.049 378.581 339.176 378.914 338.815 379.151C337.95 379.72 337.337 380.631 336.992 381.852C336.777 382.628 336.777 384.545 336.992 385.337C337.436 386.957 338.417 387.941 339.98 388.341C340.662 388.511 342.386 388.511 343.229 388.341C344.026 388.178 344.853 387.882 345.006 387.712C345.152 387.549 345.144 386.669 344.999 386.528C344.922 386.454 344.684 386.506 344.049 386.713C341.604 387.512 339.72 387.164 338.992 385.781C338.777 385.374 338.578 384.56 338.578 384.101V383.857H341.681C343.642 383.857 344.884 383.82 345.06 383.761C345.458 383.627 345.566 383.294 345.497 382.436C345.359 380.734 344.769 379.669 343.612 378.995C342.876 378.566 341.512 378.351 340.486 378.514ZM342.141 379.883C343.06 380.15 343.627 380.904 343.711 381.948L343.757 382.547H338.563L338.624 382.185C338.785 381.282 339.176 380.608 339.781 380.209C340.463 379.757 341.313 379.639 342.141 379.883ZM351.021 378.536C350.592 378.67 349.971 379.151 349.527 379.691L349.098 380.224L349.052 379.447L349.006 378.67L348.469 378.64C348.171 378.625 347.841 378.633 347.726 378.662L347.519 378.707V383.45C347.519 387.697 347.535 388.193 347.665 388.245C347.849 388.311 348.914 388.311 349.09 388.245C349.22 388.2 349.236 387.838 349.236 385.1V382.007L349.634 381.467C350.178 380.727 350.883 380.127 351.289 380.053C351.503 380.016 351.841 380.046 352.239 380.142C352.63 380.238 352.89 380.261 352.944 380.209C352.99 380.164 353.021 379.809 353.005 379.439C352.982 378.773 352.967 378.744 352.714 378.633C352.4 378.485 351.366 378.425 351.021 378.536ZM366.559 378.544C365.847 378.662 364.835 379.165 364.314 379.669C363.326 380.623 362.912 381.94 362.981 383.894C363.042 385.655 363.379 386.528 364.337 387.394C365.249 388.23 366.214 388.504 367.961 388.452C369.241 388.408 370.39 388.163 370.919 387.823C371.179 387.653 371.21 387.586 371.233 387.157C371.248 386.898 371.217 386.624 371.172 386.55C371.08 386.41 371.156 386.395 369.631 386.861C369.011 387.046 368.681 387.09 367.915 387.098C366.398 387.105 365.617 386.713 365.103 385.707C364.889 385.285 364.812 384.989 364.774 384.501L364.728 383.857L367.977 383.835C371.876 383.805 371.616 383.886 371.608 382.725C371.601 380.682 370.689 379.262 369.042 378.707C368.444 378.514 367.241 378.433 366.559 378.544ZM368.26 379.891C369.156 380.15 369.746 380.919 369.869 382.007L369.93 382.547H364.736L364.789 382.111C364.919 381.045 365.678 380.127 366.659 379.839C367.034 379.728 367.77 379.757 368.26 379.891ZM377.209 378.529C376.627 378.714 375.822 379.365 375.378 380.009C375.232 380.224 375.225 380.209 375.225 379.528C375.225 379.099 375.186 378.788 375.117 378.729C374.972 378.588 373.853 378.588 373.708 378.729C373.554 378.877 373.554 388.045 373.708 388.193C373.853 388.334 375.148 388.334 375.294 388.193C375.37 388.119 375.401 387.29 375.401 385.033V381.977L375.738 381.496C376.236 380.779 376.864 380.216 377.301 380.09C377.676 379.979 377.822 379.994 378.826 380.246C379.109 380.32 379.194 380.164 379.194 379.58C379.194 378.929 379.132 378.751 378.849 378.625C378.558 378.499 377.508 378.433 377.209 378.529ZM353.212 378.758C353.12 378.869 353.396 379.683 354.79 383.442C355.718 385.944 356.553 388.067 356.645 388.163C356.989 388.504 358.698 388.422 358.851 388.06C358.966 387.771 362.131 379.284 362.192 379.084C362.299 378.736 362.108 378.633 361.334 378.633C360.882 378.633 360.598 378.67 360.545 378.744C360.499 378.803 359.855 380.571 359.119 382.673C358.384 384.774 357.756 386.462 357.717 386.417C357.679 386.38 357.051 384.663 356.323 382.599C355.595 380.534 354.951 378.803 354.898 378.736C354.76 378.566 353.35 378.588 353.212 378.758Z" fill="#EFE1E1"/>
<path d="M112.887 290.34H104.124C103.583 290.34 103.043 290.752 102.982 291.281C102.502 294.69 99.4992 297.336 95.8979 297.336L98.2399 307.918C106.765 306.802 113.428 299.982 114.029 291.516C114.09 290.869 113.55 290.34 112.888 290.34H112.887ZM97.8167 290.047L110.425 279.463C110.965 278.994 110.965 278.229 110.425 277.759L97.8167 267.177C97.0961 266.53 95.9548 267.059 95.9548 268V289.165C95.8958 290.164 97.0357 290.692 97.8167 290.047Z" fill="#2684FF"/>
<path d="M77.8857 292.633C79.0257 301.334 86.6519 308.094 95.8977 308.094V297.336C91.9348 297.336 88.6921 294.221 88.6921 290.34L77.8857 292.633Z" fill="url(#paint0_linear_119_159)"/>
<path d="M77.7646 290.164V290.34H88.7524C88.7524 286.459 91.9947 283.344 95.9563 283.344L93.6143 272.762C84.7288 273.878 77.8249 281.227 77.7646 290.164Z" fill="url(#paint1_linear_119_159)"/>
<path d="M73.0913 309.578H76.5693C78.2648 309.578 79.0845 310.394 79.0845 311.703C79.0845 312.689 78.6251 313.294 77.6907 313.505C78.9113 313.701 79.531 314.361 79.531 315.516C79.531 316.811 78.6389 317.711 76.7714 317.711H73.0913V309.578ZM74.2412 310.635V313.055H76.4262C77.5037 313.055 77.9502 312.575 77.9502 311.787C77.9502 310.999 77.4752 310.619 76.4262 310.619H74.2412V310.635ZM74.2412 314.053V316.585H76.8288C77.9196 316.585 78.4096 316.207 78.4096 315.39C78.4096 314.517 77.9347 314.053 76.8003 314.053H74.2412ZM85.12 316.599C84.7179 317.415 83.9568 317.837 82.9789 317.837C81.2985 317.837 80.4499 316.444 80.4499 314.616C80.4499 312.87 81.3407 311.393 83.1081 311.393C84.0274 311.393 84.7463 311.802 85.12 312.603V311.52H86.2125V317.711H85.12V316.599ZM83.2818 316.838C84.258 316.838 85.12 316.233 85.12 314.854V314.362C85.12 312.984 84.3304 312.378 83.396 312.378C82.1738 312.378 81.5428 313.167 81.5428 314.601C81.5428 316.093 82.1453 316.838 83.2818 316.838ZM93.2263 317.711H92.1337V313.968C92.1337 312.857 91.6739 312.364 90.6382 312.364C89.6336 312.364 88.9281 313.025 88.9281 314.277V317.724H87.8373V311.534H88.9281V312.547C89.3306 311.815 90.078 311.407 90.9266 311.407C92.004 311.407 92.738 311.942 93.053 312.913C93.4129 311.956 94.2598 311.408 95.3105 311.408C96.7327 311.408 97.5089 312.351 97.5089 314.095V317.724H96.4164V314.277C96.4164 312.997 95.957 312.364 94.9213 312.364C93.9163 312.364 93.2112 313.025 93.2112 314.277V317.711H93.2263ZM100.124 316.614V317.697H99.0329V308.916H100.123V312.617C100.526 311.801 101.289 311.379 102.265 311.379C103.947 311.379 104.795 312.772 104.795 314.602C104.795 316.346 103.903 317.823 102.137 317.823C101.216 317.838 100.497 317.429 100.124 316.614ZM101.964 312.378C100.987 312.378 100.124 312.984 100.124 314.362V314.855C100.124 316.235 100.915 316.84 101.849 316.84C103.07 316.84 103.703 316.051 103.703 314.616C103.703 313.124 103.1 312.379 101.964 312.379L101.964 312.378ZM105.671 314.601C105.671 312.745 106.778 311.393 108.676 311.393C110.558 311.393 111.664 312.745 111.664 314.601C111.664 316.458 110.558 317.837 108.676 317.837C106.792 317.837 105.671 316.458 105.671 314.601ZM106.735 314.601C106.735 315.782 107.324 316.837 108.689 316.837C110.026 316.837 110.615 315.77 110.615 314.601C110.615 313.433 110.041 312.378 108.689 312.378C107.339 312.378 106.735 313.419 106.735 314.601ZM112.556 314.601C112.556 312.745 113.662 311.393 115.56 311.393C117.442 311.393 118.548 312.745 118.548 314.601C118.548 316.458 117.442 317.837 115.56 317.837C113.662 317.837 112.556 316.458 112.556 314.601ZM113.619 314.601C113.619 315.782 114.208 316.837 115.573 316.837C116.91 316.837 117.5 315.77 117.5 314.601C117.5 313.433 116.925 312.378 115.573 312.378C114.208 312.378 113.619 313.419 113.619 314.601Z" fill="#42639A"/>
<path d="M35.604 212.322V245.563H105.938V179.081H35.604V212.322ZM92.2816 209.663C93.9662 210.032 95.4972 210.865 96.6817 212.056C97.3337 212.698 97.9006 213.412 98.3697 214.184C98.3697 214.269 95.3313 216.21 93.4801 217.295C93.4126 217.337 93.1425 217.061 92.8443 216.641C92.5063 216.089 92.0262 215.628 91.4486 215.3C90.871 214.972 90.2149 214.787 89.5414 214.763C87.4089 214.625 86.036 215.683 86.0472 217.422C86.0296 217.855 86.1345 218.285 86.3511 218.667C86.8181 219.587 87.6902 220.135 90.4248 221.252C95.4607 223.299 97.6157 224.65 98.9549 226.57C100.452 228.698 100.784 232.133 99.7707 234.676C98.6454 237.441 95.8883 239.319 91.989 239.941C90.2081 240.134 88.4087 240.116 86.6324 239.888C83.9216 239.472 81.4209 238.252 79.4922 236.404C78.8451 235.729 77.5847 233.968 77.6635 233.841C77.8689 233.697 78.0851 233.567 78.3105 233.452L80.8988 232.048L82.9188 230.942L83.3408 231.532C84.053 232.495 84.9593 233.316 86.0079 233.947C88.2585 235.064 91.3307 234.91 92.8499 233.617C93.36 233.144 93.6782 232.516 93.7491 231.844C93.8201 231.171 93.6392 230.496 93.2381 229.937C92.6755 229.198 91.5501 228.575 88.4048 227.278C84.7756 225.799 83.2114 224.884 81.7822 223.427C80.89 222.465 80.2313 221.331 79.8523 220.103C79.5695 218.7 79.5277 217.264 79.7285 215.848C80.4768 212.535 83.1045 210.221 86.9419 209.535C88.719 209.327 90.5192 209.374 92.2816 209.673V209.663ZM75.7729 212.45V215.173H66.6408V239.76H60.1645V215.167H51.0099V212.508C50.9853 211.593 51.0116 210.677 51.0886 209.764C51.1224 209.721 56.7153 209.7 63.4674 209.711H75.7392L75.7729 212.45Z" fill="#007ACC"/>
<path d="M192.776 344.952C190.694 344.824 189.482 343.68 189.162 341.539C189.076 340.969 189.076 340.954 189.067 337.258L189.059 333.679H190.901L190.909 337.141C190.915 340.26 190.919 340.626 190.95 340.845C191.075 341.736 191.326 342.334 191.75 342.764C192.091 343.108 192.49 343.31 193.041 343.417C193.301 343.467 194.041 343.467 194.279 343.417C194.811 343.312 195.299 343.056 195.681 342.682C196.131 342.248 196.465 341.632 196.626 340.934L196.681 340.699L196.687 337.209L196.693 333.718H198.574V344.693H196.712V343.822C196.712 343.231 196.705 342.954 196.691 342.958C196.649 343.006 196.613 343.059 196.585 343.115C196.245 343.697 195.747 344.179 195.144 344.506C194.442 344.88 193.737 345.012 192.775 344.952H192.776ZM213.91 344.944C213.152 344.883 212.419 344.652 211.769 344.269C210.436 343.474 209.647 342.162 209.416 340.357C209.336 339.733 209.326 338.894 209.393 338.364C209.542 337.178 210.025 336.014 210.713 335.183C210.889 334.97 211.289 334.584 211.51 334.414C212.104 333.955 212.8 333.635 213.544 333.477C213.976 333.386 214.735 333.344 215.194 333.385C216.345 333.487 217.401 334.011 218.118 334.833C218.847 335.67 219.247 336.839 219.299 338.278C219.306 338.504 219.309 338.9 219.303 339.157L219.292 339.625L215.259 339.631L211.227 339.635V339.809C211.235 340.374 211.358 340.933 211.59 341.452C211.788 341.893 212.13 342.376 212.41 342.609C212.984 343.088 213.7 343.38 214.456 343.443C214.74 343.469 215.466 343.441 215.791 343.393C216.702 343.262 217.567 342.918 218.309 342.391C218.394 342.331 218.473 342.274 218.488 342.266C218.509 342.253 218.513 342.411 218.512 343.076V343.902L218.321 344.016C217.498 344.502 216.576 344.81 215.619 344.919C215.327 344.954 214.259 344.969 213.91 344.944ZM217.421 337.978C217.421 337.092 217.034 336.108 216.486 335.602C216.096 335.241 215.598 335.008 215.062 334.936C214.796 334.896 214.237 334.911 213.957 334.966C213.385 335.071 212.859 335.341 212.448 335.739C211.996 336.172 211.655 336.7 211.451 337.281C211.374 337.494 211.285 337.844 211.257 338.039L211.244 338.131H217.42L217.421 337.978ZM162.711 344.668L165.754 336.955L168.789 329.267H170.74L170.82 329.466C171.068 330.078 176.896 344.676 176.896 344.684C176.896 344.688 176.429 344.693 175.859 344.693H174.821L173.982 342.535L173.141 340.377H166.377L166.348 340.451C166.332 340.49 165.973 341.461 165.551 342.608L164.782 344.692H163.743C162.92 344.692 162.704 344.688 162.711 344.668ZM172.524 338.731C172.524 338.727 171.959 337.249 171.267 335.445C169.975 332.071 169.903 331.868 169.801 331.326C169.753 331.072 169.729 331.066 169.701 331.296C169.66 331.548 169.601 331.796 169.524 332.039C169.49 332.141 168.908 333.682 168.231 335.464C167.816 336.548 167.405 337.633 166.998 338.72C166.998 338.729 168.241 338.737 169.761 338.737C171.281 338.737 172.524 338.734 172.524 338.731ZM177.524 344.412V344.13L180.893 339.662L184.264 335.192L181.212 335.183L178.161 335.173L178.156 334.426L178.15 333.679H186.977V334.184L183.606 338.678C181.753 341.149 180.236 343.175 180.236 343.18C180.236 343.185 181.735 343.189 183.566 343.189H186.896V344.693H177.524V344.412ZM202.252 344.679C202.245 344.672 202.239 342.195 202.239 339.173V333.679H204.081V334.811C204.081 335.435 204.089 335.945 204.098 335.945C204.108 335.945 204.153 335.843 204.198 335.718C204.411 335.137 204.764 334.613 205.227 334.189C205.625 333.816 206.134 333.572 206.683 333.491C206.84 333.467 206.974 333.462 207.289 333.47C207.686 333.48 207.893 333.508 208.134 333.584L208.211 333.608V335.452L207.993 335.347C207.616 335.163 207.194 335.081 206.773 335.111C206.476 335.126 206.282 335.163 206.045 335.249C205.563 335.42 205.154 335.742 204.884 336.163C204.471 336.814 204.208 337.542 204.114 338.299C204.098 338.43 204.09 339.494 204.086 341.592L204.081 344.693H203.173C202.675 344.693 202.26 344.687 202.252 344.679ZM136.294 321.582C136.604 321.582 136.907 321.676 137.158 321.851C137.41 322.025 137.599 322.272 137.698 322.555L146.698 348.307C146.773 348.523 146.794 348.752 146.759 348.977C146.724 349.202 146.634 349.415 146.497 349.6C146.36 349.784 146.179 349.935 145.97 350.038C145.76 350.142 145.529 350.196 145.293 350.196H155.664C156.019 350.195 156.362 350.071 156.63 349.848C156.899 349.624 157.076 349.315 157.129 348.976C157.163 348.752 157.142 348.523 157.067 348.307L148.068 322.555C147.969 322.272 147.781 322.025 147.529 321.851C147.277 321.676 146.975 321.582 146.665 321.582H136.294ZM135.96 321.693C135.649 321.693 135.347 321.787 135.095 321.962C134.843 322.137 134.654 322.384 134.554 322.668L125.555 348.418C125.48 348.634 125.459 348.863 125.493 349.087C125.528 349.312 125.618 349.525 125.755 349.71C125.892 349.894 126.073 350.044 126.282 350.148C126.491 350.251 126.723 350.305 126.958 350.305H134.199C134.509 350.306 134.812 350.212 135.064 350.037C135.316 349.862 135.506 349.616 135.605 349.332L137.364 344.318L134.003 341.207C133.942 341.148 133.663 340.655 133.911 340.239C134.188 339.837 134.651 339.837 134.651 339.837H138.983L141.257 333.509L137.369 322.466C137.359 322.412 137.14 322.134 136.797 321.914C136.454 321.692 135.959 321.693 135.959 321.693H135.96ZM134.737 340.025C134.6 340.025 134.466 340.065 134.352 340.139C134.239 340.214 134.151 340.319 134.101 340.443C134.051 340.566 134.04 340.701 134.07 340.83C134.101 340.959 134.171 341.077 134.271 341.167L143.752 349.713C144.028 349.962 144.379 350.108 144.755 350.108C144.755 350.108 145.077 350.129 145.271 350.1C145.726 350.03 146.155 349.671 146.296 349.52C146.661 349.051 146.495 348.322 146.495 348.322L143.625 340.024L134.737 340.025Z" fill="#2172EB"/>
<g clip-path="url(#clip2_119_159)">
<path d="M349.67 246.998H346.223L349.808 250.997V252.9H342.424V250.671H346.008L342.424 246.673V244.768H349.67V246.998ZM340.959 246.998H337.512L341.097 250.997V252.9H333.712V250.671H337.298L333.712 246.673V244.768H340.959V246.998ZM332.334 247.089H328.614V250.578H332.334V252.9H325.969V244.768H332.334V247.089Z" fill="#131313"/>
<path d="M320.9 300.186L317.119 256.612H358.657L354.874 300.179L337.863 305.026L320.9 300.186Z" fill="#1572B6"/>
<path d="M337.889 301.322L351.634 297.405L354.868 260.176H337.889V301.322Z" fill="#33A9DC"/>
<path d="M337.889 275.962H344.77L345.246 270.49H337.889V265.146H350.929L350.804 266.579L349.526 281.306H337.889V275.962Z" fill="white"/>
<path d="M337.92 289.842L337.897 289.848L332.106 288.241L331.735 283.979H326.516L327.244 292.37L337.896 295.408L337.92 295.401L337.92 289.842Z" fill="#EBEBEB"/>
<path d="M344.328 281.08L343.702 288.237L337.902 289.846V295.406L348.562 292.37L348.641 291.467L349.546 281.08H344.328Z" fill="white"/>
<path d="M337.907 265.146V270.489H325.346L325.241 269.288L325.005 266.579L324.88 265.146H337.907ZM337.889 275.963V281.307H332.17L332.066 280.106L331.829 277.396L331.704 275.963H337.889Z" fill="#EBEBEB"/>
</g>
<path d="M373.248 172.945L369.011 125.488H415.565L411.324 172.938L392.259 178.216L373.248 172.945Z" fill="#E44D26"/>
<path d="M392.288 174.181L407.692 169.916L411.317 129.369H392.288V174.181Z" fill="#F16529"/>
<path d="M392.288 146.97H384.576L384.044 141.009H392.288V135.188H377.674L377.813 136.75L379.246 152.79H392.288V146.97ZM392.288 162.085L392.262 162.092L385.772 160.341L385.357 155.7H379.506L380.323 164.839L392.261 168.149L392.288 168.141V162.085Z" fill="#EBEBEB"/>
<path d="M373.343 112.591H376.304V115.514H379.014V112.591H381.976V121.44H379.014V118.477H376.305V121.44H373.343V112.591ZM385.87 115.526H383.263V112.591H391.44V115.526H388.832V121.44H385.87V115.526ZM392.738 112.591H395.826L397.726 115.7L399.624 112.591H402.714V121.44H399.763V117.054L397.726 120.2H397.675L395.636 117.054V121.44H392.738V112.591H392.738ZM404.188 112.591H407.15V118.515H411.315V121.441H404.188V112.591Z" fill="black"/>
<path d="M392.268 146.97V152.79H399.445L398.768 160.338L392.268 162.091V168.146L404.216 164.839L404.303 163.855L405.673 148.532L405.815 146.97H404.244H392.268ZM392.268 135.188V141.009H406.346L406.462 139.701L406.728 136.75L406.868 135.188H392.268Z" fill="white"/>
<defs>
<linearGradient id="paint0_linear_119_159" x1="86.9119" y1="272.876" x2="86.9119" y2="297.119" gradientUnits="userSpaceOnUse">
<stop stop-color="#0052CC"/>
<stop offset="1" stop-color="#2684FF"/>
</linearGradient>
<linearGradient id="paint1_linear_119_159" x1="86.826" y1="272.876" x2="86.826" y2="297.119" gradientUnits="userSpaceOnUse">
<stop stop-color="#0052CC"/>
<stop offset="1" stop-color="#2684FF"/>
</linearGradient>
<clipPath id="clip0_119_159">
<rect width="71.2554" height="65.1169" fill="white" transform="translate(108.032 98.4154)"/>
</clipPath>
<clipPath id="clip1_119_159">
<rect width="98.0719" height="94.7155" fill="white" transform="translate(0 54.0175)"/>
</clipPath>
<clipPath id="clip2_119_159">
<rect width="59.7626" height="61.4171" fill="white" transform="translate(308.007 244.188)"/>
</clipPath>
</defs>
</svg>
