<svg width="128" height="128" viewBox="0 0 128 128" fill="none" xmlns="http://www.w3.org/2000/svg">
<path d="M90.7172 76.293C87.9872 76.118 86.4002 74.565 85.9802 71.66C85.8682 70.887 85.8682 70.867 85.8562 65.85L85.8452 60.994H88.2612L88.2702 65.691C88.2792 69.924 88.2842 70.421 88.3252 70.718C88.4892 71.927 88.8162 72.74 89.3742 73.323C89.8202 73.79 90.3422 74.063 91.0652 74.208C91.4052 74.277 92.3762 74.277 92.6872 74.208C93.3852 74.0659 94.025 73.7191 94.5252 73.212C95.1162 72.622 95.5532 71.785 95.7652 70.839L95.8352 70.52L95.8432 65.784L95.8512 61.046H98.3182V75.94H95.8772V74.758C95.8772 73.956 95.8682 73.58 95.8492 73.586C95.7938 73.6506 95.7471 73.7222 95.7102 73.799C95.2652 74.5896 94.6118 75.243 93.8212 75.688C92.9012 76.193 91.9782 76.373 90.7172 76.293ZM118.417 76.281C117.423 76.1983 116.462 75.8846 115.61 75.365C113.862 74.285 112.828 72.505 112.526 70.057C112.421 69.209 112.408 68.071 112.496 67.351C112.691 65.741 113.324 64.161 114.226 63.034C114.456 62.744 114.981 62.221 115.27 61.99C116.05 61.3677 116.962 60.9329 117.936 60.719C118.502 60.596 119.498 60.538 120.099 60.593C121.609 60.733 122.991 61.443 123.931 62.56C124.887 63.695 125.411 65.281 125.479 67.234C125.49 67.6316 125.492 68.0294 125.484 68.427L125.471 69.063L120.185 69.069L114.899 69.076V69.312C114.899 70.029 115.073 70.846 115.375 71.542C115.635 72.141 116.084 72.795 116.45 73.112C117.202 73.7615 118.14 74.1576 119.13 74.244C119.504 74.279 120.456 74.242 120.881 74.177C122.096 73.99 123.251 73.514 124.182 72.817C124.292 72.734 124.397 72.657 124.416 72.646C124.443 72.629 124.45 72.843 124.449 73.746V74.866L124.198 75.021C123.12 75.6805 121.912 76.0988 120.656 76.247C120.274 76.294 118.874 76.315 118.417 76.281ZM123.017 66.826C123.017 65.625 122.51 64.29 121.793 63.603C121.282 63.1126 120.628 62.7963 119.926 62.699C119.578 62.645 118.845 62.666 118.478 62.739C117.728 62.8818 117.039 63.2478 116.501 63.789C115.909 64.3755 115.461 65.0917 115.192 65.881C115.092 66.171 114.976 66.646 114.939 66.91L114.922 67.036H123.017V66.826ZM51.3122 75.906L55.3012 65.439L59.2792 55.005H61.8352L61.9412 55.275C62.2652 56.106 69.9042 75.917 69.9042 75.927C69.9042 75.934 69.2922 75.939 68.5442 75.939H67.1842L66.0842 73.011L64.9822 70.083H56.1162L56.0782 70.183C56.0572 70.237 55.5862 71.555 55.0322 73.11L54.0262 75.939H52.6632C51.5852 75.939 51.3032 75.933 51.3122 75.906ZM64.1732 67.849C64.1732 67.844 63.4332 65.838 62.5272 63.389C60.8332 58.811 60.7382 58.535 60.6042 57.8C60.5412 57.456 60.5092 57.446 60.4722 57.76C60.4194 58.1007 60.3425 58.4372 60.2422 58.767C60.1972 58.906 59.4342 60.997 58.5462 63.415C58.0032 64.8866 57.4648 66.3599 56.9312 67.835C56.9312 67.847 58.5612 67.857 60.5522 67.857C62.5442 67.857 64.1732 67.853 64.1732 67.849ZM70.7262 75.559V75.177L75.1432 69.112L79.5602 63.047L75.5602 63.034L71.5622 63.021L71.5552 62.007L71.5482 60.994H83.1162V61.678L78.6992 67.776C76.2692 71.13 74.2812 73.88 74.2812 73.886C74.2812 73.893 76.2452 73.899 78.6452 73.899H83.0102V75.939H70.7262V75.559ZM103.137 75.922C103.127 75.912 103.12 72.549 103.12 68.449V60.993H105.534V62.53C105.534 63.376 105.544 64.067 105.556 64.067C105.569 64.067 105.628 63.929 105.687 63.76C105.967 62.9717 106.429 62.2608 107.036 61.685C107.558 61.1789 108.225 60.8479 108.943 60.738C109.15 60.705 109.325 60.698 109.739 60.709C110.259 60.723 110.53 60.761 110.846 60.864L110.946 60.896V63.4L110.661 63.258C110.167 63.0077 109.614 62.8971 109.062 62.938C108.673 62.958 108.418 63.008 108.107 63.124C107.476 63.3568 106.941 63.7936 106.586 64.365C106.045 65.2479 105.701 66.237 105.576 67.265C105.556 67.442 105.545 68.887 105.54 71.734L105.533 75.941H104.344C103.69 75.941 103.147 75.932 103.137 75.922Z" fill="#0089D6"/>
<path d="M16.2553 44.5766H28.4552L15.7909 82.0996C15.6608 82.4853 15.413 82.8205 15.0824 83.0579C14.7518 83.2953 14.355 83.423 13.9479 83.4229H4.45376C4.14541 83.4228 3.84151 83.3494 3.56715 83.2087C3.29279 83.068 3.05585 82.864 2.8759 82.6136C2.69599 82.3632 2.57833 82.0735 2.53265 81.7685C2.48697 81.4636 2.51459 81.1522 2.61322 80.86L14.4124 45.8996C14.5425 45.514 14.7903 45.1788 15.1209 44.9414C15.4516 44.7039 15.8483 44.5761 16.2553 44.576V44.5766Z" fill="url(#paint0_linear_157_10)"/>
<path d="M33.9828 69.745H14.6378C14.4579 69.7446 14.282 69.7984 14.1332 69.8994C13.9843 70.0004 13.8693 70.144 13.8033 70.3113C13.7372 70.4786 13.7231 70.662 13.7628 70.8375C13.8025 71.013 13.8941 71.1724 14.0258 71.295L26.4568 82.898C26.819 83.2356 27.2957 83.4232 27.7908 83.423H38.7448L33.9828 69.745Z" fill="#0078D4"/>
<path d="M16.2555 44.5766C15.844 44.575 15.4428 44.7051 15.1105 44.9477C14.7782 45.1904 14.5322 45.5329 14.4084 45.9253L2.62806 80.8281C2.52289 81.1213 2.48988 81.4356 2.53183 81.7442C2.57377 82.0529 2.68943 82.3469 2.86903 82.6014C3.04863 82.8559 3.28688 83.0635 3.56363 83.2064C3.84039 83.3494 4.1475 83.4236 4.459 83.4228H14.1985C14.5612 83.358 14.9002 83.1981 15.1809 82.9594C15.4616 82.7207 15.6739 82.4118 15.7961 82.0641L18.1452 75.1407L26.5368 82.9673C26.8884 83.2582 27.3294 83.4191 27.7857 83.4228H38.6994L33.9127 69.7444L19.9594 69.7477L28.4994 44.5766H16.2555Z" fill="url(#paint1_linear_157_10)"/>
<path d="M31.8377 45.8978C31.7077 45.5127 31.4602 45.178 31.13 44.941C30.7998 44.704 30.4036 44.5766 29.9971 44.5767H16.4009C16.8073 44.5767 17.2034 44.7042 17.5335 44.9412C17.8637 45.1782 18.1111 45.5128 18.2411 45.8978L30.0406 80.8597C30.1394 81.1519 30.1672 81.4635 30.1216 81.7685C30.076 82.0736 29.9584 82.3634 29.7786 82.614C29.5987 82.8646 29.3617 83.0687 29.0873 83.2095C28.8129 83.3502 28.5088 83.4236 28.2004 83.4235H41.7972C42.1056 83.4233 42.4094 83.3497 42.6837 83.2089C42.9579 83.068 43.1947 82.8639 43.3745 82.6134C43.5543 82.3629 43.6719 82.0732 43.7175 81.7682C43.7632 81.4633 43.7357 81.1519 43.6372 80.8597L31.8377 45.8978Z" fill="url(#paint2_linear_157_10)"/>
<defs>
<linearGradient id="paint0_linear_157_10" x1="20.702" y1="47.4553" x2="8.03229" y2="84.8841" gradientUnits="userSpaceOnUse">
<stop stop-color="#114A8B"/>
<stop offset="1" stop-color="#0669BC"/>
</linearGradient>
<linearGradient id="paint1_linear_157_10" x1="24.6597" y1="64.8981" x2="21.7291" y2="65.8891" gradientUnits="userSpaceOnUse">
<stop stop-opacity="0.3"/>
<stop offset="0.071" stop-opacity="0.2"/>
<stop offset="0.321" stop-opacity="0.1"/>
<stop offset="0.623" stop-opacity="0.05"/>
<stop offset="1" stop-opacity="0"/>
</linearGradient>
<linearGradient id="paint2_linear_157_10" x1="23.0479" y1="46.3635" x2="36.9554" y2="83.4154" gradientUnits="userSpaceOnUse">
<stop stop-color="#3CCBF4"/>
<stop offset="1" stop-color="#2892DF"/>
</linearGradient>
</defs>
</svg>
