<svg width="128" height="128" viewBox="0 0 128 128" fill="none" xmlns="http://www.w3.org/2000/svg">
<path d="M76.3968 55.676C73.6598 55.676 71.6218 57.02 71.6218 60.255C71.6218 62.692 72.9648 64.384 76.2498 64.384C79.0338 64.384 80.9258 62.743 80.9258 60.154C80.9258 57.22 79.2328 55.676 76.3968 55.676ZM70.9258 78.516C70.2778 79.311 69.6318 80.156 69.6318 81.153C69.6318 83.142 72.1678 83.74 75.6528 83.74C78.5378 83.74 82.4688 83.538 82.4688 80.855C82.4688 79.26 80.5768 79.162 78.1878 79.012L70.9258 78.516ZM85.6508 55.826C86.5458 56.971 87.4928 58.563 87.4928 60.852C87.4928 66.374 83.1638 69.608 76.8958 69.608C75.3018 69.608 73.8588 69.41 72.9638 69.161L71.3218 71.798L76.1968 72.095C84.8048 72.644 89.8788 72.893 89.8788 79.508C89.8788 85.231 84.8548 88.463 76.1968 88.463C67.1908 88.463 63.7588 86.174 63.7588 82.245C63.7588 80.005 64.7548 78.814 66.4958 77.169C64.8528 76.475 64.3068 75.232 64.3068 73.888C64.3068 72.793 64.8538 71.798 65.7498 70.852C66.6458 69.908 67.6408 68.961 68.8338 67.867C66.3958 66.673 64.5558 64.086 64.5558 60.403C64.5558 54.682 68.3368 50.753 75.9488 50.753C78.0888 50.753 79.3838 50.95 80.5268 51.251H90.2298V55.479L85.6508 55.826ZM98.9828 46.786C96.1458 46.786 94.5038 45.143 94.5038 42.306C94.5038 39.473 96.1458 37.929 98.9828 37.929C101.869 37.929 103.51 39.472 103.51 42.306C103.511 45.143 101.869 46.786 98.9828 46.786ZM92.5628 76.686V72.757L95.1018 72.409C95.7978 72.309 95.8968 72.16 95.8968 71.412V56.785C95.8968 56.239 95.7488 55.889 95.2498 55.741L92.5628 54.795L93.1098 50.767H103.411V71.413C103.411 72.211 103.459 72.309 104.207 72.41L106.745 72.758V76.687L92.5628 76.686ZM126.42 74.756C124.279 75.799 121.146 76.746 118.308 76.746C112.388 76.746 110.15 74.36 110.15 68.735V55.7C110.15 55.403 110.15 55.203 109.751 55.203H106.269V50.775C110.649 50.276 112.389 48.087 112.936 42.664H117.664V49.731C117.664 50.078 117.664 50.229 118.062 50.229H125.077V55.204H117.664V67.094C117.664 70.029 118.361 71.173 121.047 71.173C122.442 71.173 123.883 70.826 125.077 70.378L126.42 74.756Z" fill="#31251C"/>
<path d="M52.7 61.7L29.951 38.952C29.3218 38.3231 28.4686 37.9697 27.579 37.9697C26.6894 37.9697 25.8361 38.3231 25.207 38.952L20.483 43.676L26.474 49.668C27.1785 49.4285 27.936 49.3911 28.6606 49.5601C29.3853 49.729 30.0481 50.0976 30.574 50.624C31.103 51.1535 31.4724 51.8211 31.6398 52.5506C31.8073 53.28 31.7661 54.0419 31.521 54.749L37.296 60.524C38.1495 60.2266 39.0788 60.228 39.9314 60.5279C40.7841 60.8278 41.5096 61.4085 41.989 62.1747C42.4684 62.941 42.6733 63.8474 42.5701 64.7453C42.4669 65.6433 42.0617 66.4795 41.421 67.117C40.7687 67.7706 39.91 68.1778 38.9912 68.2694C38.0724 68.3609 37.1502 68.1311 36.3818 67.619C35.6134 67.107 35.0463 66.3444 34.777 65.4612C34.5077 64.578 34.5529 63.6287 34.905 62.775L29.519 57.389L29.518 71.563C30.0865 71.8438 30.5799 72.256 30.9575 72.7654C31.335 73.2748 31.5858 73.8669 31.689 74.4925C31.7922 75.1181 31.7449 75.7593 31.551 76.363C31.3571 76.9667 31.0222 77.5155 30.574 77.964C30.1561 78.3818 29.6506 78.7016 29.0941 78.9004C28.5376 79.0992 27.9439 79.1719 27.3559 79.1134C26.7678 79.055 26.2001 78.8667 25.6936 78.5622C25.1872 78.2577 24.7546 77.8446 24.4272 77.3527C24.0997 76.8608 23.8855 76.3024 23.8 75.7176C23.7145 75.1329 23.7599 74.5365 23.9329 73.9714C24.1058 73.4064 24.402 72.8867 24.8001 72.45C25.1982 72.0133 25.6883 71.6704 26.235 71.446V57.141C25.7475 56.9414 25.3043 56.6471 24.9311 56.2753C24.5579 55.9034 24.262 55.4613 24.0605 54.9745C23.8591 54.4878 23.756 53.9659 23.7573 53.439C23.7586 52.9122 23.8642 52.3908 24.068 51.905L18.162 45.997L2.56299 61.595C2.25122 61.9067 2.00391 62.2767 1.83517 62.684C1.66644 63.0912 1.57959 63.5277 1.57959 63.9685C1.57959 64.4094 1.66644 64.8459 1.83517 65.2531C2.00391 65.6604 2.25122 66.0304 2.56299 66.342L25.312 89.09C25.9415 89.7191 26.795 90.0725 27.685 90.0725C28.5749 90.0725 29.4285 89.7191 30.058 89.09L52.7 66.446C53.0117 66.1345 53.259 65.7645 53.4277 65.3574C53.5965 64.9502 53.6833 64.5138 53.6833 64.073C53.6833 63.6323 53.5965 63.1959 53.4277 62.7887C53.259 62.3815 53.0117 62.0116 52.7 61.7Z" fill="#F34F29"/>
</svg>
