<svg width="128" height="128" viewBox="0 0 128 128" fill="none" xmlns="http://www.w3.org/2000/svg">
<path d="M109.757 49.765L104.617 33.945L94.4301 2.596C93.9071 0.981998 91.6251 0.981998 91.1001 2.596L80.9131 33.946H47.0871L36.9001 2.596C36.3761 0.981998 34.0941 0.981998 33.5701 2.596L23.3831 33.946L18.2431 49.766C18.0146 50.4693 18.0147 51.2268 18.2432 51.9301C18.4717 52.6334 18.9169 53.2463 19.5151 53.681L64.0001 86L108.485 53.68C109.083 53.2453 109.529 52.6324 109.757 51.9291C109.986 51.2258 109.986 50.4683 109.757 49.765Z" fill="#FC6D26"/>
<path d="M63.9999 86L80.9129 33.946H47.0869L63.9999 86Z" fill="#E24329"/>
<path d="M63.9998 86L47.0868 33.946H23.3828L63.9998 86Z" fill="#FC6D26"/>
<path d="M23.3829 33.946L18.2429 49.766C18.0146 50.4692 18.0148 51.2265 18.2432 51.9296C18.4717 52.6327 18.9169 53.2454 19.5149 53.68L63.9999 86L23.3829 33.946Z" fill="#FCA326"/>
<path d="M23.3828 33.946H47.0868L36.8998 2.59403C36.3758 0.981027 34.0938 0.981027 33.5698 2.59403L23.3828 33.946Z" fill="#E24329"/>
<path d="M64 86L80.913 33.946H104.617L64 86Z" fill="#FC6D26"/>
<path d="M104.617 33.946L109.757 49.766C109.985 50.4692 109.985 51.2265 109.757 51.9296C109.528 52.6327 109.083 53.2454 108.485 53.68L64 86L104.617 33.946Z" fill="#FCA326"/>
<path d="M104.617 33.946H80.9131L91.1001 2.59403C91.6241 0.981027 93.9061 0.981027 94.4301 2.59403L104.617 33.946Z" fill="#E24329"/>
<path d="M65.3872 93.983H60.8972L60.9122 127.388H79.0722V123.258H65.4002L65.3852 93.983H65.3872ZM96.3632 121.523C95.644 122.271 94.7802 122.864 93.8244 123.268C92.8686 123.671 91.8406 123.875 90.8032 123.869C87.3852 123.869 86.0082 122.185 86.0082 119.992C86.0082 116.677 88.3032 115.096 93.2002 115.096C94.1182 115.096 95.5972 115.198 96.3622 115.351V121.521L96.3632 121.523ZM91.7212 101.276C88.0972 101.276 84.7712 102.561 82.1782 104.699L83.7652 107.446C85.6012 106.376 87.8452 105.304 91.0592 105.304C94.7322 105.304 96.3642 107.191 96.3642 110.354V111.984C95.6502 111.832 94.1712 111.73 93.2542 111.73C85.3972 111.73 81.4192 114.485 81.4192 120.248C81.4192 125.398 84.5812 128 89.3762 128C92.6062 128 95.7012 126.52 96.7722 124.124L97.5892 127.388H100.752V110.303C100.752 104.897 98.4042 101.276 91.7212 101.276ZM115.234 124.022C113.551 124.022 112.071 123.818 110.949 123.308V107.856C112.479 106.581 114.366 105.663 116.763 105.663C121.099 105.663 122.783 108.723 122.783 113.67C122.783 120.707 120.08 124.022 115.234 124.022ZM117.119 101.276C113.107 101.276 110.949 104.006 110.949 104.006V99.696L110.934 93.983H106.548L106.562 126.573C108.755 127.49 111.765 128 115.029 128C123.393 128 127.423 122.645 127.423 113.414C127.423 106.121 123.7 101.276 117.119 101.276ZM16.5922 97.604C20.5722 97.604 23.1222 98.93 24.8042 100.256L26.7342 96.916C24.1042 94.61 20.5672 93.371 16.7942 93.371C7.25622 93.371 0.574219 99.186 0.574219 110.916C0.574219 123.205 7.78422 128 16.0302 128C20.1622 128 23.6822 127.03 25.9772 126.062L25.8832 112.93V108.8H13.6402V112.93H21.4452L21.5392 122.9C20.5192 123.41 18.7332 123.818 16.3352 123.818C9.70522 123.818 5.26522 119.648 5.26522 110.864C5.26722 101.939 9.85922 97.604 16.5922 97.604ZM48.1602 93.983H43.7732L43.7872 99.593V118.972C43.7872 124.379 46.1342 128 52.8172 128C53.7392 128 54.6422 127.916 55.5192 127.757V123.817C54.8441 123.92 54.1621 123.971 53.4792 123.971C49.8052 123.971 48.1732 122.085 48.1732 118.923V105.56H55.5182V101.888H48.1722L48.1582 93.983H48.1602ZM32.6422 127.388H37.0292V101.888H32.6402V127.388H32.6422ZM32.6422 98.37H37.0292V93.983H32.6402V98.369L32.6422 98.37Z" fill="#5C5C5C"/>
</svg>
