<svg width="128" height="128" viewBox="0 0 128 128" fill="none" xmlns="http://www.w3.org/2000/svg">
<path d="M30.762 77.9069H29.022V67.9439C29.022 67.1569 29.073 66.1989 29.166 65.0689H29.127C28.963 65.7299 28.814 66.2089 28.683 66.5049L23.622 77.9069H22.774L17.703 66.5879C17.561 66.2719 17.411 65.7629 17.26 65.0689H17.222C17.276 65.6629 17.306 66.6269 17.306 67.9639V77.9069H15.627V63.0699H17.923L22.475 73.4169C22.818 74.1959 23.04 74.7889 23.148 75.1929H23.219C23.517 74.3819 23.753 73.7729 23.93 73.3729L28.581 63.0699H30.76V77.9069H30.762ZM36.118 77.9069H34.426V67.3119H36.118V77.9069ZM36.41 63.5129C36.41 63.8259 36.3 64.0859 36.082 64.2999C35.9795 64.4045 35.8568 64.487 35.7212 64.5424C35.5857 64.5977 35.4403 64.6248 35.294 64.6219C34.991 64.6219 34.728 64.5179 34.512 64.3109C34.296 64.1029 34.19 63.8379 34.19 63.5119C34.19 63.2059 34.296 62.9449 34.512 62.7329C34.728 62.5209 34.991 62.4189 35.294 62.4189C35.604 62.4189 35.869 62.5219 36.082 62.7329C36.3 62.9459 36.41 63.2069 36.41 63.5129ZM46.691 77.4169C45.879 77.9159 44.91 78.1629 43.789 78.1629C42.269 78.1629 41.047 77.6589 40.113 76.6519C39.205 75.6739 38.749 74.4119 38.749 72.8659C38.749 71.1299 39.245 69.7249 40.246 68.6569C41.242 67.5879 42.58 67.0539 44.264 67.0539C45.184 67.0539 46.001 67.2339 46.716 67.5919V69.3329C45.925 68.7779 45.089 68.5019 44.191 68.5019C43.112 68.5019 42.234 68.8789 41.554 69.6299C40.845 70.3999 40.486 71.4279 40.486 72.7119C40.486 73.9439 40.814 74.9209 41.465 75.6409C42.118 76.3579 42.988 76.7169 44.086 76.7169C45.012 76.7169 45.88 76.4119 46.692 75.8059L46.691 77.4169ZM54.786 69.0309C54.487 68.8009 54.057 68.6899 53.49 68.6899C52.801 68.6899 52.221 68.9979 51.753 69.6199C51.221 70.3139 50.957 71.2759 50.957 72.5059V77.9069H49.26V67.3109H50.957V69.4959H50.998C51.247 68.7229 51.632 68.1279 52.146 67.7059C52.6026 67.329 53.1768 67.1238 53.769 67.1259C54.221 67.1259 54.556 67.175 54.785 67.271V69.0299L54.786 69.0309ZM64.237 72.6279C64.237 71.2719 63.931 70.2349 63.319 69.5249C62.725 68.8419 61.894 68.5009 60.824 68.5009C59.77 68.5009 58.924 68.8459 58.291 69.5369C57.623 70.2759 57.289 71.3179 57.289 72.6709C57.289 73.9389 57.606 74.9339 58.249 75.6439C58.887 76.3579 59.746 76.716 60.824 76.716C61.939 76.716 62.793 76.3519 63.378 75.6309C63.951 74.9229 64.237 73.9239 64.237 72.6279ZM65.976 72.5689C65.976 74.2569 65.499 75.6139 64.549 76.6299C63.595 77.6509 62.312 78.1609 60.697 78.1609C59.107 78.1609 57.841 77.6509 56.913 76.6299C56.003 75.6469 55.547 74.3469 55.547 72.7319C55.547 70.8879 56.063 69.4679 57.099 68.4589C58.057 67.5229 59.339 67.0519 60.945 67.0519C62.525 67.0519 63.759 67.545 64.649 68.521C65.531 69.501 65.976 70.8509 65.976 72.5689ZM74.387 75.0729C74.387 75.9409 74.064 76.6579 73.414 77.2319C72.705 77.8519 71.731 78.1619 70.506 78.1619C69.504 78.1619 68.625 77.9519 67.878 77.5239V75.6999C68.708 76.3749 69.626 76.7149 70.632 76.7149C71.975 76.7149 72.648 76.2199 72.648 75.2349C72.6537 75.0422 72.6167 74.8505 72.5398 74.6737C72.4629 74.4969 72.3479 74.3392 72.203 74.2119C71.905 73.9409 71.325 73.6179 70.464 73.2379C69.577 72.8499 68.944 72.4509 68.571 72.0379C68.123 71.5469 67.898 70.9089 67.898 70.1229C67.898 69.2439 68.25 68.5119 68.944 67.9289C69.641 67.3439 70.536 67.0519 71.635 67.0519C72.477 67.0519 73.231 67.216 73.901 67.549V69.2559C73.202 68.7519 72.403 68.5009 71.496 68.5009C70.934 68.5009 70.483 68.6409 70.147 68.9129C69.9847 69.039 69.8541 69.2012 69.7656 69.3866C69.677 69.572 69.633 69.7755 69.637 69.9809C69.637 70.4499 69.779 70.815 70.062 71.077C70.314 71.318 70.848 71.6129 71.653 71.9559C72.557 72.3349 73.211 72.7279 73.609 73.1299C74.126 73.6379 74.387 74.2859 74.387 75.0729ZM84.753 72.6279C84.753 71.2719 84.446 70.2349 83.833 69.5249C83.239 68.8419 82.407 68.5009 81.339 68.5009C80.284 68.5009 79.439 68.8459 78.803 69.5369C78.136 70.2759 77.803 71.3179 77.803 72.6709C77.803 73.9389 78.122 74.9339 78.757 75.6439C79.403 76.3579 80.263 76.716 81.339 76.716C82.456 76.716 83.307 76.3519 83.893 75.6309C84.465 74.9229 84.753 73.9239 84.753 72.6279ZM86.495 72.5689C86.495 74.2569 86.014 75.6139 85.062 76.6299C84.112 77.6509 82.829 78.1609 81.214 78.1609C79.622 78.1609 78.357 77.6509 77.428 76.6299C76.519 75.6469 76.062 74.3469 76.062 72.7319C76.062 70.8879 76.583 69.4679 77.613 68.4589C78.571 67.5229 79.854 67.0519 81.462 67.0519C83.043 67.0519 84.275 67.545 85.162 68.521C86.045 69.501 86.495 70.8509 86.495 72.5689ZM93.968 63.7109C93.6229 63.5227 93.235 63.4269 92.842 63.4329C91.654 63.4329 91.065 64.1799 91.065 65.6779V67.3109H93.548V68.7489H91.065V77.9069H89.367V68.7489H87.565V67.3109H89.367V65.5939C89.367 64.4279 89.724 63.5129 90.451 62.8539C91.073 62.2809 91.834 61.9969 92.74 61.9969C93.264 61.9969 93.672 62.0599 93.968 62.1809V63.7109ZM100.662 77.8009C100.262 78.0299 99.728 78.1439 99.069 78.1439C97.219 78.1439 96.295 77.1019 96.295 75.0159V68.7499H94.477V67.3109H96.295V64.7259C96.837 64.5549 97.4 64.3689 97.995 64.1759V67.3109H100.662V68.7499H97.995V74.7289C97.995 75.4389 98.111 75.9469 98.354 76.2419C98.599 76.5469 99 76.6959 99.565 76.6959C99.988 76.6959 100.353 76.5829 100.662 76.3539V77.8009ZM8.97798 119.262C8.97798 120.093 8.68298 120.81 8.08298 121.417C7.80339 121.71 7.46632 121.942 7.09291 122.098C6.71949 122.254 6.31779 122.332 5.91298 122.326C5.5162 122.332 5.12268 122.254 4.75807 122.097C4.39347 121.94 4.06599 121.709 3.79698 121.417C3.5167 121.133 3.29563 120.797 3.14661 120.427C2.9976 120.057 2.92362 119.661 2.92898 119.262C2.92898 118.408 3.21798 117.687 3.79698 117.091C4.06749 116.802 4.39556 116.573 4.76002 116.419C5.12449 116.264 5.51725 116.188 5.91298 116.195C6.76298 116.195 7.48698 116.496 8.08298 117.102C8.68298 117.709 8.97798 118.429 8.97798 119.262ZM46.953 121.702H41.421L21.342 90.6939C20.859 89.9208 20.4515 89.1031 20.125 88.2519H19.96C20.104 89.0829 20.176 90.8649 20.176 93.5949V121.702H15.617V82.799H21.535L41.013 113.319C41.788 114.53 42.319 115.398 42.588 115.92H42.696C42.516 114.801 42.422 112.893 42.422 110.2V82.7999H46.954L46.953 121.702ZM76.186 121.702H55.567V82.799H75.291V86.9219H60.123V99.8629H74.177V103.987H60.123V117.578H76.186V121.702ZM107.46 86.9219H96.254V121.703H91.696V86.9219H80.468V82.7969H107.46V86.9219Z" fill="black"/>
<path d="M45.4072 15.604C49.8062 29.056 51.4712 53.053 64.3352 53.053C65.3142 53.053 66.3042 52.958 67.2972 52.768C55.6042 50.041 54.2182 26.306 47.0832 14.014C46.5144 14.5332 45.9556 15.0633 45.4072 15.604Z" fill="url(#paint0_linear_157_58)"/>
<path d="M47.083 14.014C54.218 26.306 55.604 50.041 67.297 52.768C68.2355 52.5909 69.1589 52.3415 70.059 52.022C59.563 46.879 56.662 23.83 48.559 12.733C48.068 13.143 47.575 13.57 47.083 14.014Z" fill="url(#paint1_linear_157_58)"/>
<path d="M57.3638 6.70405C56.3868 6.70405 55.3948 6.80005 54.3998 6.98905C51.7968 7.48005 49.1528 8.60005 46.4868 10.297C47.243 11.052 47.9363 11.8674 48.5598 12.735C51.2708 10.486 53.9638 8.82405 56.6468 7.82405C57.6264 7.45809 58.6358 7.17771 59.6638 6.98605C58.912 6.7958 58.1393 6.70106 57.3638 6.70405Z" fill="#14559A"/>
<path d="M78.2511 47.282C79.3695 46.3886 80.4466 45.4446 81.4791 44.453C77.0091 31.064 75.4091 6.724 62.4561 6.724C61.5301 6.724 60.5951 6.81 59.6641 6.983C71.4621 9.917 72.9731 35.588 78.2511 47.282Z" fill="url(#paint2_linear_157_58)"/>
<path d="M59.6638 6.98394C58.9116 6.79447 58.1385 6.70007 57.3628 6.70294L62.4568 6.72194C61.5298 6.72194 60.5958 6.80794 59.6638 6.98394Z" fill="#3092C4"/>
<path d="M78.0261 50.126C77.5102 49.6274 77.0228 49.1003 76.5661 48.547C74.3871 50.09 72.2151 51.26 70.0591 52.022C70.8261 52.397 71.6311 52.675 72.4851 52.848C73.1653 52.9864 73.8579 53.055 74.5521 53.053C76.9731 53.053 78.8861 52.767 80.5151 51.985C79.6181 51.5 78.7951 50.873 78.0261 50.126Z" fill="#1969BC"/>
<path d="M56.646 7.82503C67.215 13.353 68.133 38.385 76.566 48.548C77.131 48.15 77.691 47.728 78.25 47.283C72.971 35.588 71.462 9.91503 59.665 6.98303C58.6363 7.17641 57.6263 7.45812 56.646 7.82503Z" fill="url(#paint3_linear_157_58)"/>
<path d="M48.5591 12.734C56.6621 23.831 59.5631 46.8799 70.0591 52.0229C72.2171 51.2609 74.3871 50.091 76.5661 48.548C68.1331 38.385 67.2141 13.353 56.6461 7.82495C53.9631 8.82295 51.2701 10.485 48.5591 12.734Z" fill="url(#paint4_linear_157_58)"/>
<path d="M40.2219 15.28C38.9509 18.152 37.6539 21.926 36.0859 26.854C39.2039 22.459 42.3139 18.673 45.4059 15.604C45.0156 14.3816 44.5562 13.1823 44.0299 12.012C42.7027 13.032 41.4315 14.1229 40.2219 15.28Z" fill="url(#paint5_linear_157_58)"/>
<path d="M45.1572 11.184C44.7842 11.451 44.4082 11.724 44.0322 12.012C44.5584 13.1822 45.0175 14.3815 45.4072 15.604C45.9569 15.0642 46.516 14.5341 47.0842 14.014C46.5142 13.0234 45.87 12.0773 45.1572 11.184Z" fill="#2B74B1"/>
<path d="M46.4858 10.296C46.0428 10.577 45.6018 10.873 45.1548 11.183C45.8689 12.0767 46.5135 13.0238 47.0828 14.016C47.5758 13.57 48.0678 13.141 48.5588 12.734C47.9355 11.8661 47.2422 11.0507 46.4858 10.296Z" fill="#125A9E"/>
<path d="M118.572 5.67995C112.595 28.7299 100.111 47.2449 89.645 51.9119H89.624L89.059 52.153L88.991 52.18L88.83 52.242L88.758 52.2719L88.497 52.3639L88.389 52.402L88.259 52.445L88.133 52.4889L88.021 52.526L87.798 52.594L87.703 52.6189L87.552 52.66L87.45 52.688L87.286 52.7299L87.085 52.7739C87.558 52.9489 88.051 53.0369 88.582 53.0369C98.506 53.0369 108.514 35.2509 125.071 5.67395H118.57L118.572 5.67995Z" fill="url(#paint6_linear_157_58)"/>
<path d="M33.9312 7.63999L33.9492 7.62299L33.9722 7.60799H33.9852L34.1462 7.54599L34.1782 7.52999L34.2192 7.51199L34.3922 7.44999H34.4012L34.7822 7.31699L34.8382 7.30199L35.0022 7.25299L35.0772 7.22899L35.2412 7.17999L35.3042 7.16399L35.8492 7.02199L35.9242 7.00499L36.0832 6.97399L36.1622 6.94999L36.3222 6.91999H36.3592L36.6912 6.85799H36.7572L36.9102 6.83199L36.9962 6.81599L37.1422 6.79399L37.2242 6.77899L37.5812 6.74699C37.2299 6.71264 36.8772 6.69462 36.5242 6.69299C25.3472 6.69299 9.94823 27.431 3.01123 54.287H4.34823C6.4218 50.5803 8.43441 46.8398 10.3852 43.067C15.2442 24.045 25.1392 11.071 33.9292 7.63399" fill="url(#paint7_linear_157_58)"/>
<path d="M40.2222 15.28C41.432 14.1232 42.7032 13.0323 44.0302 12.012C43.7603 11.4114 43.4575 10.8262 43.1232 10.259C42.1012 11.5 41.1672 13.136 40.2222 15.28ZM41.1412 7.797C41.8712 8.408 42.5242 9.251 43.1232 10.259C43.3055 10.0346 43.4983 9.81903 43.7012 9.613C42.8981 8.85464 41.988 8.2182 41.0002 7.724L41.1192 7.781L41.1412 7.797Z" fill="#0D82CA"/>
<path d="M10.3882 43.072C20.5792 23.432 25.4082 11.003 33.9322 7.63904C25.1432 11.078 15.2462 24.051 10.3882 43.072Z" fill="url(#paint8_linear_157_58)"/>
<path d="M43.7001 9.61401C43.5011 9.81701 43.3131 10.029 43.1221 10.26C43.4421 10.796 43.7401 11.379 44.0311 12.013C44.4071 11.724 44.7831 11.452 45.1561 11.184C44.7079 10.6274 44.2214 10.1028 43.7001 9.61401Z" fill="#127BCA"/>
<path d="M15.0152 54.2029L14.8302 54.2249H14.7952L14.6382 54.2409H14.6122L14.2382 54.2659H14.1992C24.5132 53.9769 29.2292 48.8129 31.5692 41.3219C33.3462 35.6439 34.8072 30.8599 36.0872 26.8459C31.7672 32.9269 27.4262 40.1759 23.0632 48.2969C20.9592 52.2109 17.7592 53.8459 15.0152 54.1949" fill="url(#paint9_linear_157_58)"/>
<path d="M15.0151 54.199C17.7591 53.849 20.9591 52.216 23.0631 48.3C27.4261 40.182 31.7691 32.931 36.0851 26.849C37.6561 21.92 38.9511 18.148 40.2231 15.276C31.6191 23.465 22.9831 37.082 15.0151 54.195" fill="url(#paint10_linear_157_58)"/>
<path d="M10.3881 43.072C8.43638 46.8447 6.42311 50.5852 4.34912 54.292H8.23812C8.72864 50.5129 9.44627 46.7668 10.3871 43.074" fill="#05A1E6"/>
<path d="M37.225 6.79098L37.142 6.80698L36.996 6.82798L36.911 6.84298L36.758 6.86998L36.692 6.88598L36.36 6.94398H36.323L36.161 6.97598L36.08 6.99698L35.923 7.02798L35.849 7.04598L35.303 7.18798L35.24 7.20698L35.075 7.25598L35 7.27498L34.837 7.32298L34.777 7.33898L34.398 7.47198L34.226 7.53198L34.154 7.56198L33.994 7.62198L33.941 7.64798C25.418 11.012 20.589 23.441 10.398 43.08C9.45608 46.7726 8.7381 50.5188 8.24805 54.298H8.79405L12.533 54.282H14.247L14.621 54.257H14.645L14.802 54.241H14.84L15.025 54.219C22.992 37.107 31.629 23.49 40.233 15.301C41.178 13.157 42.111 11.52 43.131 10.281C42.534 9.27298 41.881 8.42798 41.151 7.81598L41.13 7.79998L41.008 7.74098L40.888 7.67998L40.771 7.62298L40.633 7.56498L40.525 7.51798L40.299 7.42398L40.203 7.38698L40.035 7.31998L39.944 7.28998L39.71 7.20998H39.691L39.42 7.13298L39.359 7.11398L39.131 7.04998L39.078 7.03498C38.8909 6.98577 38.7017 6.9444 38.511 6.91098L38.452 6.89498L38.206 6.85498L38.158 6.83998L37.867 6.80198H37.816L37.592 6.77698L37.235 6.80998" fill="url(#paint11_linear_157_58)"/>
<path d="M95.2259 18.441C93.2649 24.722 91.6769 29.904 90.2949 34.168C95.6759 26.764 100.975 17.45 106.023 6.70105C100.134 8.55005 96.9939 12.782 95.2259 18.441Z" fill="url(#paint12_linear_157_58)"/>
<path d="M90.465 51.5201C90.191 51.6601 89.915 51.7921 89.645 51.9131C100.111 47.2451 112.596 28.7301 118.572 5.68005H117.361C103.628 30.2101 99.212 46.6321 90.465 51.5201Z" fill="url(#paint13_linear_157_58)"/>
<path d="M83.6311 49.459C85.9081 46.68 87.7631 41.955 90.2961 34.167C87.3751 38.179 84.4351 41.629 81.4921 44.441L81.4771 44.466C82.1191 46.389 82.8231 48.088 83.6261 49.458" fill="#079AE1"/>
<path d="M83.6312 49.459C82.8562 50.405 82.0352 51.125 81.1222 51.659C80.9222 51.776 80.7202 51.886 80.5142 51.985C81.4782 52.505 82.5302 52.853 83.7072 52.992L84.2292 53.038H84.2602L84.5112 53.054H85.3632L85.4592 53.038L85.6472 53.022H85.7382L85.9432 53H85.9582L86.0212 52.985L86.2392 52.951H86.3032L86.5482 52.91H86.5872L87.0762 52.806C85.7252 52.313 84.5952 51.146 83.6212 49.486" fill="#1969BC"/>
<path d="M64.335 53.053C65.314 53.053 66.303 52.957 67.296 52.766C68.215 52.599 69.136 52.344 70.058 52.022C71.4563 52.7078 72.9945 53.0607 74.552 53.053H64.335ZM74.552 53.053C76.971 53.053 78.886 52.766 80.514 51.985C81.504 52.5219 82.588 52.8637 83.707 52.992L84.229 53.037H84.26L84.511 53.053H84.812H74.552Z" fill="#1E5CB3"/>
<path d="M84.812 53.053H85.371L85.467 53.037L85.657 53.021H85.75L85.953 52.999H85.97L86.032 52.984L86.25 52.951L86.316 52.936L86.562 52.896H86.601L87.09 52.792C87.5696 52.9684 88.077 53.0575 88.588 53.055L84.815 53.071L84.812 53.053Z" fill="#1D60B5"/>
<path d="M81.4819 44.467V44.451C80.4497 45.4432 79.3725 46.3875 78.2539 47.281C77.6929 47.726 77.1339 48.1481 76.5679 48.5461C77.0249 49.0994 77.5127 49.6265 78.0289 50.125C78.7989 50.871 79.6199 51.4991 80.5169 51.9841C80.7219 51.8841 80.9249 51.7741 81.1239 51.6581C82.0389 51.1241 82.8579 50.404 83.6339 49.458C82.8309 48.088 82.1269 46.389 81.4859 44.466" fill="#175FAB"/>
<path d="M113.525 5.68005H107.429L106.463 5.72705L106.013 6.68905C100.967 17.4381 95.6671 26.7521 90.2861 34.1571C87.7561 41.9431 85.8991 46.6681 83.6221 49.4481C84.5951 51.1091 85.7281 52.2771 87.0741 52.7721L87.1801 52.7491H87.2021L87.2761 52.7321L87.4451 52.6901L87.5451 52.6611L87.6961 52.6211L87.7901 52.5951L88.0141 52.5271L88.1261 52.4901L88.2521 52.4441L88.3811 52.4031L88.4861 52.3631L88.7491 52.2711L88.8221 52.2441L88.9831 52.1811L89.0521 52.1561L89.6171 51.9151H89.6361C89.9071 51.7951 90.1821 51.6621 90.4551 51.5221C99.2051 46.6341 103.621 30.2121 117.353 5.68205H113.518L113.525 5.68005Z" fill="url(#paint14_linear_157_58)"/>
<path d="M37.583 6.75797L37.646 6.77397L37.805 6.79097H37.859L38.149 6.82797L38.199 6.84397L38.444 6.88497L38.505 6.89997L39.071 7.02497L39.122 7.04097L39.349 7.10497L39.412 7.12397L39.681 7.20097L39.701 7.21697L39.937 7.29797L40.027 7.32697L40.196 7.39597L40.292 7.42997L40.516 7.52397L40.626 7.57097L40.761 7.62997L40.881 7.68597L41 7.74797C41.9884 8.24227 42.8987 8.87906 43.702 9.63797C44.007 9.31597 44.327 9.02797 44.66 8.76797C42.845 7.47997 40.786 6.74597 38.414 6.74597C38.139 6.74597 37.865 6.76197 37.585 6.78297" fill="#7DCBEC"/>
<path d="M43.7002 9.61402C44.2082 10.087 44.6952 10.615 45.1562 11.184C45.6012 10.874 46.0432 10.576 46.4872 10.297C45.9227 9.72757 45.3101 9.20797 44.6562 8.74402C44.3157 9.00909 43.9961 9.29994 43.7002 9.61402Z" fill="#5EC5ED"/>
<path d="M37.3196 6.82421L38.1478 6.78878C40.5203 6.78878 42.5796 7.52087 44.3919 8.80811C46.3101 7.29875 48.6225 6.7686 51.8431 6.7686H36.2646L37.3196 6.82421Z" fill="url(#paint15_linear_157_58)"/>
<path d="M51.8428 6.76879C48.6272 6.76879 46.3098 7.29894 44.3916 8.80829C45.0276 9.25757 45.6388 9.77739 46.2193 10.3579C48.8846 8.66178 51.5297 7.54125 54.1345 7.04655C55.129 6.85977 56.1186 6.76386 57.0979 6.76386L51.8428 6.76879Z" fill="url(#paint16_linear_157_58)"/>
<path d="M90.2951 34.172C91.6791 29.905 93.2631 24.725 95.2281 18.442C96.9991 12.781 100.133 8.54801 106.02 6.70101L106.474 5.73901C96.8771 6.31401 92.3921 11.196 90.1351 18.426C86.1881 31.048 83.7961 39.229 81.4941 44.443C84.4341 41.631 87.3741 38.18 90.2951 34.172Z" fill="url(#paint17_linear_157_58)"/>
<defs>
<linearGradient id="paint0_linear_157_58" x1="56.59" y1="6.55163" x2="56.59" y2="64.6488" gradientUnits="userSpaceOnUse">
<stop stop-color="#0994DC"/>
<stop offset="0.35" stop-color="#66CEF5"/>
<stop offset="0.846" stop-color="#127BCA"/>
<stop offset="1" stop-color="#127BCA"/>
</linearGradient>
<linearGradient id="paint1_linear_157_58" x1="58.6383" y1="4.83033" x2="58.6383" y2="64.5617" gradientUnits="userSpaceOnUse">
<stop stop-color="#0E76BC"/>
<stop offset="0.36" stop-color="#36AEE8"/>
<stop offset="0.846" stop-color="#00ADEF"/>
<stop offset="1" stop-color="#00ADEF"/>
</linearGradient>
<linearGradient id="paint2_linear_157_58" x1="70.5517" y1="51.6084" x2="70.5517" y2="4.20332" gradientUnits="userSpaceOnUse">
<stop stop-color="#1C63B7"/>
<stop offset="0.5" stop-color="#33BDF2"/>
<stop offset="1" stop-color="#33BDF2" stop-opacity="0.42"/>
</linearGradient>
<linearGradient id="paint3_linear_157_58" x1="67.3604" y1="-1.21257" x2="67.3604" y2="60.8038" gradientUnits="userSpaceOnUse">
<stop stop-color="#166AB8"/>
<stop offset="0.4" stop-color="#36AEE8"/>
<stop offset="0.846" stop-color="#0798DD"/>
<stop offset="1" stop-color="#0798DD"/>
</linearGradient>
<linearGradient id="paint4_linear_157_58" x1="62.8504" y1="-0.781905" x2="62.8504" y2="65.1645" gradientUnits="userSpaceOnUse">
<stop stop-color="#124379"/>
<stop offset="0.39" stop-color="#1487CB"/>
<stop offset="0.78" stop-color="#165197"/>
<stop offset="1" stop-color="#165197"/>
</linearGradient>
<linearGradient id="paint5_linear_157_58" x1="35.5857" y1="18.6359" x2="44.9054" y2="18.6359" gradientUnits="userSpaceOnUse">
<stop stop-color="#33BDF2" stop-opacity="0.698"/>
<stop offset="1" stop-color="#1DACD8"/>
</linearGradient>
<linearGradient id="paint6_linear_157_58" x1="106.121" y1="50.4" x2="106.121" y2="4.10202" gradientUnits="userSpaceOnUse">
<stop stop-color="#136AB4"/>
<stop offset="0.6" stop-color="#59CAF5" stop-opacity="0.549"/>
<stop offset="1" stop-color="#59CAF5" stop-opacity="0.235"/>
</linearGradient>
<linearGradient id="paint7_linear_157_58" x1="2.51878" y1="29.696" x2="37.08" y2="29.696" gradientUnits="userSpaceOnUse">
<stop stop-color="#05A1E6" stop-opacity="0.247"/>
<stop offset="1" stop-color="#05A1E6"/>
</linearGradient>
<linearGradient id="paint8_linear_157_58" x1="22.3454" y1="51.6411" x2="22.3454" y2="4.35748" gradientUnits="userSpaceOnUse">
<stop stop-color="#318ED5"/>
<stop offset="1" stop-color="#38A7E4"/>
</linearGradient>
<linearGradient id="paint9_linear_157_58" x1="24.9925" y1="51.7902" x2="24.9925" y2="5.70929" gradientUnits="userSpaceOnUse">
<stop stop-color="#05A1E6"/>
<stop offset="1" stop-color="#05A1E6" stop-opacity="0.549"/>
</linearGradient>
<linearGradient id="paint10_linear_157_58" x1="27.7668" y1="54.2857" x2="27.7668" y2="15.3468" gradientUnits="userSpaceOnUse">
<stop stop-color="#1959A6"/>
<stop offset="0.5" stop-color="#05A1E6"/>
<stop offset="0.918" stop-color="#7EC5EA"/>
<stop offset="1" stop-color="#7EC5EA"/>
</linearGradient>
<linearGradient id="paint11_linear_157_58" x1="29.0359" y1="51.6552" x2="21.6104" y2="9.54302" gradientUnits="userSpaceOnUse">
<stop stop-color="#165096"/>
<stop offset="1" stop-color="#0D82CA"/>
</linearGradient>
<linearGradient id="paint12_linear_157_58" x1="97.9576" y1="27.7786" x2="97.9576" y2="5.7141" gradientUnits="userSpaceOnUse">
<stop stop-color="#05A1E6"/>
<stop offset="0.874" stop-color="#0495D6"/>
<stop offset="1" stop-color="#0495D6"/>
</linearGradient>
<linearGradient id="paint13_linear_157_58" x1="108.647" y1="3.8078" x2="99.6984" y2="54.5564" gradientUnits="userSpaceOnUse">
<stop stop-color="#38A7E4" stop-opacity="0.329"/>
<stop offset="0.962" stop-color="#0E88D3"/>
<stop offset="1" stop-color="#0E88D3"/>
</linearGradient>
<linearGradient id="paint14_linear_157_58" x1="100.238" y1="5.60074" x2="100.238" y2="53.6126" gradientUnits="userSpaceOnUse">
<stop stop-color="#168CD4"/>
<stop offset="0.5" stop-color="#1C87CC"/>
<stop offset="1" stop-color="#154B8D"/>
</linearGradient>
<linearGradient id="paint15_linear_157_58" x1="35.1366" y1="0.806448" x2="91.108" y2="24.0206" gradientUnits="userSpaceOnUse">
<stop stop-color="#97D6EE"/>
<stop offset="0.703" stop-color="#55C1EA"/>
<stop offset="1" stop-color="#55C1EA"/>
</linearGradient>
<linearGradient id="paint16_linear_157_58" x1="50.4457" y1="14.1426" x2="94.6525" y2="-5.89799" gradientUnits="userSpaceOnUse">
<stop stop-color="#7ACCEC"/>
<stop offset="1" stop-color="#3FB7ED"/>
</linearGradient>
<linearGradient id="paint17_linear_157_58" x1="93.7907" y1="8.14773" x2="93.7907" y2="55.2292" gradientUnits="userSpaceOnUse">
<stop stop-color="#1DA7E7"/>
<stop offset="1" stop-color="#37ABE7" stop-opacity="0"/>
</linearGradient>
</defs>
</svg>
