<svg width="128" height="128" viewBox="0 0 128 128" fill="none" xmlns="http://www.w3.org/2000/svg">
<path d="M75.3902 15.3101C75.1902 15.3701 74.1402 15.7201 73.0302 16.0801C67.0902 18.0201 62.8802 20.2701 61.8402 22.0601C61.4402 22.7401 61.3702 23.3001 61.6002 23.8501C61.8602 24.4701 62.3402 24.9501 63.6602 25.8801C64.2802 26.3201 65.3302 27.2201 66.0202 27.9001C69.2902 31.1601 70.8702 35.1601 70.6902 39.6801C70.4902 44.7701 68.1002 49.8601 63.5402 54.9401C61.9502 56.7201 60.3102 58.2001 57.1802 60.7101C54.5702 62.8001 53.1502 64.1601 52.1802 65.4701C49.2102 69.5101 50.0102 73.1101 54.5302 76.1201C58.5202 78.7801 65.5502 80.9901 73.8502 82.1901C76.6302 82.5901 79.7702 82.8501 80.5302 82.7401L81.0602 82.6601L81.8902 81.1601C86.1002 73.5901 88.2202 66.4401 88.4802 59.0501C88.5902 55.7501 88.1802 51.8501 87.4702 49.5701C87.3402 49.1601 87.2502 48.8101 87.2602 48.8001C87.2702 48.7901 88.4502 48.4301 89.8702 48.0101C97.3602 45.7801 104.61 44.0201 110.6 42.9801C111.77 42.7801 112.76 42.5701 112.81 42.5201C113.13 42.2101 112.2 40.7501 110.68 39.1901C105.08 33.4101 95.1802 29.0101 83.5602 27.1301C81.3202 26.7701 81.0502 26.6401 80.2202 25.5401C78.9002 23.7901 77.6602 20.8101 75.9702 15.3401C75.9202 15.1601 75.8702 15.1601 75.3902 15.3101ZM76.1602 17.3701C76.8102 19.1501 77.2102 20.5401 77.2102 21.0301V21.4201L76.6602 21.3601C73.6702 21.0101 68.8902 20.2701 67.8702 20.0001C67.6102 19.9301 67.4602 19.8301 67.5102 19.7501C67.5902 19.6301 68.6002 19.1401 71.6202 17.7701C74.4302 16.4901 75.5002 16.0201 75.5902 16.0101C75.6302 16.0001 75.8802 16.6201 76.1602 17.3701ZM69.8302 21.1201C73.4802 21.8901 76.1502 22.3701 76.7302 22.3701C77.3002 22.3701 77.2402 22.4201 74.5502 24.0601C72.4802 25.3201 72.2402 25.4401 71.7202 25.4401H71.1502L69.6102 23.8901C67.7502 22.0101 66.4902 20.6301 66.4902 20.4701C66.4902 20.4101 66.5302 20.3901 66.5802 20.4201C66.6302 20.4301 68.1002 20.7501 69.8302 21.1201ZM67.1302 22.8501C68.0302 23.9001 68.7202 24.7801 68.6802 24.8101C68.6002 24.8801 66.0402 24.2501 64.4802 23.7701C63.1102 23.3501 62.9502 23.2101 63.3102 22.7401C63.5502 22.4301 65.3102 20.9601 65.4402 20.9501C65.4802 20.9501 66.2302 21.8001 67.1302 22.8501ZM78.7902 25.0101C79.1502 25.8601 79.4202 26.5501 79.4102 26.5601C79.3902 26.5701 74.5902 25.8301 74.1702 25.7501C74.0802 25.7301 74.8902 25.1801 75.9902 24.5101C77.0902 23.8401 78.0102 23.3401 78.0602 23.3901C78.1102 23.4401 78.4302 24.1601 78.7902 25.0101ZM68.3202 26.6301C68.4102 26.7201 69.5602 30.4101 69.5102 30.4601C69.4902 30.4801 68.9502 29.8501 68.3002 29.0501C67.6502 28.2501 66.6702 27.1201 66.1002 26.5401L65.0802 25.4701L66.6602 26.0201C67.5402 26.3101 68.2802 26.5901 68.3202 26.6301ZM72.9102 27.1201C74.9002 27.4001 76.5502 27.6601 76.5802 27.6901C76.6102 27.7201 75.4002 28.6601 73.9102 29.7701C72.4102 30.8801 71.1802 31.7801 71.1602 31.7601C71.1402 31.7401 70.9902 31.2801 70.8202 30.7201C70.6502 30.1701 70.2302 29.0201 69.8802 28.1601C69.5302 27.3001 69.2502 26.6001 69.2702 26.6001C69.2802 26.6001 70.9202 26.8401 72.9102 27.1201ZM77.9102 28.7101C78.3502 29.7401 78.5202 30.7201 78.5902 32.6901C78.6302 33.7501 78.6302 34.6101 78.6002 34.6101C78.5602 34.6101 77.9302 34.3901 77.2002 34.1301C75.7402 33.6001 72.8802 32.6601 72.5402 32.5901C72.3902 32.5601 73.0802 31.9001 74.9002 30.3401C76.3102 29.1201 77.5102 28.1301 77.5702 28.1301C77.6202 28.1301 77.7702 28.3901 77.9102 28.7101ZM83.0402 28.9601C85.2402 29.4101 87.1702 29.8101 87.3202 29.8501C87.5402 29.9001 87.0102 30.2301 84.6802 31.5101C83.0802 32.3901 81.2602 33.3901 80.6402 33.7401C80.0202 34.0901 79.5002 34.3601 79.4902 34.3501C79.4802 34.3401 79.5402 34.0101 79.6302 33.6201C79.9602 32.1901 79.7502 30.4101 79.0902 28.9901C78.9002 28.5801 78.7402 28.2101 78.7402 28.1901C78.7502 28.0801 79.1502 28.1601 83.0402 28.9601ZM89.0502 31.6501C88.9402 32.1501 88.6902 33.0001 88.5002 33.5501C88.0802 34.7601 86.5402 37.9101 86.3302 37.9901C86.2502 38.0201 85.5202 37.6901 84.7302 37.2501C83.9402 36.8101 82.7902 36.2301 82.1902 35.9601L81.0902 35.4701L85.1202 32.8801C88.4602 30.7401 89.1602 30.3301 89.2002 30.5201C89.2302 30.6501 89.1602 31.1501 89.0502 31.6501ZM92.0002 30.7301C96.1802 31.9301 100.6 33.5501 100.34 33.7901C100.29 33.8401 99.7402 34.0201 99.1302 34.1901C95.9702 35.0801 91.5802 36.6001 89.5302 37.5101C88.8902 37.7901 88.3402 38.0001 88.3102 37.9601C88.2802 37.9301 88.5302 37.0101 88.8702 35.9101C89.5302 33.7501 90.3002 30.8401 90.3002 30.4701C90.3002 30.3101 90.3602 30.2501 90.5102 30.2901C90.6102 30.3301 91.2802 30.5301 92.0002 30.7301ZM74.0102 35.0701C74.9602 35.3801 76.0802 35.8101 76.4902 36.0201C77.2302 36.3901 77.2402 36.4001 77.0302 36.6301C76.6502 37.0501 72.5002 40.9201 72.3802 40.9601C72.3202 40.9801 72.2702 40.4001 72.2702 39.5501C72.2702 38.0801 72.1002 35.4201 71.9702 34.8301C71.8702 34.3801 71.9502 34.3901 74.0102 35.0701ZM100.57 35.8401C99.6602 37.3501 98.1502 39.5001 97.0702 40.8601C95.9602 42.2501 93.6102 44.8601 93.4702 44.8601C93.4202 44.8601 93.0802 44.4401 92.7102 43.9201C91.3702 42.0101 89.8202 40.3601 88.4602 39.4001C88.3302 39.3101 88.2502 39.2101 88.2802 39.1801C88.3102 39.1501 90.5402 38.3301 93.2302 37.3501C98.6702 35.3801 101.07 34.5801 101.22 34.6801C101.24 34.6901 100.95 35.2101 100.57 35.8401ZM103.97 35.5801C107.73 38.2001 110.28 40.3201 111.2 41.5901C111.43 41.9101 111.6 42.1801 111.58 42.2001C111.56 42.2201 110.35 42.3501 108.89 42.5001C103.06 43.0701 98.9102 43.6601 96.7102 44.2201C96.1202 44.3701 95.6302 44.4801 95.6202 44.4701C95.6102 44.4601 96.0002 43.9801 96.4902 43.3901C99.0302 40.3401 101.33 37.1701 102.18 35.5201C102.41 35.0801 102.63 34.7301 102.67 34.7301C102.72 34.7301 103.3 35.1101 103.97 35.5801ZM82.9302 38.8301C83.6502 39.2201 84.2002 39.5701 84.1702 39.6301C84.1102 39.7401 77.7802 43.2101 77.7202 43.1601C77.7102 43.1501 78.0302 42.1101 78.4502 40.8401C78.8702 39.5701 79.2702 38.1901 79.3502 37.7701L79.4902 37.0001L80.5602 37.5701C81.1502 37.8801 82.2102 38.4401 82.9302 38.8301ZM77.6202 39.0301C77.0102 41.1501 75.7702 43.8901 75.2002 44.3601C75.0702 44.4701 74.8102 44.3201 73.9802 43.6401C73.3902 43.1701 72.7902 42.7001 72.6302 42.5901C72.4802 42.4801 72.3602 42.3701 72.3902 42.3401C72.8302 41.9101 77.8702 37.8401 77.9002 37.9001C77.9102 37.9401 77.7902 38.4501 77.6202 39.0301ZM89.1002 42.7201C90.0502 43.3601 92.1702 45.2501 92.0602 45.3701C92.0302 45.4001 89.8802 46.1001 87.2902 46.9201C84.7002 47.7401 81.8102 48.6701 80.8702 48.9801C79.9302 49.3001 79.1502 49.5401 79.1402 49.5301C79.1302 49.5201 79.7902 48.7701 80.6002 47.8601C82.7202 45.4901 84.9002 42.9601 85.6802 41.9601L86.3502 41.1001L87.2202 41.5701C87.6902 41.8301 88.5402 42.3501 89.1002 42.7201ZM84.1902 41.3601C84.1302 41.4401 83.5602 42.1601 82.9202 42.9701C82.2802 43.7801 80.7402 45.7501 79.5002 47.3501L77.2402 50.2601L77.1702 49.7701C77.0302 48.8201 76.5202 46.9501 76.2302 46.3201L75.9402 45.6801L77.3802 44.9601C78.8602 44.2201 81.9602 42.5401 83.4102 41.6901C84.3002 41.1701 84.3602 41.1401 84.1902 41.3601ZM72.1902 44.8801C72.7802 45.1801 73.3302 45.5801 73.3302 45.7001C73.3302 45.8901 69.5002 48.8501 69.3902 48.7401C69.3702 48.7101 69.7102 48.0301 70.1602 47.2201C70.6102 46.4101 71.0602 45.5001 71.1702 45.1901C71.2802 44.8801 71.4402 44.6301 71.5302 44.6301C71.6202 44.6201 71.9102 44.7401 72.1902 44.8801ZM75.4502 48.5201C75.7102 49.0401 75.9902 50.4901 75.8502 50.6201C75.7902 50.6701 74.2102 51.4201 72.3302 52.2901C70.4502 53.1501 68.0002 54.3101 66.8802 54.8701C65.7602 55.4301 64.9102 55.8201 65.0002 55.7501C65.0802 55.6801 66.3102 54.6401 67.7402 53.4601C70.5002 51.1701 73.6402 48.4301 74.2102 47.8201L74.5602 47.4501L74.9002 47.7701C75.0802 47.9501 75.3302 48.2901 75.4502 48.5201ZM72.3602 48.4901C72.0902 48.7401 70.6102 50.0201 69.0902 51.3401C67.5702 52.6601 65.7402 54.2501 65.0302 54.8701C63.5902 56.1201 63.5902 56.1201 65.4302 53.7301C66.8502 51.8801 67.5902 51.1901 69.6302 49.8201C70.6202 49.1601 72.5902 48.0401 72.7902 48.0401C72.8202 48.0401 72.6302 48.2401 72.3602 48.4901ZM86.6302 49.7501C86.7002 50.1401 86.8002 51.3501 86.8402 52.4301L86.9102 54.4001L86.4502 54.1901C84.8702 53.4601 80.4302 50.9601 80.6002 50.8901C81.5702 50.5001 86.3602 48.9101 86.4202 48.9701C86.4602 49.0101 86.5602 49.3601 86.6302 49.7501ZM82.8702 53.2801C84.7202 54.3701 86.2502 55.2701 86.2702 55.2901C86.2902 55.3101 86.0502 55.5101 85.7502 55.7301C85.1602 56.1601 78.9002 59.4001 78.8102 59.3201C78.7802 59.2901 78.8702 58.7501 79.0002 58.1301C79.2602 56.8701 79.4802 53.1101 79.3802 51.9201C79.3402 51.5001 79.3602 51.2001 79.4202 51.2401C79.4602 51.2701 81.0202 52.1901 82.8702 53.2801ZM77.7602 52.4801C77.9002 53.6501 77.7302 56.0001 77.4102 57.2301C77.0402 58.6701 76.8202 59.2701 76.6602 59.3201C76.4402 59.3901 75.0702 58.1501 74.2402 57.1101C73.4002 56.0601 72.2902 54.0901 72.4602 53.9301C72.5602 53.8301 77.4402 51.8201 77.6002 51.8201C77.6402 51.8101 77.7102 52.1101 77.7602 52.4801ZM71.7702 55.4201C72.2902 56.4901 73.4702 58.0301 74.7602 59.3401C75.5902 60.1801 75.8002 60.4501 75.6702 60.5401C75.0902 60.9301 72.4902 62.1501 70.8502 62.7901C68.8602 63.5701 66.2702 64.4701 66.2102 64.3901C66.1902 64.3601 66.7802 63.2801 67.5302 61.9901C69.1502 59.1801 71.2002 55.1901 71.2002 54.8601C71.2102 54.4501 71.3802 54.6201 71.7702 55.4201ZM68.7002 55.4901C68.6702 55.5701 68.4202 56.1901 68.1502 56.8701C67.0002 59.7901 64.7602 63.7601 64.2602 63.7601C63.8702 63.7601 63.3002 61.4501 63.1402 59.2301L63.0602 58.1101L65.8002 56.7301C67.3102 55.9701 68.5902 55.3501 68.6502 55.3501C68.7102 55.3401 68.7302 55.4101 68.7002 55.4901ZM86.9902 58.1901C87.0002 59.8701 86.3002 63.9401 85.9202 64.3501C85.7602 64.5201 84.0302 63.8801 82.4602 63.0701C81.0602 62.3501 78.7502 60.9201 78.7502 60.7701C78.7502 60.7301 79.1002 60.5501 79.5402 60.3701C80.3702 60.0201 84.2402 57.9501 85.8802 56.9801L86.8202 56.4201L86.9002 56.8501C86.9402 57.0901 86.9802 57.7001 86.9902 58.1901ZM61.1802 60.1301C61.3402 61.4601 61.7502 63.0901 62.2602 64.3801C62.4702 64.9101 62.6202 65.3701 62.5902 65.3901C62.3902 65.5701 54.1602 67.8401 53.0702 68.0101L52.5502 68.0901L52.6302 67.6901C52.7402 67.1201 53.5402 65.5001 54.1302 64.6201C54.8702 63.5301 56.6902 61.7001 57.8902 60.8501C58.7902 60.2201 60.9502 58.9501 61.0102 59.0301C61.0502 59.0401 61.1102 59.5301 61.1802 60.1301ZM79.8502 62.9401C82.3902 64.1601 83.3502 64.5801 84.5702 65.0001L85.5002 65.3201L84.9102 65.6201C81.5802 67.3101 75.6802 69.7101 74.1602 70.0101C73.8202 70.0801 73.7702 70.0601 73.8402 69.8901C74.1002 69.2101 77.6202 61.9401 77.6902 61.9401C77.7302 61.9401 78.7102 62.3901 79.8502 62.9401ZM75.3802 62.6701C75.2002 63.5301 74.2302 66.3001 73.6702 67.5601C73.1802 68.6601 72.0502 70.7901 71.8502 70.9901C71.7602 71.0801 69.7502 69.9501 68.8002 69.2701C67.7302 68.5101 65.3902 66.2501 65.4602 66.0401C65.4902 65.9601 66.9102 65.4101 68.6302 64.8201C72.2502 63.5701 74.2702 62.8201 74.8602 62.5101C75.4202 62.2101 75.4702 62.2301 75.3802 62.6701ZM85.5002 66.4901C85.4702 66.7401 85.2602 67.8301 85.0402 68.9401C84.3502 72.4001 83.5102 74.7701 82.9802 74.7701C82.2402 74.7701 77.2002 73.5501 75.5702 72.9701C74.4602 72.5801 73.5102 72.1301 73.1902 71.8601C72.9902 71.6901 73.1002 71.6301 74.5402 71.0401C79.2002 69.1401 84.5802 66.7101 85.1602 66.2501C85.5102 65.9701 85.5602 66.0101 85.5002 66.4901ZM61.9002 67.5501C61.3702 68.5001 60.2902 70.0601 58.2202 72.8501L56.4602 75.2301L55.9302 74.8501C55.1902 74.3201 54.0102 73.0401 53.5202 72.2301C52.9902 71.3601 52.6302 70.2801 52.5902 69.4601L52.5602 68.8201L53.4302 68.7301C54.6102 68.6101 57.9202 67.9301 60.2702 67.3101C61.3402 67.0301 62.2302 66.8201 62.2502 66.8301C62.2602 66.8601 62.1102 67.1801 61.9002 67.5501ZM67.0302 70.0001C67.6202 70.4201 68.4302 70.9601 68.8402 71.2001L69.5902 71.6401L69.2502 71.7801C69.0602 71.8601 66.3202 72.8601 63.1502 74.0001C57.7402 75.9501 57.3902 76.0701 57.2402 75.8701C57.1502 75.7501 57.0902 75.6301 57.1002 75.5901C57.1102 75.5501 58.5702 73.6601 60.3502 71.3901L63.5802 67.2601L64.7702 68.2501C65.4402 68.8001 66.4402 69.5801 67.0302 70.0001ZM68.3602 76.2101C67.1802 77.9801 66.1802 79.4701 66.1402 79.5101C66.0502 79.6301 64.1602 79.1901 62.7502 78.7101C61.2702 78.2101 59.4402 77.2901 58.7202 76.6701L58.2002 76.2201L59.3702 75.9001C64.1402 74.6001 70.4502 72.9301 70.4802 72.9501C70.5002 72.9701 69.5402 74.4401 68.3602 76.2101ZM74.0302 73.5301C76.5602 74.4001 78.8602 74.8901 81.8502 75.2101L82.6702 75.3001L80.4402 76.1001C74.8802 78.1101 70.3702 79.5201 68.1102 79.9601C67.4702 80.0801 66.8902 80.1901 66.8302 80.1901C66.7702 80.1901 67.2202 79.5701 67.8402 78.8101C69.5402 76.7401 71.3802 74.3801 71.8702 73.6501C72.1102 73.3001 72.3502 73.0001 72.4002 73.0001C72.4602 73.0101 73.1902 73.2401 74.0302 73.5301ZM82.3202 78.2101C81.3602 80.6801 80.6602 82.1901 80.4202 82.2801C79.9502 82.4601 73.3802 81.5001 71.3702 80.9501C70.0402 80.5901 69.1902 80.2401 69.4402 80.1501C69.5402 80.1201 70.4902 79.8901 71.5602 79.6501C75.0302 78.8701 80.3302 77.2601 82.5302 76.3201C82.8102 76.2001 83.0602 76.1101 83.0802 76.1301C83.1002 76.1501 82.7602 77.0801 82.3202 78.2101ZM43.4702 80.3001C43.0002 80.5001 42.7802 80.8901 42.7302 81.6201C42.6802 82.3001 42.6802 82.3101 42.3402 82.3101C42.0002 82.3101 41.9902 82.3301 42.0302 82.8101C42.0602 83.2601 42.1002 83.3101 42.3902 83.3501L42.7102 83.3901V87.0501L43.2602 87.0001L43.8202 86.9601L43.8602 85.1601L43.9002 83.3601H45.5402V84.6801C45.5402 86.3201 45.7102 86.7501 46.4202 86.9901C46.7402 87.1001 47.0402 87.1201 47.3602 87.0501C47.8102 86.9601 47.8302 86.9301 47.8702 86.4501L47.9102 85.9401L47.5202 86.0101C46.8402 86.1301 46.8002 86.0501 46.8202 84.3901L46.8302 83.3701H47.1702C47.7602 83.3701 47.8902 83.2601 47.8902 82.7701V82.3101H46.8302V81.8701C46.8302 81.2201 46.7202 81.1101 46.1102 81.1501L45.5902 81.1801L45.5502 81.7401L45.5102 82.3001H43.8802V81.9001C43.8802 81.3501 44.1702 81.0801 44.6702 81.1801C45.0502 81.2501 45.0602 81.2501 45.0602 80.8601C45.0602 80.6501 44.9902 80.4001 44.9202 80.3201C44.7602 80.1801 43.8202 80.1601 43.4702 80.3001ZM17.4102 80.4901C16.9002 80.8501 17.1502 81.6001 17.7902 81.6001C18.4502 81.6001 18.5702 81.5101 18.5702 81.0001C18.5602 80.3501 17.9802 80.0901 17.4102 80.4901ZM8.75019 80.8101C8.57019 80.9401 8.55019 81.2401 8.58019 83.9601L8.61019 86.9601L9.17019 87.0001L9.73019 87.0401V84.4301C9.73019 82.9901 9.76019 81.8401 9.79019 81.8701C9.83019 81.9001 10.1702 82.8501 10.5602 83.9801C10.9502 85.1101 11.3502 86.2601 11.4502 86.5401L11.6402 87.0501L12.2302 87.0001L12.8202 86.9601L13.7202 84.4601L14.6202 81.9601L14.6802 84.4601C14.7202 85.8401 14.7602 86.9801 14.7702 87.0001C14.7802 87.0201 15.0502 87.0201 15.3502 87.0001L15.9102 86.9601L15.9402 83.9701C15.9602 81.8601 15.9302 80.9301 15.8302 80.8101C15.6202 80.5501 14.2902 80.6001 14.0502 80.8701C13.9502 80.9901 13.5302 81.9601 13.1302 83.0201C12.7302 84.08 12.3702 84.9901 12.3302 85.0401C12.2902 85.0901 11.9402 84.2401 11.5502 83.1601C11.1602 82.0601 10.7302 81.0801 10.5802 80.9301C10.3702 80.7201 10.1902 80.6601 9.63019 80.6601C9.26019 80.6601 8.86019 80.7301 8.75019 80.8101ZM20.8702 82.3101C20.0102 82.5901 19.5002 83.4801 19.5002 84.7301C19.5002 86.1301 20.0302 86.8901 21.1502 87.0801C21.6602 87.1701 22.5302 86.9701 22.8302 86.7001C23.0302 86.5201 23.1202 85.8501 22.9602 85.7001C22.9202 85.6601 22.7002 85.7301 22.4702 85.8601C21.6202 86.3201 20.9902 86.0601 20.7902 85.1701C20.6602 84.5801 20.8002 83.8201 21.1102 83.4901C21.3602 83.2201 21.9802 83.2001 22.4602 83.4501C22.9102 83.6801 23.0402 83.6001 23.0402 83.0801C23.0402 82.7901 22.9702 82.6301 22.7602 82.5001C22.4002 82.2501 21.3402 82.1601 20.8702 82.3101ZM25.4602 82.5501C25.0502 82.9101 25.0502 82.9101 25.0102 82.6401C24.9802 82.4101 24.9002 82.3601 24.4702 82.3301L23.9702 82.2901V87.0101H25.1502V85.5501C25.1502 84.0901 25.1502 84.0901 25.5002 83.7101C25.7902 83.4001 25.9202 83.3401 26.2702 83.3801C26.7102 83.4301 26.8002 83.3301 26.8002 82.7801C26.8002 82.1001 26.1202 81.9801 25.4602 82.5501ZM28.7202 82.3301C27.7702 82.6101 27.1902 83.7201 27.3102 85.0301C27.4202 86.2401 28.0402 86.93 29.1602 87.09C31.1402 87.36 32.4302 85.7401 31.8702 83.7001C31.5302 82.5001 30.1702 81.9001 28.7202 82.3301ZM30.1002 83.2501C30.7202 83.5801 30.8802 85.0201 30.3702 85.7001C30.0502 86.1201 29.3402 86.2001 28.9102 85.8601C28.6502 85.6501 28.6302 85.5501 28.6302 84.6701C28.6302 83.7601 28.6502 83.6901 28.9602 83.4201C29.3002 83.1201 29.7402 83.0601 30.1002 83.2501ZM33.5802 82.3601C32.9802 82.6201 32.7602 82.9701 32.7602 83.6201C32.7602 84.3201 32.9802 84.5801 34.0302 85.0801C34.6302 85.3701 34.7602 85.4801 34.7602 85.7301C34.7602 85.9401 34.6702 86.0601 34.4302 86.1401C34.1302 86.2401 33.8502 86.1901 32.9002 85.8901C32.7202 85.8301 32.6902 85.8801 32.7202 86.2801C32.7502 86.6601 32.8202 86.7701 33.1102 86.9101C33.6002 87.1501 34.7802 87.1301 35.2702 86.8701C35.9802 86.4901 36.2002 85.3401 35.6802 84.7601C35.5602 84.6301 35.1302 84.3601 34.7002 84.1601C33.9202 83.7901 33.7302 83.5201 34.0002 83.2001C34.1802 82.9901 34.7102 82.9901 35.2402 83.2101C35.5902 83.3601 35.6602 83.3601 35.7202 83.2201C35.8402 82.9001 35.7002 82.5201 35.4102 82.3701C35.0202 82.1601 34.0202 82.1601 33.5802 82.3601ZM38.3502 82.2801C37.3102 82.6501 36.8402 83.2801 36.7402 84.4001C36.6202 85.7801 37.1202 86.6601 38.2002 86.9801C40.0102 87.5101 41.4202 86.46 41.4102 84.59C41.4002 83.46 40.8902 82.6301 40.0102 82.3301C39.6002 82.1901 38.6702 82.1601 38.3502 82.2801ZM39.7202 83.4201C40.0302 83.6801 40.0502 83.76 40.0502 84.59C40.0502 85.37 40.0202 85.5101 39.7602 85.7801C39.3902 86.1701 38.6902 86.2001 38.3402 85.8501C38.0402 85.5501 37.9502 85.1601 38.0202 84.3501C38.0602 83.8201 38.1402 83.6401 38.3902 83.4101C38.8102 83.0501 39.3002 83.0601 39.7202 83.4201ZM17.2902 84.6301L17.3202 86.9701H18.5002V82.3701L17.8802 82.34L17.2602 82.3001L17.2902 84.6301ZM11.6602 89.9101C10.1502 90.2401 9.01019 91.0701 8.41019 92.3001C8.04019 93.0501 8.02019 93.1601 8.02019 94.3801C8.02019 95.5601 8.05019 95.74 8.34019 96.34C8.97019 97.63 10.1302 98.5401 12.5502 99.6401C15.1902 100.84 15.9102 101.58 15.9102 103.11C15.9102 104.5 15.2602 105.33 13.8302 105.77C12.4102 106.21 10.9902 106 9.15019 105.08C8.54019 104.77 7.99019 104.5 7.95019 104.48C7.90019 104.46 7.79019 104.53 7.68019 104.63C7.46019 104.86 7.42019 106 7.63019 106.38C8.07019 107.21 10.3802 107.98 12.3902 107.98C16.1702 107.98 18.6102 105.73 18.4102 102.42C18.3702 101.7 18.2802 101.35 17.9802 100.75C17.3902 99.5601 16.6302 98.9401 14.3202 97.8101C13.2502 97.2901 12.0802 96.6601 11.7102 96.4101C10.2502 95.4301 9.91019 93.7601 10.9402 92.6001C11.5102 91.9501 12.0902 91.7401 13.2802 91.7301C14.4102 91.7301 14.8702 91.8501 16.1702 92.5101C17.2902 93.0801 17.3902 93.0301 17.3902 91.9201C17.3902 90.9201 17.3302 90.8301 16.3102 90.3601C14.9602 89.7701 13.1502 89.5901 11.6602 89.9101ZM27.4202 89.84C25.1902 90.2 23.4702 91.2801 22.3202 93.0501C21.7402 93.9501 21.4202 94.7901 21.1202 96.2101C20.7902 97.7601 20.8702 101.21 21.2602 102.63C22.2202 106.12 24.3702 107.8 28.0502 107.96C29.9902 108.04 30.7402 107.9 32.6402 107.09C32.7102 107.06 33.0302 107.26 33.3502 107.53C34.5702 108.59 37.2502 110.11 38.1902 110.29C38.7702 110.4 38.9302 110.21 38.9302 109.39C38.9302 109.01 38.9002 108.62 38.8602 108.51C38.8202 108.4 38.2602 108.05 37.6002 107.72C36.5902 107.22 34.5702 105.92 34.5702 105.77C34.5702 105.74 34.7602 105.48 34.9802 105.18C35.9302 103.94 36.5002 102.21 36.7002 99.9701C36.8502 98.2601 36.7102 96.4301 36.3202 95.0101C35.6102 92.4401 33.8802 90.6701 31.4402 90.0101C30.6302 89.8101 28.3102 89.7 27.4202 89.84ZM30.9602 92.09C32.3602 92.61 33.2902 93.6701 33.8302 95.3201C34.1002 96.1501 34.1502 96.5301 34.2002 98.2901C34.2702 100.65 34.0902 101.79 33.4702 103.11C32.4802 105.23 30.3102 106.29 27.7802 105.9C24.6402 105.42 23.2602 103.05 23.4202 98.4001C23.5102 95.7301 23.9902 94.3301 25.2302 93.1501C25.9602 92.4501 26.4902 92.1401 27.3402 91.9301C28.3202 91.6701 30.0602 91.75 30.9602 92.09ZM59.2902 89.9201C57.8402 90.2701 56.6102 91.1701 56.0802 92.2501C55.4802 93.4901 55.4602 95.2401 56.0302 96.3701C56.7002 97.7001 57.6002 98.3901 60.4002 99.7201C62.5202 100.73 63.2302 101.32 63.5202 102.31C63.8602 103.48 63.4202 104.7 62.4402 105.34C60.9102 106.33 58.7302 106.17 56.4002 104.9C55.3502 104.33 55.2002 104.39 55.2002 105.4C55.2002 106.34 55.3302 106.62 55.9702 106.99C57.9402 108.15 61.2202 108.3 63.2602 107.34C65.7202 106.18 66.8302 103.13 65.6702 100.71C65.5202 100.4 65.1002 99.8601 64.7202 99.4901C64.1402 98.9201 63.6802 98.6401 61.7402 97.6901C58.5202 96.1101 57.8802 95.4301 58.0702 93.8201C58.1702 93.0201 58.5902 92.4301 59.3302 92.0601C59.8402 91.8001 60.1202 91.7501 60.9002 91.7501C62.0602 91.7501 62.5302 91.8701 63.7002 92.4701C64.7002 92.9801 64.9102 93.0201 65.0202 92.7401C65.1602 92.3901 65.0902 91.2201 64.9202 90.9701C64.6902 90.6501 63.5202 90.1301 62.5302 89.9201C61.5402 89.7101 60.1802 89.7001 59.2902 89.9201ZM40.9602 90.1101C40.8502 90.2201 40.8202 92.2901 40.8202 98.7101V107.17L41.1102 107.46L41.4002 107.75H45.5802C48.7802 107.75 49.7802 107.71 49.8802 107.6C50.0602 107.37 50.1402 106.68 50.0402 106.22L49.9502 105.81L46.6002 105.75L43.2502 105.69L43.2202 97.9201C43.2002 91.8901 43.1602 90.1301 43.0502 90.0601C42.8002 89.9201 41.1202 89.9501 40.9602 90.1101ZM72.3902 94.5301C71.8202 94.6201 70.6802 95.0701 70.2102 95.3901C69.0802 96.1601 68.2802 97.3901 67.8302 99.0401C67.5502 100.09 67.5502 102.68 67.8302 103.75C68.4102 105.94 69.6902 107.27 71.7302 107.81C72.6202 108.04 74.8702 108.04 75.9702 107.81C77.0102 107.59 78.0902 107.19 78.2902 106.96C78.4802 106.74 78.4702 105.55 78.2802 105.36C78.1802 105.26 77.8702 105.33 77.0402 105.61C73.8502 106.69 71.3902 106.22 70.4402 104.35C70.1602 103.8 69.9002 102.7 69.9002 102.08V101.75H73.9502C76.5102 101.75 78.1302 101.7 78.3602 101.62C78.8802 101.44 79.0202 100.99 78.9302 99.8301C78.7502 97.5301 77.9802 96.0901 76.4702 95.1801C75.5102 94.6001 73.7302 94.3101 72.3902 94.5301ZM74.5502 96.3801C75.7502 96.7401 76.4902 97.7601 76.6002 99.1701L76.6602 99.9801H69.8802L69.9602 99.4901C70.1702 98.2701 70.6802 97.3601 71.4702 96.8201C72.3602 96.2101 73.4702 96.0501 74.5502 96.3801ZM86.1402 94.5601C85.5802 94.7401 84.7702 95.3901 84.1902 96.1201L83.6302 96.84L83.5702 95.7901L83.5102 94.7401L82.8102 94.7001C82.4202 94.6801 81.9902 94.6901 81.8402 94.7301L81.5702 94.7901V101.2C81.5702 106.94 81.5902 107.61 81.7602 107.68C82.0002 107.77 83.3902 107.77 83.6202 107.68C83.7902 107.62 83.8102 107.13 83.8102 103.43V99.2501L84.3302 98.5201C85.0402 97.5201 85.9602 96.7101 86.4902 96.6101C86.7702 96.5601 87.2102 96.6001 87.7302 96.7301C88.2402 96.8601 88.5802 96.8901 88.6502 96.8201C88.7102 96.7601 88.7502 96.2801 88.7302 95.7801C88.7002 94.8801 88.6802 94.8401 88.3502 94.6901C87.9402 94.4901 86.5902 94.4101 86.1402 94.5601ZM106.42 94.5701C105.49 94.7301 104.17 95.41 103.49 96.09C102.2 97.38 101.66 99.1601 101.75 101.8C101.83 104.18 102.27 105.36 103.52 106.53C104.71 107.66 105.97 108.03 108.25 107.96C109.92 107.9 111.42 107.57 112.11 107.11C112.45 106.88 112.49 106.79 112.52 106.21C112.54 105.86 112.5 105.49 112.44 105.39C112.32 105.2 112.42 105.18 110.43 105.81C109.62 106.06 109.19 106.12 108.19 106.13C106.21 106.14 105.19 105.61 104.52 104.25C104.24 103.68 104.14 103.28 104.09 102.62L104.03 101.75L108.27 101.72C113.36 101.68 113.02 101.79 113.01 100.22C113 97.4601 111.81 95.5401 109.66 94.7901C108.88 94.5301 107.31 94.4201 106.42 94.5701ZM108.64 96.3901C109.81 96.7401 110.58 97.7801 110.74 99.2501L110.82 99.9801H104.04L104.11 99.3901C104.28 97.9501 105.27 96.7101 106.55 96.3201C107.04 96.1701 108 96.2101 108.64 96.3901ZM120.32 94.5501C119.56 94.8001 118.51 95.6801 117.93 96.5501C117.74 96.8401 117.73 96.8201 117.73 95.9001C117.73 95.3201 117.68 94.9001 117.59 94.8201C117.4 94.6301 115.94 94.6301 115.75 94.8201C115.55 95.0201 115.55 107.41 115.75 107.61C115.94 107.8 117.63 107.8 117.82 107.61C117.92 107.51 117.96 106.39 117.96 103.34V99.2101L118.4 98.5601C119.05 97.5901 119.87 96.8301 120.44 96.6601C120.93 96.5101 121.12 96.5301 122.43 96.8701C122.8 96.9701 122.91 96.7601 122.91 95.9701C122.91 95.0901 122.83 94.8501 122.46 94.6801C122.08 94.5101 120.71 94.4201 120.32 94.5501ZM89.0002 94.8601C88.8802 95.0101 89.2402 96.1101 91.0602 101.19C92.2702 104.57 93.3602 107.44 93.4802 107.57C93.9302 108.03 96.1602 107.92 96.3602 107.43C96.5102 107.04 100.64 95.5701 100.72 95.3001C100.86 94.8301 100.61 94.6901 99.6002 94.6901C99.0102 94.6901 98.6402 94.74 98.5702 94.84C98.5102 94.92 97.6702 97.3101 96.7102 100.15C95.7502 102.99 94.9302 105.27 94.8802 105.21C94.8302 105.16 94.0102 102.84 93.0602 100.05C92.1102 97.2601 91.2702 94.9201 91.2002 94.8301C91.0202 94.6001 89.1802 94.6301 89.0002 94.8601Z" fill="black"/>
</svg>
