<svg width="128" height="128" viewBox="0 0 128 128" fill="none" xmlns="http://www.w3.org/2000/svg">
<path d="M63.8102 1.026L4.55322 21.88L13.9162 99.517L63.8732 126.974L114.087 99.146L123.447 21.511L63.8102 1.026Z" fill="#B3B3B3"/>
<path d="M117.536 25.998L63.6719 7.62903V120.414L108.813 95.431L117.536 25.998Z" fill="#A6120D"/>
<path d="M11.2012 26.329L19.2272 95.763L63.6712 120.414V7.62695L11.2012 26.329Z" fill="#DD1B16"/>
<path d="M78.4992 67.67L63.6722 74.604H48.0442L40.6972 92.978L27.0342 93.232L63.6722 11.724L78.4992 67.67ZM77.0652 64.179L63.7702 37.858L52.8642 63.726H63.6712L77.0652 64.179Z" fill="#F2F2F2"/>
<path d="M63.6709 11.724L63.7689 37.858L76.1439 63.746H63.6979L63.6709 74.587L80.8799 74.604L88.9219 93.234L101.996 93.476L63.6709 11.724Z" fill="#B3B3B3"/>
</svg>
