<svg width="128" height="128" viewBox="0 0 128 128" fill="none" xmlns="http://www.w3.org/2000/svg">
<path d="M14.9849 15.15C14.7479 8.33502 20.0569 2.05103 27.2339 2.05103H100.774C107.951 2.05103 113.26 8.33502 113.023 15.15C112.795 21.696 113.091 30.176 115.225 37.09C117.366 44.026 120.976 48.409 126.889 48.973V55.36C120.976 55.923 117.366 60.307 115.225 67.243C113.091 74.157 112.795 82.637 113.023 89.183C113.26 95.998 107.951 102.281 100.774 102.281H27.2339C20.0569 102.281 14.7479 95.997 14.9849 89.183C15.2129 82.637 14.9169 74.157 12.7819 67.243C10.6419 60.308 7.02189 55.924 1.10889 55.36V48.973C7.02189 48.41 10.6419 44.026 12.7819 37.09C14.9169 30.176 15.2119 21.696 14.9849 15.15Z" fill="url(#paint0_linear_157_25)"/>
<g filter="url(#filter0_d_157_25)">
<path d="M67.1097 79.1742C78.7286 79.1742 85.7302 73.4852 85.7302 64.1017C85.7302 57.0088 80.7344 51.8737 73.3165 51.0609V50.7653C78.7665 49.8787 83.0432 44.8177 83.0432 39.1655C83.0432 31.112 76.685 25.866 66.9962 25.866H45.1963V79.1742H67.1097ZM53.674 32.6265H64.9525C71.0837 32.6265 74.5654 35.3602 74.5654 40.3105C74.5654 45.5934 70.516 48.5487 63.1737 48.5487H53.674V32.6265ZM53.674 72.4136V54.8659H64.8766C72.9001 54.8659 77.0633 57.8212 77.0633 63.5844C77.0633 69.3473 73.0138 72.4136 65.3687 72.4136H53.674Z" fill="url(#paint1_linear_157_25)"/>
<path d="M67.1097 79.1742C78.7286 79.1742 85.7302 73.4852 85.7302 64.1017C85.7302 57.0088 80.7344 51.8737 73.3165 51.0609V50.7653C78.7665 49.8787 83.0432 44.8177 83.0432 39.1655C83.0432 31.112 76.685 25.866 66.9962 25.866H45.1963V79.1742H67.1097ZM53.674 32.6265H64.9525C71.0837 32.6265 74.5654 35.3602 74.5654 40.3105C74.5654 45.5934 70.516 48.5487 63.1737 48.5487H53.674V32.6265ZM53.674 72.4136V54.8659H64.8766C72.9001 54.8659 77.0633 57.8212 77.0633 63.5844C77.0633 69.3473 73.0138 72.4136 65.3687 72.4136H53.674Z" stroke="white" stroke-width="0.24566"/>
</g>
<path d="M11.3043 121.098V102.674H17.7455C19.0289 102.674 20.0875 102.896 20.9211 103.34C21.7547 103.778 22.3755 104.368 22.7833 105.112C23.1911 105.85 23.395 106.668 23.395 107.568C23.395 108.36 23.2541 109.013 22.9722 109.529C22.6963 110.045 22.3305 110.453 21.8747 110.753C21.4249 111.052 20.9361 111.274 20.4083 111.418V111.598C20.9721 111.634 21.5388 111.832 22.1086 112.192C22.6783 112.552 23.1551 113.068 23.539 113.739C23.9228 114.411 24.1147 115.233 24.1147 116.204C24.1147 117.128 23.9048 117.958 23.485 118.696C23.0652 119.434 22.4025 120.018 21.4968 120.45C20.5912 120.882 19.4128 121.098 17.9614 121.098H11.3043ZM13.5353 119.119H17.9614C19.4188 119.119 20.4533 118.837 21.065 118.273C21.6828 117.703 21.9916 117.014 21.9916 116.204C21.9916 115.58 21.8327 115.005 21.5148 114.477C21.197 113.943 20.7442 113.517 20.1564 113.199C19.5687 112.876 18.873 112.714 18.0693 112.714H13.5353V119.119ZM13.5353 110.771H17.6735C18.3452 110.771 18.951 110.639 19.4907 110.375C20.0365 110.111 20.4683 109.739 20.7862 109.259C21.11 108.779 21.2719 108.216 21.2719 107.568C21.2719 106.758 20.9901 106.072 20.4263 105.508C19.8626 104.938 18.9689 104.653 17.7455 104.653H13.5353V110.771ZM33.1063 121.386C31.8588 121.386 30.7643 121.089 29.8227 120.495C28.8871 119.902 28.1555 119.071 27.6277 118.003C27.1059 116.936 26.845 115.688 26.845 114.261C26.845 112.822 27.1059 111.565 27.6277 110.492C28.1555 109.418 28.8871 108.584 29.8227 107.991C30.7643 107.397 31.8588 107.1 33.1063 107.1C34.3538 107.1 35.4453 107.397 36.3809 107.991C37.3225 108.584 38.0542 109.418 38.5759 110.492C39.1037 111.565 39.3676 112.822 39.3676 114.261C39.3676 115.688 39.1037 116.936 38.5759 118.003C38.0542 119.071 37.3225 119.902 36.3809 120.495C35.4453 121.089 34.3538 121.386 33.1063 121.386ZM33.1063 119.479C34.0539 119.479 34.8336 119.236 35.4453 118.75C36.057 118.264 36.5098 117.626 36.8037 116.834C37.0976 116.042 37.2445 115.185 37.2445 114.261C37.2445 113.337 37.0976 112.477 36.8037 111.679C36.5098 110.881 36.057 110.237 35.4453 109.745C34.8336 109.253 34.0539 109.007 33.1063 109.007C32.1587 109.007 31.3791 109.253 30.7673 109.745C30.1556 110.237 29.7028 110.881 29.4089 111.679C29.115 112.477 28.9681 113.337 28.9681 114.261C28.9681 115.185 29.115 116.042 29.4089 116.834C29.7028 117.626 30.1556 118.264 30.7673 118.75C31.3791 119.236 32.1587 119.479 33.1063 119.479ZM48.222 121.386C46.9745 121.386 45.88 121.089 44.9384 120.495C44.0028 119.902 43.2711 119.071 42.7434 118.003C42.2216 116.936 41.9607 115.688 41.9607 114.261C41.9607 112.822 42.2216 111.565 42.7434 110.492C43.2711 109.418 44.0028 108.584 44.9384 107.991C45.88 107.397 46.9745 107.1 48.222 107.1C49.4695 107.1 50.561 107.397 51.4966 107.991C52.4382 108.584 53.1698 109.418 53.6916 110.492C54.2194 111.565 54.4833 112.822 54.4833 114.261C54.4833 115.688 54.2194 116.936 53.6916 118.003C53.1698 119.071 52.4382 119.902 51.4966 120.495C50.561 121.089 49.4695 121.386 48.222 121.386ZM48.222 119.479C49.1696 119.479 49.9492 119.236 50.561 118.75C51.1727 118.264 51.6255 117.626 51.9194 116.834C52.2133 116.042 52.3602 115.185 52.3602 114.261C52.3602 113.337 52.2133 112.477 51.9194 111.679C51.6255 110.881 51.1727 110.237 50.561 109.745C49.9492 109.253 49.1696 109.007 48.222 109.007C47.2744 109.007 46.4947 109.253 45.883 109.745C45.2713 110.237 44.8185 110.881 44.5246 111.679C44.2307 112.477 44.0838 113.337 44.0838 114.261C44.0838 115.185 44.2307 116.042 44.5246 116.834C44.8185 117.626 45.2713 118.264 45.883 118.75C46.4947 119.236 47.2744 119.479 48.222 119.479ZM63.7335 107.28V109.079H56.5726V107.28H63.7335ZM58.6597 103.969H60.7828V117.14C60.7828 117.739 60.8698 118.189 61.0437 118.489C61.2236 118.783 61.4515 118.981 61.7274 119.083C62.0093 119.179 62.3061 119.227 62.618 119.227C62.8519 119.227 63.0438 119.215 63.1937 119.191C63.3437 119.161 63.4636 119.137 63.5536 119.119L63.9854 121.026C63.8415 121.08 63.6405 121.134 63.3827 121.188C63.1248 121.248 62.7979 121.278 62.4021 121.278C61.8023 121.278 61.2146 121.149 60.6389 120.891C60.0691 120.633 59.5953 120.24 59.2175 119.713C58.8456 119.185 58.6597 118.519 58.6597 117.715V103.969ZM76.4675 110.375L74.5603 110.914C74.4404 110.597 74.2634 110.288 74.0295 109.988C73.8016 109.682 73.4898 109.43 73.0939 109.232C72.6981 109.034 72.1913 108.935 71.5736 108.935C70.728 108.935 70.0233 109.13 69.4595 109.52C68.9018 109.904 68.6229 110.393 68.6229 110.986C68.6229 111.514 68.8148 111.931 69.1986 112.237C69.5825 112.543 70.1822 112.798 70.9979 113.002L73.049 113.505C74.2844 113.805 75.205 114.264 75.8108 114.882C76.4165 115.493 76.7194 116.282 76.7194 117.248C76.7194 118.039 76.4915 118.747 76.0357 119.371C75.5859 119.995 74.9561 120.486 74.1465 120.846C73.3368 121.206 72.3952 121.386 71.3217 121.386C69.9123 121.386 68.7458 121.08 67.8222 120.468C66.8986 119.857 66.3139 118.963 66.068 117.787L68.0831 117.284C68.275 118.027 68.6379 118.585 69.1716 118.957C69.7114 119.329 70.4161 119.515 71.2857 119.515C72.2753 119.515 73.061 119.305 73.6427 118.885C74.2305 118.459 74.5243 117.949 74.5243 117.356C74.5243 116.876 74.3564 116.474 74.0205 116.15C73.6847 115.82 73.1689 115.574 72.4732 115.412L70.1702 114.873C68.9048 114.573 67.9752 114.108 67.3814 113.478C66.7937 112.843 66.4998 112.048 66.4998 111.094C66.4998 110.315 66.7187 109.625 67.1565 109.025C67.6003 108.426 68.2031 107.955 68.9647 107.613C69.7324 107.271 70.602 107.1 71.5736 107.1C72.941 107.1 74.0145 107.4 74.7942 108C75.5799 108.599 76.1376 109.391 76.4675 110.375ZM85.9246 107.28V109.079H78.7637V107.28H85.9246ZM80.8508 103.969H82.9739V117.14C82.9739 117.739 83.0609 118.189 83.2348 118.489C83.4147 118.783 83.6426 118.981 83.9185 119.083C84.2004 119.179 84.4972 119.227 84.8091 119.227C85.043 119.227 85.2349 119.215 85.3849 119.191C85.5348 119.161 85.6547 119.137 85.7447 119.119L86.1765 121.026C86.0326 121.08 85.8317 121.134 85.5738 121.188C85.3159 121.248 84.989 121.278 84.5932 121.278C83.9935 121.278 83.4057 121.149 82.83 120.891C82.2602 120.633 81.7864 120.24 81.4086 119.713C81.0367 119.185 80.8508 118.519 80.8508 117.715V103.969ZM89.1182 121.098V107.28H91.1693V109.367H91.3133C91.5652 108.683 92.021 108.129 92.6807 107.703C93.3404 107.277 94.0841 107.064 94.9117 107.064C95.0677 107.064 95.2626 107.067 95.4965 107.073C95.7304 107.079 95.9073 107.088 96.0272 107.1V109.259C95.9553 109.241 95.7903 109.214 95.5325 109.178C95.2806 109.136 95.0137 109.115 94.7318 109.115C94.0601 109.115 93.4604 109.256 92.9326 109.538C92.4108 109.814 91.997 110.198 91.6911 110.69C91.3912 111.175 91.2413 111.73 91.2413 112.354V121.098H89.1182ZM102.61 121.422C101.735 121.422 100.94 121.257 100.226 120.927C99.5125 120.591 98.9457 120.108 98.5259 119.479C98.1061 118.843 97.8962 118.075 97.8962 117.176C97.8962 116.384 98.0521 115.742 98.364 115.251C98.6758 114.753 99.0927 114.363 99.6144 114.081C100.136 113.799 100.712 113.589 101.342 113.451C101.977 113.307 102.616 113.193 103.258 113.109C104.097 113.002 104.778 112.921 105.3 112.867C105.828 112.807 106.212 112.708 106.451 112.57C106.697 112.432 106.82 112.192 106.82 111.85V111.778C106.82 110.89 106.577 110.201 106.092 109.709C105.612 109.217 104.883 108.971 103.906 108.971C102.892 108.971 102.097 109.193 101.522 109.637C100.946 110.081 100.541 110.555 100.307 111.058L98.292 110.339C98.6518 109.499 99.1316 108.845 99.7314 108.378C100.337 107.904 100.997 107.574 101.711 107.388C102.43 107.196 103.138 107.1 103.834 107.1C104.277 107.1 104.787 107.154 105.363 107.262C105.945 107.364 106.505 107.577 107.045 107.901C107.591 108.225 108.044 108.713 108.404 109.367C108.763 110.021 108.943 110.896 108.943 111.994V121.098H106.82V119.227H106.712C106.568 119.527 106.329 119.848 105.993 120.189C105.657 120.531 105.21 120.822 104.652 121.062C104.094 121.302 103.414 121.422 102.61 121.422ZM102.934 119.515C103.774 119.515 104.481 119.35 105.057 119.02C105.639 118.69 106.077 118.264 106.37 117.742C106.67 117.221 106.82 116.672 106.82 116.096V114.153C106.73 114.261 106.532 114.36 106.227 114.45C105.927 114.534 105.579 114.609 105.183 114.675C104.793 114.735 104.412 114.789 104.041 114.837C103.675 114.879 103.378 114.915 103.15 114.945C102.598 115.017 102.082 115.134 101.603 115.296C101.129 115.451 100.745 115.688 100.451 116.006C100.163 116.318 100.019 116.744 100.019 117.284C100.019 118.021 100.292 118.579 100.838 118.957C101.39 119.329 102.088 119.515 102.934 119.515ZM112.818 126.28V107.28H114.87V109.475H115.121C115.277 109.235 115.493 108.929 115.769 108.557C116.051 108.18 116.453 107.844 116.975 107.55C117.502 107.25 118.216 107.1 119.116 107.1C120.279 107.1 121.305 107.391 122.192 107.973C123.08 108.554 123.773 109.379 124.27 110.447C124.768 111.514 125.017 112.774 125.017 114.225C125.017 115.688 124.768 116.957 124.27 118.03C123.773 119.098 123.083 119.926 122.201 120.513C121.32 121.095 120.303 121.386 119.152 121.386C118.264 121.386 117.553 121.239 117.02 120.945C116.486 120.645 116.075 120.306 115.787 119.929C115.499 119.545 115.277 119.227 115.121 118.975H114.942V126.28H112.818ZM114.906 114.189C114.906 115.233 115.058 116.153 115.364 116.951C115.67 117.742 116.117 118.363 116.705 118.813C117.293 119.257 118.012 119.479 118.864 119.479C119.751 119.479 120.492 119.245 121.086 118.777C121.686 118.303 122.135 117.668 122.435 116.87C122.741 116.066 122.894 115.173 122.894 114.189C122.894 113.217 122.744 112.342 122.444 111.562C122.15 110.777 121.704 110.156 121.104 109.7C120.51 109.238 119.763 109.007 118.864 109.007C118 109.007 117.275 109.226 116.687 109.664C116.099 110.096 115.655 110.702 115.355 111.481C115.055 112.255 114.906 113.157 114.906 114.189Z" fill="#7952B3"/>
<defs>
<filter id="filter0_d_157_25" x="41.1427" y="22.7952" width="48.6409" height="61.415" filterUnits="userSpaceOnUse" color-interpolation-filters="sRGB">
<feFlood flood-opacity="0" result="BackgroundImageFix"/>
<feColorMatrix in="SourceAlpha" type="matrix" values="0 0 0 0 0 0 0 0 0 0 0 0 0 0 0 0 0 0 127 0" result="hardAlpha"/>
<feOffset dy="0.98264"/>
<feGaussianBlur stdDeviation="1.96528"/>
<feColorMatrix type="matrix" values="0 0 0 0 0 0 0 0 0 0 0 0 0 0 0 0 0 0 0.15 0"/>
<feBlend mode="normal" in2="BackgroundImageFix" result="effect1_dropShadow_157_25"/>
<feBlend mode="normal" in="SourceGraphic" in2="effect1_dropShadow_157_25" result="shape"/>
</filter>
<linearGradient id="paint0_linear_157_25" x1="19.7995" y1="4.70366" x2="129.708" y2="91.9503" gradientUnits="userSpaceOnUse">
<stop stop-color="#9013FE"/>
<stop offset="1" stop-color="#6610F2"/>
</linearGradient>
<linearGradient id="paint1_linear_157_25" x1="49.0315" y1="29.374" x2="73.5975" y2="70.9225" gradientUnits="userSpaceOnUse">
<stop stop-color="white"/>
<stop offset="1" stop-color="#F1E5FC"/>
</linearGradient>
</defs>
</svg>
