<svg width="128" height="128" viewBox="0 0 128 128" fill="none" xmlns="http://www.w3.org/2000/svg">
<path d="M89.2342 5.85603H81.8502L89.5292 14.189V18.156H73.7132V13.511H81.3912L73.7132 5.17803V1.20703H89.2342V5.85603ZM70.5772 5.85603H63.1932L70.8722 14.189V18.156H55.0552V13.511H62.7342L55.0552 5.17803V1.20703H70.5772V5.85603ZM52.1032 6.04603H44.1352V13.317H52.1032V18.156H38.4712V1.20703H52.1032V6.04603Z" fill="#131313"/>
<path d="M27.6131 116.706L19.5161 25.8929H108.483L100.379 116.691L63.9451 126.793L27.6131 116.706Z" fill="#1572B6"/>
<path d="M64.001 119.072L93.44 110.91L100.366 33.319H64.001V119.072Z" fill="#33A9DC"/>
<path d="M64 66.22H78.738L79.757 54.815H64V43.677H91.929L91.662 46.665L88.925 77.357H64V66.22Z" fill="white"/>
<path d="M64.0671 95.146L64.0181 95.16L51.6141 91.81L50.8201 82.927H39.6411L41.2021 100.415L64.0161 106.748L64.0681 106.733L64.0671 95.146Z" fill="#EBEBEB"/>
<path d="M77.7918 76.886L76.4498 91.802L64.0278 95.155V106.743L86.8608 100.415L87.0288 98.533L88.9668 76.886H77.7918Z" fill="white"/>
<path d="M64.0392 43.677V54.814H37.1362L36.9122 52.311L36.4052 46.665L36.1382 43.677H64.0392ZM64.0002 66.221V77.359H51.7532L51.5302 74.856L51.0222 69.209L50.7552 66.221H64.0002Z" fill="#EBEBEB"/>
</svg>
