<svg width="128" height="128" viewBox="0 0 128 128" fill="none" xmlns="http://www.w3.org/2000/svg">
<path fill-rule="evenodd" clip-rule="evenodd" d="M20.0001 96.9V88.8C20.0001 87.7 20.7001 86.9 21.8001 86.9H22.1001C23.2001 86.9 23.9001 87.8 23.9001 88.8V105.8C23.9001 109.9 21.9001 113.2 18.3001 115.3C16.6001 116.3 14.8001 116.8 12.9001 116.8H12.1001C8.0001 116.8 4.7001 114.8 2.6001 111.2C1.6001 109.5 1.1001 107.7 1.1001 105.8V105C1.1001 100.9 3.1001 97.6 6.7001 95.5C8.4001 94.5 10.2001 94 12.1001 94H12.9001C15.6001 94.1 18.0001 95.1 20.0001 96.9ZM4.9001 105.4C4.9001 108.4 6.4001 110.6 9.0001 112.1C10.1001 112.7 11.2001 113 12.4001 113C15.3001 113 17.5001 111.6 19.0001 109.1C19.7001 107.9 20.0001 106.7 20.0001 105.3C20.0001 102.7 18.8001 100.7 16.7001 99.2C15.4001 98.3 14.0001 97.8 12.5001 97.8C9.3001 97.8 7.0001 99.4 5.6001 102.3C5.1001 103.3 4.9001 104.4 4.9001 105.4ZM37.1001 94.1H37.6001C42.0001 94.1 45.4001 96.2 47.5001 100.1C48.4001 101.6 48.8001 103.3 48.8001 105.1V105.9C48.8001 110 46.8001 113.3 43.2001 115.4C41.5001 116.4 39.7001 116.9 37.8001 116.9H37.0001C32.9001 116.9 29.6001 114.9 27.5001 111.3C26.5001 109.6 26.0001 107.8 26.0001 105.9V105.1C26.0001 101 28.1001 97.7 31.6001 95.6C33.3001 94.5 35.2001 94.1 37.1001 94.1ZM29.9001 105.4C29.9001 108.3 31.3001 110.4 33.8001 111.9C35.0001 112.6 36.2001 112.9 37.6001 112.9C40.5001 112.9 42.6001 111.4 44.1001 109C44.8001 107.8 45.1001 106.6 45.1001 105.2C45.1001 102.5 43.8001 100.4 41.6001 98.9C40.4001 98.1 39.0001 97.7 37.6001 97.7C34.4001 97.7 32.1001 99.3 30.7001 102.2C30.1001 103.3 29.9001 104.4 29.9001 105.4ZM64.7001 98.2C64.1001 97.9 63.0001 97.8 62.4001 97.8C59.2001 97.7 56.9001 99.5 55.5001 102.3C55.0001 103.3 54.8001 104.3 54.8001 105.4C54.8001 108.7 56.5001 111 59.4001 112.4C60.5001 112.9 61.8001 113 63.0001 113C64.0001 113 65.5001 112.4 66.4001 111.9L66.6001 111.8H67.4001C68.3001 112 68.9001 112.5 68.9001 113.5V113.9C68.9001 116.2 64.6001 116.8 63.0001 116.9C57.3001 117.3 53.0001 114.2 51.4001 108.7C51.1001 107.8 51.0001 106.8 51.0001 105.8V105C51.0001 100.9 53.1001 97.6 56.6001 95.5C58.3001 94.5 60.1001 94 62.0001 94H62.8001C64.8001 94 66.7001 94.6 68.4001 95.7L68.5001 95.8L68.6001 95.9C68.8001 96.2 68.9001 96.5 68.9001 96.9V97.3C68.9001 98.3 68.2001 98.8 67.3001 99H67.0001C66.5001 99 65.2001 98.4 64.7001 98.2ZM77.1001 100.8C78.6001 99.3 80.1001 97.8 81.6001 96.4C82.0001 96 83.6001 94.3 84.2001 94.3H85.0001C85.9001 94.5 86.5001 95 86.5001 96V96.4C86.5001 97 85.8001 97.8 85.3001 98.2L82.6001 100.9L78.0001 105.6C80.0001 107.6 82.0001 109.6 83.9001 111.6L85.5001 113.3C85.7001 113.5 86.0001 113.7 86.1001 114C86.3001 114.3 86.4001 114.6 86.4001 114.9V115.4C86.2001 116.3 85.6001 117 84.7001 117H84.4001C83.8001 117 83.1001 116.3 82.6001 115.9C81.7001 115.1 80.8001 114.2 80.0001 113.3L77.1001 110.4V115C77.1001 116.1 76.4001 116.9 75.3001 116.9H75.0001C73.9001 116.9 73.2001 116 73.2001 115V88.9C73.2001 87.8 73.9001 87 75.0001 87H75.3001C76.4001 87 77.1001 87.8 77.1001 88.9V100.8ZM124.7 94.2H125.1C126.2 94.2 127 95 127 96.1C127 97.7 125.5 98.1 124.2 98.1C122.5 98.1 120.8 99.1 119.7 100.3C118.2 101.8 117.6 103.6 117.6 105.7V114.9C117.6 116 116.9 116.8 115.8 116.8H115.5C114.4 116.8 113.7 115.9 113.7 114.9V105.1C113.7 101.3 115.5 98.3 118.6 96.1C120.4 94.9 122.5 94.2 124.7 94.2ZM97.6001 112.5C99.0001 113 100.6 112.9 102 112.7C102.7 112.4 104.6 111.6 105.3 111.7H105.5C105.9 111.9 106.3 112.2 106.5 112.6C107 113.6 106.8 114.6 105.8 115.2L105.5 115.4C101.9 117.5 98.0001 117.2 94.4001 115.2C92.7001 114.3 91.4001 112.9 90.4001 111.2L90.2001 110.8C87.9001 106.8 88.2001 102.5 90.8001 98.7C91.7001 97.4 92.9001 96.4 94.3001 95.6L94.8001 95.3C98.2001 93.3 101.9 93.5 105.4 95.2C107.3 96.1 108.8 97.5 109.9 99.3L110.1 99.6C110.9 100.9 109.9 102.1 108.9 102.9C107.7 103.8 106.5 104.9 105.4 105.9C102.7 108.1 100.1 110.3 97.6001 112.5ZM94.3001 110.2L102.8 102.9C103.8 102.1 104.8 101.2 105.8 100.3C105 99.3 103.7 98.6 102.7 98.2C100.5 97.4 98.3001 97.6 96.3001 98.8C93.7001 100.3 92.5001 102.8 92.6001 105.8C92.6001 107 93.0001 108.1 93.6001 109.2C93.8001 109.6 94.0001 109.9 94.3001 110.2ZM73.7001 33.7H85.0001V45.2H90.7001C93.3001 45.2 96.0001 44.7 98.5001 43.9C99.7001 43.5 101.1 42.9 102.3 42.2C100.7 40.1 99.9001 37.5 99.7001 34.9C99.4001 31.4 100.1 26.8 102.5 24.1L103.7 22.7L105.1 23.8C108.7 26.7 111.6 30.6 112.2 35.2C116.5 33.9 121.5 34.2 125.3 36.4L126.8 37.3L126 38.9C122.8 45.1 116.1 47.1 109.6 46.7C99.8001 71 78.6001 82.5 52.8001 82.5C39.5001 82.5 27.3001 77.5 20.3001 65.7L20.2001 65.5L19.2001 63.4C16.8001 58.2 16.1001 52.5 16.6001 46.8L16.8001 45.1H26.4001V33.7H37.7001V22.4H60.2001V11.1H73.7001V33.7Z" fill="#3A4D54"/>
<path d="M110.2 37.9C111 32 106.6 27.4 103.8 25.2C100.7 28.8 100.2 38.4 105.1 42.4C102.3 44.8 96.5998 47.0999 90.5998 47.0999H18.3998C17.7998 53.2999 18.8998 59 21.3998 63.9L22.1998 65.4C22.6998 66.3 23.2998 67.1 23.8998 68C26.8998 68.2 29.5998 68.2999 32.0998 68.1999C36.9998 68.0999 40.9998 67.5 44.0998 66.5C44.5998 66.3 44.9998 66.6 45.1998 67C45.3998 67.5 45.0998 67.8999 44.6998 68.0999C44.2998 68.1999 43.8998 68.4 43.3998 68.5C40.9998 69.2 38.3998 69.6 35.0998 69.8H34.4998C33.1998 69.9 31.7998 69.9 30.2998 69.9C28.6998 69.9 27.1998 69.9 25.3998 69.8C31.3998 76.6 40.7998 80.5999 52.5998 80.5999C77.5998 80.5999 98.7998 69.5 108.1 44.7C114.8 45.4 121.2 43.7 124.1 38C119.6 35.4 113.6 36.2 110.2 37.9Z" fill="#00AADA"/>
<path d="M110.2 37.9C111 32 106.6 27.4 103.8 25.2C100.7 28.8 100.2 38.4 105.1 42.4C102.3 44.8 96.5999 47.0999 90.5999 47.0999H22.5999C22.2999 56.5999 25.7999 63.7999 32.0999 68.0999C36.9999 67.9999 40.9999 67.4 44.0999 66.4C44.5999 66.2 44.9999 66.5 45.1999 66.9C45.3999 67.4 45.0999 67.8 44.6999 68C44.2999 68.1 43.8999 68.3 43.3999 68.4C40.9999 69.1 38.1999 69.6 34.8999 69.8L34.7999 69.6999C43.2999 74.0999 55.5999 73.9999 69.7999 68.5999C85.5999 62.4999 100.4 50.9 110.7 37.7C110.5 37.8 110.4 37.9 110.2 37.9Z" fill="#28B8EB"/>
<path d="M18.5 54.6C18.9 57.9 19.9 61 21.4 63.9L22.2 65.4C22.7 66.3 23.3 67.1 23.9 68C26.9 68.2 29.6 68.3 32.1 68.2C37 68.1 41 67.5 44.1 66.5C44.6 66.3 45 66.6 45.2 67C45.4 67.5 45.1 67.9 44.7 68.1C44.3 68.2 43.9 68.4 43.4 68.5C41 69.2 38.2 69.7 34.9 69.9H34.5C33.2 70 31.8 70 30.4 70C28.8 70 27.2 70 25.5 69.9C31.5 76.7 41 80.7 52.8 80.7C74.2 80.7 92.8 72.6 103.6 54.7H18.5V54.6Z" fill="#028BB8"/>
<path d="M23.2998 54.6C24.5998 60.4 27.5998 65 32.0998 68.1C36.9998 68 40.9998 67.4 44.0998 66.4C44.5998 66.2 44.9998 66.5 45.1998 66.9C45.3998 67.4 45.0998 67.8 44.6998 68C44.2998 68.1 43.8998 68.3 43.3998 68.4C40.9998 69.1 38.1998 69.6 34.7998 69.8C43.2998 74.2 55.5998 74.1 69.6998 68.7C78.1998 65.4 86.4998 60.5 93.8998 54.6H23.2998Z" fill="#019BC6"/>
<path fill-rule="evenodd" clip-rule="evenodd" d="M28.2002 35.5H38.0002V45.3H28.2002V35.5ZM29.0002 36.4001H29.8002V44.5H29.0002V36.4001ZM30.5002 36.4001H31.3002V44.5H30.5002V36.4001ZM32.0002 36.4001H32.8002V44.5H32.0002V36.4001ZM33.4002 36.4001H34.2002V44.5H33.4002V36.4001ZM34.9002 36.4001H35.7002V44.5H34.9002V36.4001ZM36.4002 36.4001H37.2002V44.5H36.4002V36.4001ZM39.5002 24.3H49.3002V34H39.5002V24.3ZM40.3002 25.1H41.1002V33.2001H40.3002V25.1ZM41.8002 25.1H42.6002V33.2001H41.8002V25.1ZM43.2002 25.1H44.0002V33.2001H43.2002V25.1ZM44.7002 25.1H45.5002V33.2001H44.7002V25.1ZM46.2002 25.1H47.0002V33.2001H46.2002V25.1ZM47.7002 25.1H48.5002V33.2001H47.7002V25.1Z" fill="#00ACD3"/>
<path fill-rule="evenodd" clip-rule="evenodd" d="M39.5 35.5H49.3V45.3H39.5V35.5ZM40.3 36.4H41.1V44.5H40.3V36.4ZM41.8 36.4H42.6V44.5H41.8V36.4ZM43.2 36.4H44V44.5H43.2V36.4ZM44.7 36.4H45.5V44.5H44.7V36.4ZM46.2 36.4H47V44.5H46.2V36.4ZM47.7 36.4H48.5V44.5H47.7V36.4Z" fill="#23C2EE"/>
<path fill-rule="evenodd" clip-rule="evenodd" d="M50.7998 35.5H60.5998V45.3H50.7998V35.5ZM51.5998 36.4H52.3998V44.5H51.5998V36.4ZM52.9998 36.4H53.7998V44.5H52.9998V36.4ZM54.4998 36.4H55.2998V44.5H54.4998V36.4ZM55.9998 36.4H56.7998V44.5H55.9998V36.4ZM57.4998 36.4H58.2998V44.5H57.4998V36.4ZM58.8998 36.4H59.6998V44.5H58.8998V36.4Z" fill="#00ACD3"/>
<path fill-rule="evenodd" clip-rule="evenodd" d="M50.7998 24.3H60.5998V34H50.7998V24.3ZM51.5998 25.1H52.3998V33.2001H51.5998V25.1ZM52.9998 25.1H53.7998V33.2001H52.9998V25.1ZM54.4998 25.1H55.2998V33.2001H54.4998V25.1ZM55.9998 25.1H56.7998V33.2001H55.9998V25.1ZM57.4998 25.1H58.2998V33.2001H57.4998V25.1ZM58.8998 25.1H59.6998V33.2001H58.8998V25.1ZM61.9998 35.5H71.7998V45.3H61.9998V35.5ZM62.8998 36.4001H63.6998V44.5H62.8998V36.4001ZM64.2998 36.4001H65.0998V44.5H64.2998V36.4001ZM65.7998 36.4001H66.5998V44.5H65.7998V36.4001ZM67.2998 36.4001H68.0998V44.5H67.2998V36.4001ZM68.6998 36.4001H69.4998V44.5H68.6998V36.4001ZM70.1998 36.4001H70.9998V44.5H70.1998V36.4001Z" fill="#23C2EE"/>
<path fill-rule="evenodd" clip-rule="evenodd" d="M62 24.3H71.8V34H62V24.3ZM62.9 25.1H63.7V33.2001H62.9V25.1ZM64.3 25.1H65.1V33.2001H64.3V25.1ZM65.8 25.1H66.6V33.2001H65.8V25.1ZM67.3 25.1H68.1V33.2001H67.3V25.1ZM68.7 25.1H69.5V33.2001H68.7V25.1ZM70.2 25.1H71V33.2001H70.2V25.1Z" fill="#00ACD3"/>
<path fill-rule="evenodd" clip-rule="evenodd" d="M62 13H71.8V22.8H62V13ZM62.9 13.8H63.7V22H62.9V13.8ZM64.3 13.8H65.1V22H64.3V13.8ZM65.8 13.8H66.6V22H65.8V13.8ZM67.3 13.8H68.1V22H67.3V13.8ZM68.7 13.8H69.5V22H68.7V13.8ZM70.2 13.8H71V22H70.2V13.8Z" fill="#23C2EE"/>
<path fill-rule="evenodd" clip-rule="evenodd" d="M73.2998 35.5H83.0998V45.3H73.2998V35.5ZM74.0998 36.4H74.8998V44.5H74.0998V36.4ZM75.5998 36.4H76.3998V44.5H75.5998V36.4ZM77.0998 36.4H77.8998V44.5H77.0998V36.4ZM78.4998 36.4H79.2998V44.5H78.4998V36.4ZM79.9998 36.4H80.7998V44.5H79.9998V36.4ZM81.4998 36.4H82.2998V44.5H81.4998V36.4Z" fill="#00ACD3"/>
<path fill-rule="evenodd" clip-rule="evenodd" d="M48.5999 61.2C50.0999 61.2 51.2999 62.4 51.2999 63.9C51.2999 65.4 50.0999 66.5999 48.5999 66.5999C47.0999 66.5999 45.8999 65.4 45.8999 63.9C45.9999 62.4 47.1999 61.2 48.5999 61.2Z" fill="#D4EEF1"/>
<path fill-rule="evenodd" clip-rule="evenodd" d="M48.6 61.9C48.8 61.9 49.1 61.9 49.3 62C49.1 62.1 48.9 62.4 48.9 62.7C48.9 63.1 49.3 63.5 49.7 63.5C50 63.5 50.3 63.3 50.4 63.1C50.5 63.3 50.5 63.6 50.5 63.8C50.5 64.9 49.6 65.7 48.6 65.7C47.5 65.7 46.7 64.8 46.7 63.8C46.7 62.8 47.6 61.9 48.6 61.9ZM1 55.6H126.3C123.6 54.9 117.7 54 118.6 50.4C113.6 56.1 101.7 54.4 98.6 51.6C95.2 56.5 75.6 54.6 74.3 50.8C70.1 55.8 57 55.8 52.8 50.8C51.4 54.6 31.8 56.5 28.5 51.6C25.5 54.4 13.5 56.1 8.5 50.4C9.6 53.9 3.7 54.9 1 55.6Z" fill="#3A4D54"/>
<path d="M55.8002 80.6C49.1002 77.4 45.5002 73.1 43.4002 68.4C40.9002 69.1 37.9002 69.6 34.5002 69.8C33.2002 69.9 31.8002 69.9 30.4002 69.9C28.7002 69.9 27.0002 69.9 25.2002 69.8C31.3002 75.9 38.9002 80.6 52.8002 80.7C53.8002 80.6 54.8002 80.6 55.8002 80.6Z" fill="#BFDBE0"/>
<path d="M45.9 72.7C45 71.4 44.1 69.9 43.4 68.4C40.9 69.1 37.9 69.6 34.5 69.8C36.9 71.1 40.3 72.3 45.9 72.7Z" fill="#D4EEF1"/>
</svg>
