<svg width="128" height="128" viewBox="0 0 128 128" fill="none" xmlns="http://www.w3.org/2000/svg">
<path d="M114.325 80.749C114.035 80.749 113.747 80.673 113.493 80.525L110.843 78.957C110.447 78.736 110.64 78.657 110.771 78.612C111.299 78.428 111.406 78.385 111.969 78.067C112.028 78.034 112.105 78.046 112.166 78.082L114.201 79.291C114.239 79.3112 114.281 79.3218 114.324 79.3218C114.367 79.3218 114.409 79.3112 114.447 79.291L122.384 74.71C122.421 74.688 122.452 74.6565 122.474 74.6188C122.495 74.5811 122.506 74.5384 122.506 74.495V65.335C122.506 65.291 122.495 65.2478 122.473 65.2094C122.452 65.171 122.42 65.1389 122.383 65.116L114.449 60.539C114.411 60.5184 114.369 60.5075 114.326 60.5075C114.284 60.5075 114.241 60.5184 114.204 60.539L106.271 65.117C106.233 65.1397 106.202 65.1717 106.18 65.2098C106.158 65.248 106.147 65.2911 106.146 65.335V74.495C106.146 74.583 106.195 74.666 106.271 74.707L108.445 75.964C109.625 76.553 110.348 75.859 110.348 75.161V66.116C110.348 65.989 110.451 65.888 110.578 65.888H111.585C111.71 65.888 111.814 65.989 111.814 66.116V75.161C111.814 76.735 110.957 77.638 109.464 77.638C109.005 77.638 108.644 77.638 107.636 77.142L105.555 75.944C105.302 75.7964 105.092 75.5851 104.946 75.331C104.8 75.0769 104.723 74.789 104.723 74.496V65.336C104.723 64.741 105.04 64.186 105.555 63.89L113.492 59.303C113.748 59.1638 114.034 59.0908 114.325 59.0908C114.617 59.0908 114.903 59.1638 115.159 59.303L123.096 63.89C123.61 64.187 123.929 64.742 123.929 65.336V74.496C123.928 74.7891 123.851 75.0769 123.705 75.3309C123.559 75.5849 123.349 75.7963 123.096 75.944L115.159 80.526C114.906 80.673 114.618 80.75 114.325 80.749ZM116.778 74.438C113.303 74.438 112.576 72.843 112.576 71.506C112.576 71.4452 112.601 71.3869 112.644 71.344C112.687 71.3011 112.745 71.277 112.806 71.277H113.832C113.887 71.2768 113.94 71.2963 113.982 71.3318C114.024 71.3674 114.051 71.4168 114.06 71.471C114.214 72.516 114.677 73.043 116.778 73.043C118.449 73.043 119.161 72.665 119.161 71.777C119.161 71.265 118.959 70.886 116.361 70.631C114.189 70.416 112.846 69.937 112.846 68.198C112.846 66.597 114.196 65.641 116.458 65.641C119.001 65.641 120.259 66.524 120.418 68.418C120.42 68.4499 120.416 68.4819 120.406 68.5122C120.396 68.5425 120.379 68.5703 120.358 68.594C120.336 68.6168 120.31 68.6349 120.281 68.6475C120.252 68.66 120.221 68.6667 120.19 68.667H119.159C119.107 68.6671 119.056 68.6494 119.016 68.6168C118.975 68.5843 118.947 68.5388 118.936 68.488C118.688 67.388 118.088 67.037 116.457 67.037C114.632 67.037 114.42 67.674 114.42 68.149C114.42 68.726 114.67 68.894 117.135 69.22C119.574 69.543 120.733 69.999 120.733 71.714C120.734 73.447 119.292 74.438 116.778 74.438ZM97.9819 68.43C98.2949 68.247 98.4879 67.913 98.4879 67.55V65.196C98.4879 64.834 98.2959 64.5 97.9819 64.317L89.6179 59.461C89.4632 59.3711 89.2876 59.3235 89.1087 59.3232C88.9298 59.3228 88.7539 59.3697 88.5989 59.459L80.1829 64.318C80.0286 64.4073 79.9004 64.5357 79.8112 64.6901C79.7221 64.8445 79.6751 65.0197 79.6749 65.198V74.914C79.6749 75.279 79.8709 75.617 80.1889 75.798L88.5519 80.563C88.8599 80.74 89.2379 80.741 89.5489 80.569L94.6069 77.757C94.6856 77.7133 94.7513 77.6495 94.7973 77.572C94.8432 77.4946 94.8678 77.4063 94.8684 77.3163C94.869 77.2262 94.8457 77.1376 94.8008 77.0596C94.7559 76.9815 94.691 76.9168 94.6129 76.872L86.1449 72.012C86.0672 71.9678 86.0026 71.9037 85.9577 71.8265C85.9127 71.7492 85.889 71.6614 85.8889 71.572V68.526C85.8889 68.344 85.9859 68.177 86.1429 68.087L88.7799 66.567C88.8569 66.5223 88.9444 66.4988 89.0334 66.4988C89.1224 66.4988 89.2099 66.5223 89.2869 66.567L91.9239 68.087C92.0012 68.1313 92.0655 68.1952 92.1103 68.2723C92.1551 68.3494 92.1787 68.4369 92.1789 68.526V70.922C92.1784 71.0116 92.2016 71.0997 92.2462 71.1774C92.2908 71.2551 92.3552 71.3196 92.4329 71.3643C92.5105 71.409 92.5986 71.4324 92.6882 71.432C92.7778 71.4316 92.8657 71.4074 92.9429 71.362L97.9819 68.43ZM88.9839 67.974C89.0137 67.9574 89.0473 67.9486 89.0814 67.9486C89.1155 67.9486 89.1491 67.9574 89.1789 67.974L90.7939 68.907C90.8539 68.942 90.8909 69.007 90.8909 69.076V70.941C90.8909 71.011 90.8539 71.075 90.7939 71.11L89.1789 72.042C89.1493 72.0592 89.1156 72.0683 89.0814 72.0683C89.0471 72.0683 89.0135 72.0592 88.9839 72.042L87.3699 71.11C87.3401 71.093 87.3153 71.0684 87.2981 71.0387C87.2808 71.0091 87.2718 70.9753 87.2719 70.941V69.076C87.2719 69.007 87.3089 68.942 87.3699 68.907L88.9839 67.974ZM67.0829 71.854C67.0829 71.944 67.0349 72.028 66.9559 72.074L64.0659 73.74C64.0274 73.7626 63.9835 73.7745 63.9389 73.7745C63.8942 73.7745 63.8504 73.7626 63.8119 73.74L60.9219 72.074C60.8833 72.0516 60.8513 72.0196 60.829 71.981C60.8068 71.9424 60.795 71.8986 60.7949 71.854V68.516C60.7949 68.426 60.8439 68.341 60.9219 68.295L63.8119 66.627C63.8504 66.6039 63.8945 66.5917 63.9394 66.5917C63.9843 66.5917 64.0284 66.6039 64.0669 66.627L66.9579 68.295C66.9962 68.3178 67.0279 68.3502 67.05 68.3889C67.0721 68.4276 67.0838 68.4714 67.0839 68.516L67.0829 71.854ZM67.8639 47.138C67.7864 47.0957 67.6993 47.0741 67.611 47.0755C67.5227 47.0769 67.4362 47.1011 67.3601 47.1458C67.2839 47.1905 67.2207 47.2542 67.1765 47.3307C67.1323 47.4071 67.1087 47.4937 67.1079 47.582V60.497C67.1076 60.5593 67.0912 60.6204 67.0602 60.6744C67.0291 60.7284 66.9846 60.7734 66.9309 60.805C66.8767 60.836 66.8153 60.8522 66.7529 60.8522C66.6905 60.8522 66.6291 60.836 66.5749 60.805L64.4669 59.59C64.3125 59.5011 64.1375 59.4543 63.9594 59.4543C63.7813 59.4543 63.6063 59.5011 63.4519 59.59L55.0339 64.448C54.8792 64.5373 54.7508 64.6657 54.6614 64.8204C54.5721 64.975 54.525 65.1504 54.5249 65.329V75.048C54.5249 75.411 54.7189 75.746 55.0329 75.929L63.4509 80.79C63.7649 80.972 64.1529 80.972 64.4679 80.79L72.8879 75.929C73.0422 75.8394 73.1704 75.7109 73.2595 75.5563C73.3487 75.4017 73.3957 75.2265 73.3959 75.048V50.821C73.3959 50.453 73.1959 50.113 72.8749 49.933L67.8639 47.138ZM38.2379 59.407C38.3923 59.3176 38.5675 59.2706 38.7459 59.2706C38.9243 59.2706 39.0995 59.3176 39.2539 59.407L47.6719 64.264C47.9859 64.446 48.1799 64.782 48.1799 65.145V74.867C48.1799 75.23 47.9859 75.566 47.6719 75.748L39.2549 80.609C39.1002 80.698 38.9249 80.7448 38.7464 80.7448C38.5679 80.7448 38.3926 80.698 38.2379 80.609L29.8229 75.748C29.6686 75.6584 29.5404 75.5299 29.4513 75.3753C29.3621 75.2207 29.3151 75.0455 29.3149 74.867V65.144C29.3149 64.782 29.5089 64.446 29.8229 64.264L38.2379 59.407ZM22.9299 65.064C22.9299 64.698 22.7379 64.362 22.4219 64.181L14.0069 59.338C13.8656 59.2561 13.7062 59.2104 13.5429 59.205H13.4559C13.2926 59.2105 13.1333 59.2562 12.9919 59.338L4.57589 64.181C4.42107 64.2706 4.29254 64.3994 4.2032 64.5544C4.11386 64.7094 4.06685 64.8851 4.06689 65.064L4.08489 78.104C4.08489 78.286 4.17989 78.455 4.33889 78.543C4.41503 78.5892 4.50236 78.6136 4.59139 78.6136C4.68043 78.6136 4.76776 78.5892 4.84389 78.543L9.84389 75.679C10.1599 75.491 10.3529 75.16 10.3529 74.797V68.705C10.3529 68.341 10.5449 68.006 10.8599 67.824L12.9899 66.598C13.1438 66.5075 13.3193 66.4602 13.4979 66.461C13.6719 66.461 13.8499 66.505 14.0049 66.598L16.1329 67.824C16.4479 68.006 16.6419 68.341 16.6419 68.705V74.797C16.6419 75.16 16.8369 75.493 17.1509 75.679L22.1509 78.543C22.228 78.5871 22.3153 78.6101 22.4041 78.6099C22.4929 78.6097 22.5801 78.5862 22.657 78.5418C22.7339 78.4974 22.7978 78.4336 22.8423 78.3568C22.8869 78.28 22.9105 78.1928 22.9109 78.104L22.9299 65.064Z" fill="#83CD29"/>
</svg>
